{"glyphs":{"0":{"ha":778,"x_min":53,"x_max":724,"o":"m 389 -14 q 248 8 310 -14 q 142 83 186 31 q 76 224 99 135 q 53 444 53 313 q 75 679 53 585 q 141 829 97 774 q 247 908 185 885 q 388 932 308 932 q 532 908 469 932 q 637 829 594 885 q 701 680 679 774 q 724 444 724 586 q 683 169 724 269 q 569 28 643 69 q 389 -14 494 -14 m 389 85 q 484 101 443 85 q 553 158 525 118 q 594 269 581 199 q 608 444 608 339 q 595 635 608 560 q 555 753 582 710 q 487 815 528 797 q 389 833 446 833 q 292 815 333 833 q 223 754 250 797 q 182 635 196 711 q 168 443 168 560 q 183 267 168 338 q 226 158 197 197 q 295 101 254 118 q 389 85 336 85 z "},"1":{"ha":778,"x_min":146,"x_max":542,"o":"m 431 0 l 431 793 l 197 638 l 146 722 l 438 917 l 542 917 l 542 0 l 431 0 z "},"2":{"ha":778,"x_min":96,"x_max":682,"o":"m 96 0 l 96 94 l 360 371 q 458 478 417 431 q 522 573 500 526 q 544 672 544 619 q 495 797 544 763 q 347 831 446 831 q 267 826 311 831 q 181 815 222 821 q 111 801 140 808 l 103 893 q 175 910 132 901 q 269 924 218 918 q 368 931 319 931 q 587 872 514 931 q 660 685 660 814 q 638 563 660 617 q 574 456 617 508 q 467 340 532 404 l 226 97 l 682 97 l 682 0 l 96 0 z "},"3":{"ha":778,"x_min":86,"x_max":686,"o":"m 386 -14 q 276 -8 333 -14 q 169 7 219 -1 q 86 24 119 15 l 96 114 q 175 101 128 108 q 275 90 222 94 q 375 85 328 85 q 523 128 475 85 q 571 258 571 172 q 546 357 571 321 q 478 410 521 393 q 385 428 436 426 l 200 428 l 200 524 l 385 524 q 458 543 419 524 q 522 599 496 563 q 549 688 549 636 q 506 799 549 765 q 364 833 464 833 q 270 828 318 833 q 180 817 222 824 q 110 804 138 811 l 100 893 q 172 910 128 901 q 267 926 215 919 q 368 932 318 932 q 542 906 478 932 q 635 828 607 881 q 664 693 664 775 q 647 603 664 640 q 607 542 631 567 q 561 504 583 518 q 528 483 539 490 q 610 444 575 467 q 666 378 646 421 q 686 263 686 336 q 655 108 686 169 q 557 17 624 47 q 386 -14 490 -14 z "},"4":{"ha":778,"x_min":56,"x_max":724,"o":"m 497 0 l 497 178 l 56 178 l 56 264 l 315 917 l 438 917 l 172 276 l 497 276 l 497 560 l 608 560 l 608 276 l 724 276 l 724 178 l 608 178 l 608 0 l 497 0 z "},"5":{"ha":778,"x_min":88,"x_max":700,"o":"m 392 -12 q 283 -6 340 -12 q 174 10 226 1 q 88 28 122 19 l 100 117 q 183 103 135 111 q 284 91 232 96 q 381 86 336 86 q 530 140 475 86 q 585 297 585 194 q 561 406 585 367 q 494 463 538 446 q 394 479 451 479 q 311 471 353 479 q 235 450 269 463 q 178 425 200 438 l 103 440 l 128 917 l 663 917 l 663 817 l 219 817 l 194 524 q 253 547 218 535 q 328 569 288 560 q 407 578 368 578 q 563 551 497 578 q 664 465 628 524 q 700 307 700 406 q 663 131 700 201 q 558 24 626 60 q 392 -12 489 -12 z "},"6":{"ha":778,"x_min":68,"x_max":718,"o":"m 397 -14 q 147 113 225 -14 q 68 463 68 240 q 93 676 68 588 q 165 822 118 765 q 279 904 213 878 q 428 931 346 931 q 518 926 471 931 q 608 917 565 922 q 681 906 651 911 l 669 817 q 602 823 643 819 q 516 829 561 826 q 428 832 471 832 q 247 751 310 832 q 183 521 185 671 q 220 532 196 524 q 277 550 244 540 q 344 567 310 560 q 411 574 379 574 q 640 504 563 574 q 718 289 718 435 q 681 124 718 192 q 572 21 643 56 q 397 -14 500 -14 m 397 85 q 551 138 497 85 q 604 289 604 190 q 551 429 604 383 q 403 475 497 475 q 324 467 365 475 q 244 447 282 458 q 182 424 207 435 q 204 251 183 328 q 272 129 225 174 q 397 85 319 85 z "},"7":{"ha":778,"x_min":107,"x_max":678,"o":"m 325 -14 l 221 18 l 564 779 l 564 817 l 107 817 l 107 917 l 678 917 l 678 772 l 325 -14 z "},"8":{"ha":778,"x_min":43,"x_max":733,"o":"m 386 -14 q 216 8 294 -14 q 90 85 138 31 q 43 233 43 139 q 63 349 43 304 q 119 423 83 393 q 200 479 154 453 q 94 563 129 515 q 58 694 58 610 q 99 826 58 774 q 213 906 139 879 q 386 932 286 932 q 560 906 485 932 q 677 826 635 879 q 719 693 719 774 q 683 560 719 604 q 568 479 647 515 q 654 428 617 457 q 713 356 692 399 q 733 249 733 314 q 686 90 733 147 q 560 10 639 33 q 386 -14 482 -14 m 386 88 q 504 103 453 88 q 585 156 556 118 q 614 260 614 194 q 593 344 614 313 q 537 394 572 375 q 456 425 501 413 l 310 425 q 201 367 240 406 q 163 253 163 328 q 192 155 163 192 q 272 103 221 118 q 386 88 322 88 m 310 522 l 456 522 q 563 581 525 546 q 600 679 600 617 q 544 796 600 761 q 388 831 488 831 q 234 797 290 831 q 178 681 178 763 q 211 582 178 618 q 310 522 244 546 z "},"9":{"ha":778,"x_min":57,"x_max":707,"o":"m 343 -14 q 254 -10 301 -14 q 164 0 207 -6 q 90 11 121 6 l 101 101 q 169 94 129 99 q 256 88 210 90 q 343 85 301 85 q 528 162 467 85 q 592 399 590 239 q 515 374 557 386 q 433 353 474 361 q 357 346 392 346 q 135 414 213 346 q 57 626 57 482 q 96 789 57 721 q 206 894 135 857 q 375 931 278 931 q 565 873 492 931 q 672 708 638 815 q 707 456 707 601 q 682 232 707 322 q 610 88 657 142 q 497 10 564 33 q 343 -14 429 -14 m 367 444 q 443 453 401 444 q 525 473 485 461 q 593 494 565 485 q 570 669 592 593 q 501 788 549 744 q 375 832 454 832 q 226 776 281 832 q 171 626 171 721 q 221 488 171 532 q 367 444 271 444 z "},"A":{"ha":828,"x_min":32,"x_max":796,"o":"m 32 0 l 294 960 l 535 960 l 796 0 l 685 0 l 617 243 l 211 243 l 143 0 l 32 0 m 235 342 l 593 342 l 450 865 l 378 865 l 235 342 z "},"Á":{"ha":828,"x_min":32,"x_max":796,"o":"m 32 0 l 294 960 l 535 960 l 796 0 l 685 0 l 617 243 l 211 243 l 143 0 l 32 0 m 235 342 l 593 342 l 450 865 l 378 865 l 235 342 m 289 1078 l 257 1156 l 560 1294 l 596 1199 l 289 1078 z "},"Ă":{"ha":828,"x_min":32,"x_max":796,"o":"m 32 0 l 294 960 l 535 960 l 796 0 l 685 0 l 617 243 l 211 243 l 143 0 l 32 0 m 235 342 l 593 342 l 450 865 l 378 865 l 235 342 m 411 1090 q 298 1114 346 1090 q 222 1179 250 1138 q 192 1275 194 1221 l 292 1275 q 328 1200 294 1228 q 411 1172 363 1172 q 496 1200 461 1172 q 532 1275 531 1228 l 632 1275 q 601 1179 629 1221 q 526 1114 574 1138 q 411 1090 478 1090 z "},"Â":{"ha":828,"x_min":32,"x_max":796,"o":"m 32 0 l 294 960 l 535 960 l 796 0 l 685 0 l 617 243 l 211 243 l 143 0 l 32 0 m 235 342 l 593 342 l 450 865 l 378 865 l 235 342 m 179 1097 l 365 1285 l 460 1285 l 646 1097 l 525 1097 l 414 1207 l 301 1097 l 179 1097 z "},"Ä":{"ha":828,"x_min":32,"x_max":796,"o":"m 32 0 l 294 960 l 535 960 l 796 0 l 685 0 l 617 243 l 211 243 l 143 0 l 32 0 m 235 342 l 593 342 l 450 865 l 378 865 l 235 342 m 503 1119 l 503 1247 l 607 1247 l 607 1119 l 503 1119 m 219 1119 l 219 1247 l 324 1247 l 324 1119 l 219 1119 z "},"À":{"ha":828,"x_min":32,"x_max":796,"o":"m 32 0 l 294 960 l 535 960 l 796 0 l 685 0 l 617 243 l 211 243 l 143 0 l 32 0 m 235 342 l 593 342 l 450 865 l 378 865 l 235 342 m 532 1078 l 225 1199 l 261 1294 l 564 1156 l 532 1078 z "},"Ā":{"ha":828,"x_min":32,"x_max":796,"o":"m 32 0 l 294 960 l 535 960 l 796 0 l 685 0 l 617 243 l 211 243 l 143 0 l 32 0 m 235 342 l 593 342 l 450 865 l 378 865 l 235 342 m 196 1125 l 196 1210 l 631 1210 l 631 1125 l 196 1125 z "},"Ą":{"ha":828,"x_min":32,"x_max":824,"o":"m 32 0 l 294 960 l 535 960 l 796 0 l 685 0 l 617 243 l 211 243 l 143 0 l 32 0 m 235 342 l 593 342 l 450 865 l 378 865 l 235 342 m 715 -287 q 642 -270 672 -287 q 598 -226 613 -253 q 583 -171 583 -200 q 601 -104 583 -137 q 644 -41 618 -71 q 697 11 671 -11 l 785 0 q 733 -53 756 -26 q 699 -103 711 -79 q 686 -149 686 -128 q 701 -185 686 -171 q 743 -200 715 -200 q 776 -197 756 -200 q 810 -192 796 -193 l 824 -275 q 767 -283 797 -279 q 715 -287 736 -287 z "},"Å":{"ha":828,"x_min":32,"x_max":796,"o":"m 32 0 l 294 960 l 535 960 l 796 0 l 685 0 l 617 243 l 211 243 l 143 0 l 32 0 m 235 342 l 593 342 l 450 865 l 378 865 l 235 342 m 414 883 q 294 922 342 883 q 247 1031 247 961 q 294 1140 247 1101 q 414 1179 342 1179 q 531 1140 483 1179 q 579 1031 579 1101 q 531 922 579 961 q 414 883 483 883 m 414 957 q 476 976 454 957 q 499 1031 499 996 q 476 1085 499 1067 q 414 1104 454 1104 q 351 1085 374 1104 q 328 1031 328 1067 q 351 976 328 996 q 414 957 374 957 z "},"Ǻ":{"ha":828,"x_min":32,"x_max":796,"o":"m 32 0 l 294 960 l 535 960 l 796 0 l 685 0 l 617 243 l 211 243 l 143 0 l 32 0 m 235 342 l 593 342 l 450 865 l 378 865 l 235 342 m 414 886 q 294 925 342 886 q 247 1033 247 964 q 294 1143 247 1104 q 414 1182 342 1182 q 531 1143 483 1182 q 579 1033 579 1104 q 531 925 579 964 q 414 886 483 886 m 414 960 q 476 979 454 960 q 499 1033 499 999 q 476 1088 499 1069 q 414 1107 454 1107 q 351 1088 374 1107 q 328 1033 328 1069 q 351 979 328 999 q 414 960 374 960 m 267 1208 l 235 1286 l 538 1425 l 574 1329 l 267 1208 z "},"Ã":{"ha":828,"x_min":32,"x_max":796,"o":"m 32 0 l 294 960 l 535 960 l 796 0 l 685 0 l 617 243 l 211 243 l 143 0 l 32 0 m 235 342 l 593 342 l 450 865 l 378 865 l 235 342 m 525 1113 q 468 1124 500 1113 q 403 1150 436 1135 q 342 1176 369 1165 q 299 1188 314 1188 q 250 1165 281 1188 q 197 1121 219 1142 l 172 1201 q 231 1255 194 1228 q 297 1282 267 1282 q 356 1271 324 1282 q 421 1245 389 1260 q 480 1219 453 1231 q 524 1208 507 1208 q 568 1229 539 1208 q 619 1271 597 1250 l 644 1190 q 591 1139 625 1165 q 525 1113 557 1113 z "},"Æ":{"ha":1217,"x_min":26,"x_max":1151,"o":"m 26 0 l 335 967 l 1151 967 l 1151 860 l 675 860 l 675 547 l 1068 547 l 1068 442 l 675 442 l 675 106 l 1151 106 l 1151 0 l 565 0 l 565 239 l 221 239 l 142 0 l 26 0 m 250 346 l 565 346 l 567 860 l 415 860 l 250 346 z "},"Ǽ":{"ha":1217,"x_min":26,"x_max":1151,"o":"m 26 0 l 335 967 l 1151 967 l 1151 860 l 675 860 l 675 547 l 1068 547 l 1068 442 l 675 442 l 675 106 l 1151 106 l 1151 0 l 565 0 l 565 239 l 221 239 l 142 0 l 26 0 m 250 346 l 565 346 l 567 860 l 415 860 l 250 346 m 603 1078 l 571 1156 l 874 1294 l 910 1199 l 603 1078 z "},"B":{"ha":854,"x_min":117,"x_max":782,"o":"m 117 0 l 117 960 l 467 960 q 624 935 561 960 q 720 856 688 910 q 753 715 753 801 q 738 612 753 654 q 697 542 724 569 q 632 494 671 514 q 708 454 674 481 q 762 383 742 428 q 782 269 782 339 q 761 142 782 194 q 701 59 740 90 q 606 14 661 28 q 483 0 551 0 l 117 0 m 228 97 l 479 97 q 580 113 538 97 q 646 166 622 128 q 669 274 669 204 q 649 361 669 328 q 599 411 629 394 q 535 433 568 428 q 474 439 501 439 l 228 439 l 228 97 m 228 536 l 472 536 q 601 578 561 536 q 640 706 640 621 q 597 825 640 788 q 463 863 553 863 l 228 863 l 228 536 z "},"C":{"ha":756,"x_min":81,"x_max":699,"o":"m 433 -14 q 256 18 325 -14 q 149 113 188 50 q 95 267 110 175 q 81 478 81 358 q 95 693 81 600 q 149 849 110 786 q 256 943 188 911 q 433 975 325 975 q 533 970 483 975 q 625 958 582 965 q 699 943 668 950 l 694 850 q 619 861 664 856 q 529 871 575 867 q 446 875 483 875 q 317 851 367 875 q 242 778 268 828 q 206 655 215 729 q 196 478 196 581 q 206 303 196 378 q 241 181 215 229 q 317 110 267 133 q 447 86 367 86 q 576 94 506 86 q 694 110 646 101 l 699 15 q 621 1 665 8 q 528 -10 576 -6 q 433 -14 479 -14 z "},"Ć":{"ha":756,"x_min":81,"x_max":699,"o":"m 433 -14 q 256 18 325 -14 q 149 113 188 50 q 95 267 110 175 q 81 478 81 358 q 95 693 81 600 q 149 849 110 786 q 256 943 188 911 q 433 975 325 975 q 533 970 483 975 q 625 958 582 965 q 699 943 668 950 l 694 850 q 619 861 664 856 q 529 871 575 867 q 446 875 483 875 q 317 851 367 875 q 242 778 268 828 q 206 655 215 729 q 196 478 196 581 q 206 303 196 378 q 241 181 215 229 q 317 110 267 133 q 447 86 367 86 q 576 94 506 86 q 694 110 646 101 l 699 15 q 621 1 665 8 q 528 -10 576 -6 q 433 -14 479 -14 m 282 1078 l 250 1156 l 553 1294 l 589 1199 l 282 1078 z "},"Č":{"ha":756,"x_min":81,"x_max":699,"o":"m 433 -14 q 256 18 325 -14 q 149 113 188 50 q 95 267 110 175 q 81 478 81 358 q 95 693 81 600 q 149 849 110 786 q 256 943 188 911 q 433 975 325 975 q 533 970 483 975 q 625 958 582 965 q 699 943 668 950 l 694 850 q 619 861 664 856 q 529 871 575 867 q 446 875 483 875 q 317 851 367 875 q 242 778 268 828 q 206 655 215 729 q 196 478 196 581 q 206 303 196 378 q 241 181 215 229 q 317 110 267 133 q 447 86 367 86 q 576 94 506 86 q 694 110 646 101 l 699 15 q 621 1 665 8 q 528 -10 576 -6 q 433 -14 479 -14 m 375 1097 l 189 1285 l 310 1285 l 422 1176 l 533 1285 l 654 1285 l 468 1097 l 375 1097 z "},"Ç":{"ha":756,"x_min":81,"x_max":699,"o":"m 433 -14 q 256 18 325 -14 q 149 113 188 50 q 95 267 110 175 q 81 478 81 358 q 95 693 81 600 q 149 849 110 786 q 256 943 188 911 q 433 975 325 975 q 533 970 483 975 q 625 958 582 965 q 699 943 668 950 l 694 850 q 619 861 664 856 q 529 871 575 867 q 446 875 483 875 q 317 851 367 875 q 242 778 268 828 q 206 655 215 729 q 196 478 196 581 q 206 303 196 378 q 241 181 215 229 q 317 110 267 133 q 447 86 367 86 q 576 94 506 86 q 694 110 646 101 l 699 15 q 621 1 665 8 q 528 -10 576 -6 q 433 -14 479 -14 m 472 -303 q 405 -300 439 -303 q 351 -293 371 -297 l 356 -225 q 399 -227 368 -226 q 446 -228 429 -228 q 491 -216 475 -228 q 507 -176 507 -204 q 491 -140 507 -150 q 446 -131 475 -131 l 389 -131 l 389 1 l 447 1 l 447 -67 q 564 -89 525 -68 q 603 -176 603 -110 q 567 -273 603 -243 q 472 -303 531 -303 z "},"Ĉ":{"ha":756,"x_min":81,"x_max":699,"o":"m 433 -14 q 256 18 325 -14 q 149 113 188 50 q 95 267 110 175 q 81 478 81 358 q 95 693 81 600 q 149 849 110 786 q 256 943 188 911 q 433 975 325 975 q 533 970 483 975 q 625 958 582 965 q 699 943 668 950 l 694 850 q 619 861 664 856 q 529 871 575 867 q 446 875 483 875 q 317 851 367 875 q 242 778 268 828 q 206 655 215 729 q 196 478 196 581 q 206 303 196 378 q 241 181 215 229 q 317 110 267 133 q 447 86 367 86 q 576 94 506 86 q 694 110 646 101 l 699 15 q 621 1 665 8 q 528 -10 576 -6 q 433 -14 479 -14 m 197 1097 l 383 1285 l 478 1285 l 664 1097 l 543 1097 l 432 1207 l 319 1097 l 197 1097 z "},"Ċ":{"ha":756,"x_min":81,"x_max":699,"o":"m 433 -14 q 256 18 325 -14 q 149 113 188 50 q 95 267 110 175 q 81 478 81 358 q 95 693 81 600 q 149 849 110 786 q 256 943 188 911 q 433 975 325 975 q 533 970 483 975 q 625 958 582 965 q 699 943 668 950 l 694 850 q 619 861 664 856 q 529 871 575 867 q 446 875 483 875 q 317 851 367 875 q 242 778 268 828 q 206 655 215 729 q 196 478 196 581 q 206 303 196 378 q 241 181 215 229 q 317 110 267 133 q 447 86 367 86 q 576 94 506 86 q 694 110 646 101 l 699 15 q 621 1 665 8 q 528 -10 576 -6 q 433 -14 479 -14 m 351 1106 l 351 1229 l 460 1229 l 460 1106 l 351 1106 z "},"D":{"ha":894,"x_min":117,"x_max":818,"o":"m 117 0 l 117 960 l 460 960 q 635 926 565 960 q 744 830 704 892 q 801 683 785 768 q 818 494 818 597 q 802 301 818 390 q 746 143 786 211 q 636 38 706 75 q 460 0 567 0 l 117 0 m 228 99 l 460 99 q 582 131 535 99 q 656 218 629 163 q 692 344 682 274 q 703 494 703 415 q 692 639 703 572 q 656 756 682 706 q 582 833 629 806 q 460 861 535 861 l 228 861 l 228 99 z "},"Ð":{"ha":899,"x_min":28,"x_max":822,"o":"m 28 429 l 28 536 l 449 536 l 449 429 l 28 429 m 121 0 l 121 960 l 464 960 q 639 926 569 960 q 749 830 708 892 q 806 683 789 768 q 822 494 822 597 q 806 301 822 390 q 750 143 790 211 q 640 38 710 75 q 464 0 571 0 l 121 0 m 232 99 l 464 99 q 586 131 539 99 q 660 218 633 163 q 697 344 686 274 q 707 494 707 415 q 697 639 707 572 q 660 756 686 706 q 586 833 633 806 q 464 861 539 861 l 232 861 l 232 99 z "},"Ď":{"ha":894,"x_min":117,"x_max":818,"o":"m 117 0 l 117 960 l 460 960 q 635 926 565 960 q 744 830 704 892 q 801 683 785 768 q 818 494 818 597 q 802 301 818 390 q 746 143 786 211 q 636 38 706 75 q 460 0 567 0 l 117 0 m 228 99 l 460 99 q 582 131 535 99 q 656 218 629 163 q 692 344 682 274 q 703 494 703 415 q 692 639 703 572 q 656 756 682 706 q 582 833 629 806 q 460 861 535 861 l 228 861 l 228 99 m 364 1097 l 178 1285 l 299 1285 l 411 1176 l 522 1285 l 643 1285 l 457 1097 l 364 1097 z "},"Đ":{"ha":899,"x_min":28,"x_max":822,"o":"m 28 429 l 28 536 l 449 536 l 449 429 l 28 429 m 121 0 l 121 960 l 464 960 q 639 926 569 960 q 749 830 708 892 q 806 683 789 768 q 822 494 822 597 q 806 301 822 390 q 750 143 790 211 q 640 38 710 75 q 464 0 571 0 l 121 0 m 232 99 l 464 99 q 586 131 539 99 q 660 218 633 163 q 697 344 686 274 q 707 494 707 415 q 697 639 707 572 q 660 756 686 706 q 586 833 633 806 q 464 861 539 861 l 232 861 l 232 99 z "},"E":{"ha":768,"x_min":117,"x_max":704,"o":"m 117 0 l 117 960 l 704 960 l 704 861 l 228 861 l 228 536 l 621 536 l 621 439 l 228 439 l 228 99 l 704 99 l 704 0 l 117 0 z "},"É":{"ha":768,"x_min":117,"x_max":704,"o":"m 117 0 l 117 960 l 704 960 l 704 861 l 228 861 l 228 536 l 621 536 l 621 439 l 228 439 l 228 99 l 704 99 l 704 0 l 117 0 m 276 1078 l 244 1156 l 547 1294 l 583 1199 l 276 1078 z "},"Ĕ":{"ha":768,"x_min":117,"x_max":704,"o":"m 117 0 l 117 960 l 704 960 l 704 861 l 228 861 l 228 536 l 621 536 l 621 439 l 228 439 l 228 99 l 704 99 l 704 0 l 117 0 m 422 1090 q 309 1114 357 1090 q 233 1179 261 1138 q 203 1275 206 1221 l 303 1275 q 340 1200 306 1228 q 422 1172 374 1172 q 507 1200 472 1172 q 543 1275 542 1228 l 643 1275 q 613 1179 640 1221 q 537 1114 585 1138 q 422 1090 489 1090 z "},"Ě":{"ha":768,"x_min":117,"x_max":704,"o":"m 117 0 l 117 960 l 704 960 l 704 861 l 228 861 l 228 536 l 621 536 l 621 439 l 228 439 l 228 99 l 704 99 l 704 0 l 117 0 m 356 1097 l 169 1285 l 290 1285 l 403 1176 l 514 1285 l 635 1285 l 449 1097 l 356 1097 z "},"Ê":{"ha":768,"x_min":117,"x_max":704,"o":"m 117 0 l 117 960 l 704 960 l 704 861 l 228 861 l 228 536 l 621 536 l 621 439 l 228 439 l 228 99 l 704 99 l 704 0 l 117 0 m 175 1097 l 361 1285 l 456 1285 l 642 1097 l 521 1097 l 410 1207 l 297 1097 l 175 1097 z "},"Ë":{"ha":768,"x_min":117,"x_max":704,"o":"m 117 0 l 117 960 l 704 960 l 704 861 l 228 861 l 228 536 l 621 536 l 621 439 l 228 439 l 228 99 l 704 99 l 704 0 l 117 0 m 499 1119 l 499 1247 l 603 1247 l 603 1119 l 499 1119 m 215 1119 l 215 1247 l 319 1247 l 319 1119 l 215 1119 z "},"Ė":{"ha":768,"x_min":117,"x_max":704,"o":"m 117 0 l 117 960 l 704 960 l 704 861 l 228 861 l 228 536 l 621 536 l 621 439 l 228 439 l 228 99 l 704 99 l 704 0 l 117 0 m 358 1110 l 358 1233 l 467 1233 l 467 1110 l 358 1110 z "},"È":{"ha":768,"x_min":117,"x_max":704,"o":"m 117 0 l 117 960 l 704 960 l 704 861 l 228 861 l 228 536 l 621 536 l 621 439 l 228 439 l 228 99 l 704 99 l 704 0 l 117 0 m 540 1078 l 233 1199 l 269 1294 l 572 1156 l 540 1078 z "},"Ē":{"ha":768,"x_min":117,"x_max":704,"o":"m 117 0 l 117 960 l 704 960 l 704 861 l 228 861 l 228 536 l 621 536 l 621 439 l 228 439 l 228 99 l 704 99 l 704 0 l 117 0 m 190 1125 l 190 1210 l 625 1210 l 625 1125 l 190 1125 z "},"Ę":{"ha":768,"x_min":117,"x_max":704,"o":"m 117 0 l 117 960 l 704 960 l 704 861 l 228 861 l 228 536 l 621 536 l 621 439 l 228 439 l 228 99 l 704 99 l 704 0 l 117 0 m 594 -287 q 522 -270 551 -287 q 477 -226 492 -253 q 463 -171 463 -200 q 480 -104 463 -137 q 524 -41 497 -71 q 576 11 550 -11 l 664 0 q 613 -53 635 -26 q 578 -103 590 -79 q 565 -149 565 -128 q 580 -185 565 -171 q 622 -200 594 -200 q 655 -197 635 -200 q 689 -192 675 -193 l 703 -275 q 646 -283 676 -279 q 594 -287 615 -287 z "},"F":{"ha":731,"x_min":117,"x_max":693,"o":"m 117 0 l 117 960 l 693 960 l 693 861 l 228 861 l 228 492 l 621 492 l 621 393 l 228 393 l 228 0 l 117 0 z "},"G":{"ha":856,"x_min":78,"x_max":764,"o":"m 451 -14 q 268 19 340 -14 q 154 115 196 51 q 95 269 113 178 q 78 478 78 361 q 95 691 78 599 q 155 847 113 783 q 269 942 197 910 q 449 975 340 975 q 562 969 503 975 q 674 955 621 964 q 764 938 728 946 l 760 846 q 671 859 724 853 q 563 870 618 865 q 463 875 508 875 q 328 851 381 875 q 246 778 275 828 q 205 655 217 729 q 193 478 193 581 q 214 257 193 344 q 292 127 235 169 q 460 85 350 85 q 528 88 492 85 q 598 94 564 90 q 654 103 632 99 l 654 393 l 499 393 l 499 492 l 764 492 l 764 19 q 701 10 740 15 q 618 -1 663 4 q 530 -10 574 -7 q 451 -14 486 -14 z "},"Ğ":{"ha":856,"x_min":78,"x_max":764,"o":"m 451 -14 q 268 19 340 -14 q 154 115 196 51 q 95 269 113 178 q 78 478 78 361 q 95 691 78 599 q 155 847 113 783 q 269 942 197 910 q 449 975 340 975 q 562 969 503 975 q 674 955 621 964 q 764 938 728 946 l 760 846 q 671 859 724 853 q 563 870 618 865 q 463 875 508 875 q 328 851 381 875 q 246 778 275 828 q 205 655 217 729 q 193 478 193 581 q 214 257 193 344 q 292 127 235 169 q 460 85 350 85 q 528 88 492 85 q 598 94 564 90 q 654 103 632 99 l 654 393 l 499 393 l 499 492 l 764 492 l 764 19 q 701 10 740 15 q 618 -1 663 4 q 530 -10 574 -7 q 451 -14 486 -14 m 456 1090 q 342 1114 390 1090 q 267 1179 294 1138 q 236 1275 239 1221 l 336 1275 q 373 1200 339 1228 q 456 1172 407 1172 q 540 1200 506 1172 q 576 1275 575 1228 l 676 1275 q 646 1179 674 1221 q 570 1114 618 1138 q 456 1090 522 1090 z "},"Ĝ":{"ha":856,"x_min":78,"x_max":764,"o":"m 451 -14 q 268 19 340 -14 q 154 115 196 51 q 95 269 113 178 q 78 478 78 361 q 95 691 78 599 q 155 847 113 783 q 269 942 197 910 q 449 975 340 975 q 562 969 503 975 q 674 955 621 964 q 764 938 728 946 l 760 846 q 671 859 724 853 q 563 870 618 865 q 463 875 508 875 q 328 851 381 875 q 246 778 275 828 q 205 655 217 729 q 193 478 193 581 q 214 257 193 344 q 292 127 235 169 q 460 85 350 85 q 528 88 492 85 q 598 94 564 90 q 654 103 632 99 l 654 393 l 499 393 l 499 492 l 764 492 l 764 19 q 701 10 740 15 q 618 -1 663 4 q 530 -10 574 -7 q 451 -14 486 -14 m 214 1093 l 400 1281 l 494 1281 l 681 1093 l 560 1093 l 449 1203 l 336 1093 l 214 1093 z "},"Ģ":{"ha":856,"x_min":78,"x_max":764,"o":"m 451 -14 q 268 19 340 -14 q 154 115 196 51 q 95 269 113 178 q 78 478 78 361 q 95 691 78 599 q 155 847 113 783 q 269 942 197 910 q 449 975 340 975 q 562 969 503 975 q 674 955 621 964 q 764 938 728 946 l 760 846 q 671 859 724 853 q 563 870 618 865 q 463 875 508 875 q 328 851 381 875 q 246 778 275 828 q 205 655 217 729 q 193 478 193 581 q 214 257 193 344 q 292 127 235 169 q 460 85 350 85 q 528 88 492 85 q 598 94 564 90 q 654 103 632 99 l 654 393 l 499 393 l 499 492 l 764 492 l 764 19 q 701 10 740 15 q 618 -1 663 4 q 530 -10 574 -7 q 451 -14 486 -14 m 358 -397 l 415 -108 l 522 -108 l 453 -397 l 358 -397 z "},"Ġ":{"ha":856,"x_min":78,"x_max":764,"o":"m 381 1110 l 381 1233 l 489 1233 l 489 1110 l 381 1110 m 451 -14 q 268 19 340 -14 q 154 115 196 51 q 95 269 113 178 q 78 478 78 361 q 95 691 78 599 q 155 847 113 783 q 269 942 197 910 q 449 975 340 975 q 562 969 503 975 q 674 955 621 964 q 764 938 728 946 l 760 846 q 671 859 724 853 q 563 870 618 865 q 463 875 508 875 q 328 851 381 875 q 246 778 275 828 q 205 655 217 729 q 193 478 193 581 q 214 257 193 344 q 292 127 235 169 q 460 85 350 85 q 528 88 492 85 q 598 94 564 90 q 654 103 632 99 l 654 393 l 499 393 l 499 492 l 764 492 l 764 19 q 701 10 740 15 q 618 -1 663 4 q 530 -10 574 -7 q 451 -14 486 -14 z "},"H":{"ha":938,"x_min":117,"x_max":821,"o":"m 117 0 l 117 960 l 228 960 l 228 532 l 710 532 l 710 960 l 821 960 l 821 0 l 710 0 l 710 433 l 228 433 l 228 0 l 117 0 z "},"Ħ":{"ha":953,"x_min":21,"x_max":939,"o":"m 21 703 l 21 799 l 939 799 l 939 703 l 21 703 m 122 0 l 122 960 l 233 960 l 233 532 l 715 532 l 715 960 l 826 960 l 826 0 l 715 0 l 715 433 l 233 433 l 233 0 l 122 0 z "},"Ĥ":{"ha":938,"x_min":117,"x_max":821,"o":"m 117 0 l 117 960 l 228 960 l 228 532 l 710 532 l 710 960 l 821 960 l 821 0 l 710 0 l 710 433 l 228 433 l 228 0 l 117 0 m 236 1097 l 422 1285 l 517 1285 l 703 1097 l 582 1097 l 471 1207 l 358 1097 l 236 1097 z "},"I":{"ha":344,"x_min":117,"x_max":228,"o":"m 117 0 l 117 960 l 228 960 l 228 0 l 117 0 z "},"Í":{"ha":344,"x_min":18,"x_max":357,"o":"m 117 0 l 117 960 l 228 960 l 228 0 l 117 0 m 50 1078 l 18 1156 l 321 1294 l 357 1199 l 50 1078 z "},"Ĭ":{"ha":344,"x_min":-36,"x_max":404,"o":"m 117 0 l 117 960 l 228 960 l 228 0 l 117 0 m 183 1090 q 70 1114 118 1090 q -6 1179 22 1138 q -36 1275 -33 1221 l 64 1275 q 101 1200 67 1228 q 183 1172 135 1172 q 268 1200 233 1172 q 304 1275 303 1228 l 404 1275 q 374 1179 401 1221 q 298 1114 346 1138 q 183 1090 250 1090 z "},"Î":{"ha":344,"x_min":-67,"x_max":400,"o":"m 117 0 l 117 960 l 228 960 l 228 0 l 117 0 m -67 1097 l 119 1285 l 214 1285 l 400 1097 l 279 1097 l 168 1207 l 56 1097 l -67 1097 z "},"Ï":{"ha":344,"x_min":-22,"x_max":365,"o":"m 117 0 l 117 960 l 228 960 l 228 0 l 117 0 m 261 1119 l 261 1247 l 365 1247 l 365 1119 l 261 1119 m -22 1119 l -22 1247 l 82 1247 l 82 1119 l -22 1119 z "},"İ":{"ha":344,"x_min":117,"x_max":228,"o":"m 119 1110 l 119 1233 l 226 1233 l 226 1110 l 119 1110 m 117 0 l 117 960 l 228 960 l 228 0 l 117 0 z "},"Ì":{"ha":344,"x_min":-28,"x_max":311,"o":"m 117 0 l 117 960 l 228 960 l 228 0 l 117 0 m 279 1078 l -28 1199 l 8 1294 l 311 1156 l 279 1078 z "},"Ī":{"ha":344,"x_min":-42,"x_max":393,"o":"m 117 0 l 117 960 l 228 960 l 228 0 l 117 0 m -42 1125 l -42 1210 l 393 1210 l 393 1125 l -42 1125 z "},"Į":{"ha":344,"x_min":21,"x_max":261,"o":"m 153 -287 q 80 -270 110 -287 q 35 -226 50 -253 q 21 -171 21 -200 q 38 -104 21 -137 q 82 -41 56 -71 q 135 11 108 -11 l 222 0 q 171 -53 193 -26 q 136 -103 149 -79 q 124 -149 124 -128 q 138 -185 124 -171 q 181 -200 153 -200 q 213 -197 193 -200 q 247 -192 233 -193 l 261 -275 q 204 -283 235 -279 q 153 -287 174 -287 m 117 0 l 117 960 l 228 960 l 228 0 l 117 0 z "},"Ĩ":{"ha":344,"x_min":-71,"x_max":401,"o":"m 117 0 l 117 960 l 228 960 l 228 0 l 117 0 m 282 1113 q 225 1124 257 1113 q 160 1150 193 1135 q 99 1176 126 1165 q 56 1188 71 1188 q 7 1165 38 1188 q -46 1121 -24 1142 l -71 1201 q -12 1255 -49 1228 q 54 1282 24 1282 q 113 1271 81 1282 q 178 1245 146 1260 q 237 1219 210 1231 q 281 1208 264 1208 q 325 1229 296 1208 q 376 1271 354 1250 l 401 1190 q 348 1139 382 1165 q 282 1113 314 1113 z "},"J":{"ha":401,"x_min":25,"x_max":290,"o":"m 25 -100 l 25 -1 q 101 3 71 -1 q 149 22 132 7 q 172 67 165 36 q 179 149 179 97 l 179 960 l 290 960 l 290 133 q 275 9 290 56 q 227 -61 260 -37 q 144 -92 194 -85 q 25 -100 94 -100 z "},"Ĵ":{"ha":401,"x_min":0,"x_max":467,"o":"m 25 -100 l 25 -1 q 101 3 71 -1 q 149 22 132 7 q 172 67 165 36 q 179 149 179 97 l 179 960 l 290 960 l 290 133 q 275 9 290 56 q 227 -61 260 -37 q 144 -92 194 -85 q 25 -100 94 -100 m 0 1093 l 186 1281 l 281 1281 l 467 1093 l 346 1093 l 235 1203 l 122 1093 l 0 1093 z "},"K":{"ha":792,"x_min":117,"x_max":769,"o":"m 117 0 l 117 960 l 228 960 l 228 515 l 385 521 l 626 960 l 754 960 l 483 478 l 769 0 l 638 0 l 386 422 l 228 417 l 228 0 l 117 0 z "},"Ķ":{"ha":790,"x_min":117,"x_max":769,"o":"m 308 -397 l 365 -108 l 472 -108 l 403 -397 l 308 -397 m 117 0 l 117 960 l 228 960 l 228 515 l 385 521 l 626 960 l 754 960 l 483 478 l 769 0 l 638 0 l 386 422 l 228 417 l 228 0 l 117 0 z "},"L":{"ha":664,"x_min":117,"x_max":647,"o":"m 117 0 l 117 960 l 228 960 l 228 100 l 647 100 l 647 0 l 117 0 z "},"Ĺ":{"ha":665,"x_min":117,"x_max":647,"o":"m 217 1078 l 185 1156 l 488 1294 l 524 1199 l 217 1078 m 117 0 l 117 960 l 228 960 l 228 100 l 647 100 l 647 0 l 117 0 z "},"Ľ":{"ha":688,"x_min":117,"x_max":647,"o":"m 507 639 l 507 967 l 611 967 l 611 639 l 507 639 m 117 0 l 117 960 l 228 960 l 228 100 l 647 100 l 647 0 l 117 0 z "},"Ļ":{"ha":664,"x_min":117,"x_max":647,"o":"m 275 -397 l 332 -108 l 439 -108 l 369 -397 l 275 -397 m 117 0 l 117 960 l 228 960 l 228 100 l 647 100 l 647 0 l 117 0 z "},"Ł":{"ha":671,"x_min":-7,"x_max":654,"o":"m 47 319 l -7 394 l 429 700 l 483 626 l 47 319 m 124 0 l 124 960 l 235 960 l 235 100 l 654 100 l 654 0 l 124 0 z "},"M":{"ha":1168,"x_min":117,"x_max":1051,"o":"m 117 0 l 117 960 l 318 960 l 583 154 l 850 960 l 1051 960 l 1051 0 l 940 0 l 940 842 l 919 842 l 646 35 l 522 35 l 249 842 l 228 842 l 228 0 l 117 0 z "},"N":{"ha":940,"x_min":117,"x_max":824,"o":"m 117 0 l 117 960 l 324 960 l 685 99 l 713 99 l 713 960 l 824 960 l 824 0 l 621 0 l 254 861 l 228 861 l 228 0 l 117 0 z "},"Ń":{"ha":940,"x_min":117,"x_max":824,"o":"m 117 0 l 117 960 l 324 960 l 685 99 l 713 99 l 713 960 l 824 960 l 824 0 l 621 0 l 254 861 l 228 861 l 228 0 l 117 0 m 336 1078 l 304 1156 l 607 1294 l 643 1199 l 336 1078 z "},"Ň":{"ha":940,"x_min":117,"x_max":824,"o":"m 117 0 l 117 960 l 324 960 l 685 99 l 713 99 l 713 960 l 824 960 l 824 0 l 621 0 l 254 861 l 228 861 l 228 0 l 117 0 m 425 1093 l 239 1281 l 360 1281 l 472 1172 l 583 1281 l 704 1281 l 518 1093 l 425 1093 z "},"Ņ":{"ha":940,"x_min":117,"x_max":824,"o":"m 390 -397 l 447 -108 l 554 -108 l 486 -397 l 390 -397 m 117 0 l 117 960 l 324 960 l 685 99 l 713 99 l 713 960 l 824 960 l 824 0 l 621 0 l 254 861 l 228 861 l 228 0 l 117 0 z "},"Ŋ":{"ha":942,"x_min":117,"x_max":824,"o":"m 558 -257 l 558 -158 q 634 -154 604 -158 q 681 -136 664 -150 q 706 -92 699 -122 q 713 -8 713 -61 l 713 54 l 824 54 l 824 -24 q 808 -148 824 -101 q 760 -218 793 -194 q 678 -249 728 -242 q 558 -257 628 -257 m 117 0 l 117 960 l 324 960 l 685 99 l 713 99 l 713 960 l 824 960 l 824 0 l 621 0 l 254 861 l 228 861 l 228 0 l 117 0 z "},"Ñ":{"ha":940,"x_min":117,"x_max":824,"o":"m 117 0 l 117 960 l 324 960 l 685 99 l 713 99 l 713 960 l 824 960 l 824 0 l 621 0 l 254 861 l 228 861 l 228 0 l 117 0 m 583 1113 q 526 1124 558 1113 q 461 1150 494 1135 q 400 1176 428 1165 q 357 1188 372 1188 q 308 1165 339 1188 q 256 1121 278 1142 l 231 1201 q 289 1255 253 1228 q 356 1282 325 1282 q 415 1271 382 1282 q 479 1245 447 1260 q 538 1219 511 1231 q 582 1208 565 1208 q 626 1229 597 1208 q 678 1271 656 1250 l 703 1190 q 649 1139 683 1165 q 583 1113 615 1113 z "},"O":{"ha":917,"x_min":78,"x_max":839,"o":"m 458 -14 q 226 42 308 -14 q 110 206 143 97 q 78 475 78 315 q 111 746 78 635 q 227 916 144 857 q 458 975 310 975 q 690 917 607 975 q 806 747 772 858 q 839 475 839 635 q 806 202 839 311 q 691 40 774 93 q 458 -14 608 -14 m 458 85 q 625 126 568 85 q 703 255 682 168 q 724 475 724 342 q 702 694 724 604 q 624 830 681 783 q 458 876 567 876 q 293 830 350 876 q 215 694 236 783 q 193 475 193 606 q 214 259 193 346 q 292 128 235 172 q 458 85 349 85 z "},"Ó":{"ha":917,"x_min":78,"x_max":839,"o":"m 458 -14 q 226 42 308 -14 q 110 206 143 97 q 78 475 78 315 q 111 746 78 635 q 227 916 144 857 q 458 975 310 975 q 690 917 607 975 q 806 747 772 858 q 839 475 839 635 q 806 202 839 311 q 691 40 774 93 q 458 -14 608 -14 m 458 85 q 625 126 568 85 q 703 255 682 168 q 724 475 724 342 q 702 694 724 604 q 624 830 681 783 q 458 876 567 876 q 293 830 350 876 q 215 694 236 783 q 193 475 193 606 q 214 259 193 346 q 292 128 235 172 q 458 85 349 85 m 306 1078 l 274 1156 l 576 1294 l 613 1199 l 306 1078 z "},"Ŏ":{"ha":917,"x_min":78,"x_max":839,"o":"m 458 -14 q 226 42 308 -14 q 110 206 143 97 q 78 475 78 315 q 111 746 78 635 q 227 916 144 857 q 458 975 310 975 q 690 917 607 975 q 806 747 772 858 q 839 475 839 635 q 806 202 839 311 q 691 40 774 93 q 458 -14 608 -14 m 458 85 q 625 126 568 85 q 703 255 682 168 q 724 475 724 342 q 702 694 724 604 q 624 830 681 783 q 458 876 567 876 q 293 830 350 876 q 215 694 236 783 q 193 475 193 606 q 214 259 193 346 q 292 128 235 172 q 458 85 349 85 m 460 1090 q 347 1114 394 1090 q 271 1179 299 1138 q 240 1275 243 1221 l 340 1275 q 377 1200 343 1228 q 460 1172 411 1172 q 544 1200 510 1172 q 581 1275 579 1228 l 681 1275 q 650 1179 678 1221 q 574 1114 622 1138 q 460 1090 526 1090 z "},"Ô":{"ha":917,"x_min":78,"x_max":839,"o":"m 458 -14 q 226 42 308 -14 q 110 206 143 97 q 78 475 78 315 q 111 746 78 635 q 227 916 144 857 q 458 975 310 975 q 690 917 607 975 q 806 747 772 858 q 839 475 839 635 q 806 202 839 311 q 691 40 774 93 q 458 -14 608 -14 m 458 85 q 625 126 568 85 q 703 255 682 168 q 724 475 724 342 q 702 694 724 604 q 624 830 681 783 q 458 876 567 876 q 293 830 350 876 q 215 694 236 783 q 193 475 193 606 q 214 259 193 346 q 292 128 235 172 q 458 85 349 85 m 225 1097 l 411 1285 l 506 1285 l 692 1097 l 571 1097 l 460 1207 l 347 1097 l 225 1097 z "},"Ö":{"ha":917,"x_min":78,"x_max":839,"o":"m 458 -14 q 226 42 308 -14 q 110 206 143 97 q 78 475 78 315 q 111 746 78 635 q 227 916 144 857 q 458 975 310 975 q 690 917 607 975 q 806 747 772 858 q 839 475 839 635 q 806 202 839 311 q 691 40 774 93 q 458 -14 608 -14 m 458 85 q 625 126 568 85 q 703 255 682 168 q 724 475 724 342 q 702 694 724 604 q 624 830 681 783 q 458 876 567 876 q 293 830 350 876 q 215 694 236 783 q 193 475 193 606 q 214 259 193 346 q 292 128 235 172 q 458 85 349 85 m 547 1119 l 547 1247 l 651 1247 l 651 1119 l 547 1119 m 264 1119 l 264 1247 l 368 1247 l 368 1119 l 264 1119 z "},"Ò":{"ha":917,"x_min":78,"x_max":839,"o":"m 458 -14 q 226 42 308 -14 q 110 206 143 97 q 78 475 78 315 q 111 746 78 635 q 227 916 144 857 q 458 975 310 975 q 690 917 607 975 q 806 747 772 858 q 839 475 839 635 q 806 202 839 311 q 691 40 774 93 q 458 -14 608 -14 m 458 85 q 625 126 568 85 q 703 255 682 168 q 724 475 724 342 q 702 694 724 604 q 624 830 681 783 q 458 876 567 876 q 293 830 350 876 q 215 694 236 783 q 193 475 193 606 q 214 259 193 346 q 292 128 235 172 q 458 85 349 85 m 583 1078 l 276 1199 l 313 1294 l 615 1156 l 583 1078 z "},"Ő":{"ha":917,"x_min":78,"x_max":839,"o":"m 458 -14 q 226 42 308 -14 q 110 206 143 97 q 78 475 78 315 q 111 746 78 635 q 227 916 144 857 q 458 975 310 975 q 690 917 607 975 q 806 747 772 858 q 839 475 839 635 q 806 202 839 311 q 691 40 774 93 q 458 -14 608 -14 m 458 85 q 625 126 568 85 q 703 255 682 168 q 724 475 724 342 q 702 694 724 604 q 624 830 681 783 q 458 876 567 876 q 293 830 350 876 q 215 694 236 783 q 193 475 193 606 q 214 259 193 346 q 292 128 235 172 q 458 85 349 85 m 560 1044 l 486 1089 l 676 1276 l 758 1228 l 560 1044 m 285 1046 l 211 1090 l 403 1278 l 483 1228 l 285 1046 z "},"Ō":{"ha":917,"x_min":78,"x_max":839,"o":"m 458 -14 q 226 42 308 -14 q 110 206 143 97 q 78 475 78 315 q 111 746 78 635 q 227 916 144 857 q 458 975 310 975 q 690 917 607 975 q 806 747 772 858 q 839 475 839 635 q 806 202 839 311 q 691 40 774 93 q 458 -14 608 -14 m 458 85 q 625 126 568 85 q 703 255 682 168 q 724 475 724 342 q 702 694 724 604 q 624 830 681 783 q 458 876 567 876 q 293 830 350 876 q 215 694 236 783 q 193 475 193 606 q 214 259 193 346 q 292 128 235 172 q 458 85 349 85 m 239 1125 l 239 1210 l 674 1210 l 674 1125 l 239 1125 z "},"Ø":{"ha":917,"x_min":78,"x_max":839,"o":"m 424 286 l 342 325 l 710 1111 l 793 1075 l 424 286 m 214 -162 l 132 -124 l 421 494 l 504 458 l 214 -162 m 458 -14 q 226 42 308 -14 q 110 206 143 97 q 78 475 78 315 q 111 746 78 635 q 227 916 144 857 q 458 975 310 975 q 690 917 607 975 q 806 747 772 858 q 839 475 839 635 q 806 202 839 311 q 691 40 774 93 q 458 -14 608 -14 m 458 85 q 625 126 568 85 q 703 255 682 168 q 724 475 724 342 q 702 694 724 604 q 624 830 681 783 q 458 876 567 876 q 293 830 350 876 q 215 694 236 783 q 193 475 193 606 q 214 259 193 346 q 292 128 235 172 q 458 85 349 85 z "},"Ǿ":{"ha":919,"x_min":78,"x_max":839,"o":"m 424 286 l 342 325 l 710 1111 l 793 1075 l 424 286 m 214 -162 l 132 -124 l 421 494 l 504 458 l 214 -162 m 321 1078 l 289 1156 l 592 1294 l 628 1199 l 321 1078 m 458 -14 q 226 42 308 -14 q 110 206 143 97 q 78 475 78 315 q 111 746 78 635 q 227 916 144 857 q 458 975 310 975 q 690 917 607 975 q 806 747 772 858 q 839 475 839 635 q 806 202 839 311 q 691 40 774 93 q 458 -14 608 -14 m 458 85 q 625 126 568 85 q 703 255 682 168 q 724 475 724 342 q 702 694 724 604 q 624 830 681 783 q 458 876 567 876 q 293 830 350 876 q 215 694 236 783 q 193 475 193 606 q 214 259 193 346 q 292 128 235 172 q 458 85 349 85 z "},"Õ":{"ha":917,"x_min":78,"x_max":839,"o":"m 458 -14 q 226 42 308 -14 q 110 206 143 97 q 78 475 78 315 q 111 746 78 635 q 227 916 144 857 q 458 975 310 975 q 690 917 607 975 q 806 747 772 858 q 839 475 839 635 q 806 202 839 311 q 691 40 774 93 q 458 -14 608 -14 m 458 85 q 625 126 568 85 q 703 255 682 168 q 724 475 724 342 q 702 694 724 604 q 624 830 681 783 q 458 876 567 876 q 293 830 350 876 q 215 694 236 783 q 193 475 193 606 q 214 259 193 346 q 292 128 235 172 q 458 85 349 85 m 571 1113 q 514 1124 546 1113 q 449 1150 482 1135 q 388 1176 415 1165 q 344 1188 360 1188 q 296 1165 326 1188 q 243 1121 265 1142 l 218 1201 q 276 1255 240 1228 q 343 1282 313 1282 q 402 1271 369 1282 q 467 1245 435 1260 q 526 1219 499 1231 q 569 1208 553 1208 q 614 1229 585 1208 q 665 1271 643 1250 l 690 1190 q 637 1139 671 1165 q 571 1113 603 1113 z "},"Œ":{"ha":1283,"x_min":74,"x_max":1218,"o":"m 442 -14 q 213 43 293 -14 q 103 210 133 100 q 74 483 74 321 q 105 760 74 651 q 216 921 136 868 q 442 974 296 974 q 504 972 468 974 q 576 967 540 971 q 640 960 613 964 l 1218 960 l 1218 860 l 750 860 l 750 539 l 1135 539 l 1135 440 l 750 440 l 750 100 l 1218 100 l 1218 -1 l 647 -1 q 580 -8 618 -4 q 505 -12 542 -11 q 442 -14 468 -14 m 456 86 q 491 87 468 86 q 542 89 514 88 q 595 92 569 90 q 639 96 621 94 l 639 863 q 594 866 621 864 q 540 869 567 868 q 490 872 513 871 q 454 874 467 874 q 289 834 346 874 q 210 708 232 794 q 189 481 189 621 q 209 256 189 343 q 287 127 229 168 q 456 86 344 86 z "},"P":{"ha":822,"x_min":117,"x_max":776,"o":"m 117 0 l 117 960 l 468 960 q 642 926 574 960 q 743 823 710 892 q 776 649 776 754 q 743 472 776 544 q 642 360 710 399 q 468 322 574 322 l 228 322 l 228 0 l 117 0 m 228 419 l 468 419 q 617 479 571 419 q 663 649 663 539 q 617 811 663 760 q 468 863 571 863 l 228 863 l 228 419 z "},"Þ":{"ha":832,"x_min":117,"x_max":778,"o":"m 117 0 l 117 967 l 228 967 l 228 811 l 468 811 q 642 777 574 811 q 744 675 711 743 q 778 501 778 607 q 744 321 778 396 q 642 206 711 246 q 468 165 574 165 l 228 165 l 228 0 l 117 0 m 228 274 l 468 274 q 617 335 571 274 q 664 501 664 396 q 617 656 664 607 q 468 706 571 706 l 228 706 l 228 274 z "},"Q":{"ha":917,"x_min":78,"x_max":839,"o":"m 694 -203 l 572 -1 q 520 -10 550 -7 q 458 -14 490 -14 q 226 41 308 -14 q 110 205 143 96 q 78 475 78 314 q 111 746 78 635 q 227 916 144 857 q 458 975 310 975 q 690 917 607 975 q 806 747 772 858 q 839 475 839 635 q 805 199 839 307 q 681 38 771 90 l 799 -154 l 694 -203 m 458 85 q 625 126 568 85 q 703 255 682 168 q 724 475 724 342 q 702 694 724 604 q 624 830 681 783 q 458 876 567 876 q 293 830 350 876 q 215 694 236 783 q 193 475 193 606 q 214 258 193 344 q 292 128 235 171 q 458 85 349 85 z "},"R":{"ha":856,"x_min":117,"x_max":790,"o":"m 117 0 l 117 960 l 474 960 q 644 929 575 960 q 747 834 713 899 q 782 668 782 769 q 740 490 782 563 q 607 389 697 418 l 790 0 l 667 0 l 497 365 l 228 365 l 228 0 l 117 0 m 228 463 l 475 463 q 588 489 546 463 q 649 562 631 515 q 667 667 667 608 q 619 814 667 765 q 474 863 572 863 l 228 863 l 228 463 z "},"Ŕ":{"ha":856,"x_min":117,"x_max":790,"o":"m 117 0 l 117 960 l 474 960 q 644 929 575 960 q 747 834 713 899 q 782 668 782 769 q 740 490 782 563 q 607 389 697 418 l 790 0 l 667 0 l 497 365 l 228 365 l 228 0 l 117 0 m 228 463 l 475 463 q 588 489 546 463 q 649 562 631 515 q 667 667 667 608 q 619 814 667 765 q 474 863 572 863 l 228 863 l 228 463 m 292 1078 l 260 1156 l 563 1294 l 599 1199 l 292 1078 z "},"Ř":{"ha":856,"x_min":117,"x_max":790,"o":"m 117 0 l 117 960 l 474 960 q 644 929 575 960 q 747 834 713 899 q 782 668 782 769 q 740 490 782 563 q 607 389 697 418 l 790 0 l 667 0 l 497 365 l 228 365 l 228 0 l 117 0 m 228 463 l 475 463 q 588 489 546 463 q 649 562 631 515 q 667 667 667 608 q 619 814 667 765 q 474 863 572 863 l 228 863 l 228 463 m 371 1097 l 185 1285 l 306 1285 l 418 1176 l 529 1285 l 650 1285 l 464 1097 l 371 1097 z "},"Ŗ":{"ha":856,"x_min":117,"x_max":790,"o":"m 117 0 l 117 960 l 474 960 q 644 929 575 960 q 747 834 713 899 q 782 668 782 769 q 740 490 782 563 q 607 389 697 418 l 790 0 l 667 0 l 497 365 l 228 365 l 228 0 l 117 0 m 228 463 l 475 463 q 588 489 546 463 q 649 562 631 515 q 667 667 667 608 q 619 814 667 765 q 474 863 572 863 l 228 863 l 228 463 m 339 -397 l 396 -108 l 503 -108 l 433 -397 l 339 -397 z "},"S":{"ha":753,"x_min":67,"x_max":688,"o":"m 379 -12 q 282 -8 338 -12 q 172 5 226 -3 q 75 18 117 13 l 86 110 q 180 100 126 106 q 285 90 233 94 q 374 86 338 86 q 525 132 475 86 q 575 275 575 178 q 555 359 575 328 q 488 409 535 390 q 364 443 442 428 q 198 492 264 464 q 99 574 132 521 q 67 717 67 626 q 105 867 67 810 q 213 950 143 924 q 376 976 283 976 q 472 972 418 976 q 577 960 525 967 q 667 947 629 954 l 657 854 q 564 865 617 860 q 463 874 511 869 q 385 878 414 878 q 231 840 283 878 q 179 724 179 803 q 202 631 179 663 q 276 581 225 599 q 411 543 328 563 q 535 507 483 526 q 622 459 588 488 q 672 388 656 431 q 688 283 688 346 q 650 113 688 178 q 543 17 613 47 q 379 -12 474 -12 z "},"Ś":{"ha":753,"x_min":67,"x_max":688,"o":"m 379 -12 q 282 -8 338 -12 q 172 5 226 -3 q 75 18 117 13 l 86 110 q 180 100 126 106 q 285 90 233 94 q 374 86 338 86 q 525 132 475 86 q 575 275 575 178 q 555 359 575 328 q 488 409 535 390 q 364 443 442 428 q 198 492 264 464 q 99 574 132 521 q 67 717 67 626 q 105 867 67 810 q 213 950 143 924 q 376 976 283 976 q 472 972 418 976 q 577 960 525 967 q 667 947 629 954 l 657 854 q 564 865 617 860 q 463 874 511 869 q 385 878 414 878 q 231 840 283 878 q 179 724 179 803 q 202 631 179 663 q 276 581 225 599 q 411 543 328 563 q 535 507 483 526 q 622 459 588 488 q 672 388 656 431 q 688 283 688 346 q 650 113 688 178 q 543 17 613 47 q 379 -12 474 -12 m 258 1078 l 226 1156 l 529 1294 l 565 1199 l 258 1078 z "},"Š":{"ha":753,"x_min":67,"x_max":688,"o":"m 379 -12 q 282 -8 338 -12 q 172 5 226 -3 q 75 18 117 13 l 86 110 q 180 100 126 106 q 285 90 233 94 q 374 86 338 86 q 525 132 475 86 q 575 275 575 178 q 555 359 575 328 q 488 409 535 390 q 364 443 442 428 q 198 492 264 464 q 99 574 132 521 q 67 717 67 626 q 105 867 67 810 q 213 950 143 924 q 376 976 283 976 q 472 972 418 976 q 577 960 525 967 q 667 947 629 954 l 657 854 q 564 865 617 860 q 463 874 511 869 q 385 878 414 878 q 231 840 283 878 q 179 724 179 803 q 202 631 179 663 q 276 581 225 599 q 411 543 328 563 q 535 507 483 526 q 622 459 588 488 q 672 388 656 431 q 688 283 688 346 q 650 113 688 178 q 543 17 613 47 q 379 -12 474 -12 m 346 1097 l 160 1285 l 281 1285 l 393 1176 l 504 1285 l 625 1285 l 439 1097 l 346 1097 z "},"Ş":{"ha":753,"x_min":67,"x_max":688,"o":"m 379 -12 q 282 -8 338 -12 q 172 5 226 -3 q 75 18 117 13 l 86 110 q 180 100 126 106 q 285 90 233 94 q 374 86 338 86 q 525 132 475 86 q 575 275 575 178 q 555 359 575 328 q 488 409 535 390 q 364 443 442 428 q 198 492 264 464 q 99 574 132 521 q 67 717 67 626 q 105 867 67 810 q 213 950 143 924 q 376 976 283 976 q 472 972 418 976 q 577 960 525 967 q 667 947 629 954 l 657 854 q 564 865 617 860 q 463 874 511 869 q 385 878 414 878 q 231 840 283 878 q 179 724 179 803 q 202 631 179 663 q 276 581 225 599 q 411 543 328 563 q 535 507 483 526 q 622 459 588 488 q 672 388 656 431 q 688 283 688 346 q 650 113 688 178 q 543 17 613 47 q 379 -12 474 -12 m 442 -303 q 374 -300 408 -303 q 321 -293 340 -297 l 325 -225 q 368 -227 338 -226 q 415 -228 399 -228 q 460 -216 444 -228 q 476 -176 476 -204 q 460 -140 476 -150 q 415 -131 444 -131 l 358 -131 l 358 1 l 417 1 l 417 -67 q 533 -89 494 -68 q 572 -176 572 -110 q 536 -273 572 -243 q 442 -303 500 -303 z "},"Ŝ":{"ha":753,"x_min":67,"x_max":688,"o":"m 379 -12 q 282 -8 338 -12 q 172 5 226 -3 q 75 18 117 13 l 86 110 q 180 100 126 106 q 285 90 233 94 q 374 86 338 86 q 525 132 475 86 q 575 275 575 178 q 555 359 575 328 q 488 409 535 390 q 364 443 442 428 q 198 492 264 464 q 99 574 132 521 q 67 717 67 626 q 105 867 67 810 q 213 950 143 924 q 376 976 283 976 q 472 972 418 976 q 577 960 525 967 q 667 947 629 954 l 657 854 q 564 865 617 860 q 463 874 511 869 q 385 878 414 878 q 231 840 283 878 q 179 724 179 803 q 202 631 179 663 q 276 581 225 599 q 411 543 328 563 q 535 507 483 526 q 622 459 588 488 q 672 388 656 431 q 688 283 688 346 q 650 113 688 178 q 543 17 613 47 q 379 -12 474 -12 m 147 1093 l 333 1281 l 428 1281 l 614 1093 l 493 1093 l 382 1203 l 269 1093 l 147 1093 z "},"Ș":{"ha":753,"x_min":67,"x_max":688,"o":"m 288 -397 l 343 -108 l 451 -108 l 382 -397 l 288 -397 m 379 -12 q 282 -8 338 -12 q 172 5 226 -3 q 75 18 117 13 l 86 110 q 180 100 126 106 q 285 90 233 94 q 374 86 338 86 q 525 132 475 86 q 575 275 575 178 q 555 359 575 328 q 488 409 535 390 q 364 443 442 428 q 198 492 264 464 q 99 574 132 521 q 67 717 67 626 q 105 867 67 810 q 213 950 143 924 q 376 976 283 976 q 472 972 418 976 q 577 960 525 967 q 667 947 629 954 l 657 854 q 564 865 617 860 q 463 874 511 869 q 385 878 414 878 q 231 840 283 878 q 179 724 179 803 q 202 631 179 663 q 276 581 225 599 q 411 543 328 563 q 535 507 483 526 q 622 459 588 488 q 672 388 656 431 q 688 283 688 346 q 650 113 688 178 q 543 17 613 47 q 379 -12 474 -12 z "},"T":{"ha":731,"x_min":18,"x_max":713,"o":"m 311 0 l 311 860 l 18 860 l 18 960 l 713 960 l 713 860 l 422 860 l 422 0 l 311 0 z "},"Ŧ":{"ha":735,"x_min":21,"x_max":715,"o":"m 90 414 l 90 508 l 650 508 l 650 414 l 90 414 m 314 0 l 314 860 l 21 860 l 21 960 l 715 960 l 715 860 l 425 860 l 425 0 l 314 0 z "},"Ť":{"ha":731,"x_min":18,"x_max":713,"o":"m 311 0 l 311 860 l 18 860 l 18 960 l 713 960 l 713 860 l 422 860 l 422 0 l 311 0 m 321 1097 l 135 1285 l 256 1285 l 368 1176 l 479 1285 l 600 1285 l 414 1097 l 321 1097 z "},"Ţ":{"ha":731,"x_min":18,"x_max":713,"o":"m 311 0 l 311 860 l 18 860 l 18 960 l 713 960 l 713 860 l 422 860 l 422 0 l 311 0 m 419 -303 q 352 -300 386 -303 q 299 -293 318 -297 l 303 -225 q 346 -227 315 -226 q 393 -228 376 -228 q 438 -216 422 -228 q 454 -176 454 -204 q 438 -140 454 -150 q 393 -131 422 -131 l 336 -131 l 336 1 l 394 1 l 394 -67 q 511 -89 472 -68 q 550 -176 550 -110 q 514 -273 550 -243 q 419 -303 478 -303 z "},"Ț":{"ha":731,"x_min":18,"x_max":713,"o":"m 283 -397 l 340 -108 l 447 -108 l 378 -397 l 283 -397 m 311 0 l 311 860 l 18 860 l 18 960 l 713 960 l 713 860 l 422 860 l 422 0 l 311 0 z "},"U":{"ha":896,"x_min":110,"x_max":786,"o":"m 444 -14 q 264 17 339 -14 q 149 115 189 47 q 110 293 110 182 l 110 960 l 221 960 l 221 290 q 280 133 221 181 q 444 85 339 85 q 615 133 556 85 q 675 290 675 181 l 675 960 l 786 960 l 786 293 q 747 115 786 183 q 631 17 707 47 q 444 -14 554 -14 z "},"Ú":{"ha":896,"x_min":110,"x_max":786,"o":"m 444 -14 q 264 17 339 -14 q 149 115 189 47 q 110 293 110 182 l 110 960 l 221 960 l 221 290 q 280 133 221 181 q 444 85 339 85 q 615 133 556 85 q 675 290 675 181 l 675 960 l 786 960 l 786 293 q 747 115 786 183 q 631 17 707 47 q 444 -14 554 -14 m 307 1078 l 275 1156 l 578 1294 l 614 1199 l 307 1078 z "},"Ŭ":{"ha":896,"x_min":110,"x_max":786,"o":"m 444 -14 q 264 17 339 -14 q 149 115 189 47 q 110 293 110 182 l 110 960 l 221 960 l 221 290 q 280 133 221 181 q 444 85 339 85 q 615 133 556 85 q 675 290 675 181 l 675 960 l 786 960 l 786 293 q 747 115 786 183 q 631 17 707 47 q 444 -14 554 -14 m 450 1090 q 337 1114 385 1090 q 261 1179 289 1138 q 231 1275 233 1221 l 331 1275 q 367 1200 333 1228 q 450 1172 401 1172 q 535 1200 500 1172 q 571 1275 569 1228 l 671 1275 q 640 1179 668 1221 q 565 1114 613 1138 q 450 1090 517 1090 z "},"Û":{"ha":896,"x_min":110,"x_max":786,"o":"m 444 -14 q 264 17 339 -14 q 149 115 189 47 q 110 293 110 182 l 110 960 l 221 960 l 221 290 q 280 133 221 181 q 444 85 339 85 q 615 133 556 85 q 675 290 675 181 l 675 960 l 786 960 l 786 293 q 747 115 786 183 q 631 17 707 47 q 444 -14 554 -14 m 214 1097 l 400 1285 l 494 1285 l 681 1097 l 560 1097 l 449 1207 l 336 1097 l 214 1097 z "},"Ü":{"ha":896,"x_min":110,"x_max":786,"o":"m 444 -14 q 264 17 339 -14 q 149 115 189 47 q 110 293 110 182 l 110 960 l 221 960 l 221 290 q 280 133 221 181 q 444 85 339 85 q 615 133 556 85 q 675 290 675 181 l 675 960 l 786 960 l 786 293 q 747 115 786 183 q 631 17 707 47 q 444 -14 554 -14 m 538 1119 l 538 1247 l 642 1247 l 642 1119 l 538 1119 m 254 1119 l 254 1247 l 358 1247 l 358 1119 l 254 1119 z "},"Ù":{"ha":896,"x_min":110,"x_max":786,"o":"m 444 -14 q 264 17 339 -14 q 149 115 189 47 q 110 293 110 182 l 110 960 l 221 960 l 221 290 q 280 133 221 181 q 444 85 339 85 q 615 133 556 85 q 675 290 675 181 l 675 960 l 786 960 l 786 293 q 747 115 786 183 q 631 17 707 47 q 444 -14 554 -14 m 578 1078 l 271 1199 l 307 1294 l 610 1156 l 578 1078 z "},"Ű":{"ha":896,"x_min":110,"x_max":786,"o":"m 444 -14 q 264 17 339 -14 q 149 115 189 47 q 110 293 110 182 l 110 960 l 221 960 l 221 290 q 280 133 221 181 q 444 85 339 85 q 615 133 556 85 q 675 290 675 181 l 675 960 l 786 960 l 786 293 q 747 115 786 183 q 631 17 707 47 q 444 -14 554 -14 m 564 1044 l 490 1089 l 681 1276 l 763 1228 l 564 1044 m 289 1046 l 215 1090 l 407 1278 l 488 1228 l 289 1046 z "},"Ū":{"ha":896,"x_min":110,"x_max":786,"o":"m 444 -14 q 264 17 339 -14 q 149 115 189 47 q 110 293 110 182 l 110 960 l 221 960 l 221 290 q 280 133 221 181 q 444 85 339 85 q 615 133 556 85 q 675 290 675 181 l 675 960 l 786 960 l 786 293 q 747 115 786 183 q 631 17 707 47 q 444 -14 554 -14 m 233 1125 l 233 1210 l 668 1210 l 668 1125 l 233 1125 z "},"Ų":{"ha":896,"x_min":110,"x_max":786,"o":"m 444 -14 q 264 17 339 -14 q 149 115 189 47 q 110 293 110 182 l 110 960 l 221 960 l 221 290 q 280 133 221 181 q 444 85 339 85 q 615 133 556 85 q 675 290 675 181 l 675 960 l 786 960 l 786 293 q 747 115 786 183 q 631 17 707 47 q 444 -14 554 -14 m 507 -287 q 434 -270 464 -287 q 390 -226 404 -253 q 375 -171 375 -200 q 392 -104 375 -137 q 436 -41 410 -71 q 489 11 463 -11 l 576 0 q 525 -53 547 -26 q 490 -103 503 -79 q 478 -149 478 -128 q 492 -185 478 -171 q 535 -200 507 -200 q 567 -197 547 -200 q 601 -192 588 -193 l 615 -275 q 558 -283 589 -279 q 507 -287 528 -287 z "},"Ů":{"ha":896,"x_min":110,"x_max":786,"o":"m 444 -14 q 264 17 339 -14 q 149 115 189 47 q 110 293 110 182 l 110 960 l 221 960 l 221 290 q 280 133 221 181 q 444 85 339 85 q 615 133 556 85 q 675 290 675 181 l 675 960 l 786 960 l 786 293 q 747 115 786 183 q 631 17 707 47 q 444 -14 554 -14 m 451 1026 q 332 1065 379 1026 q 285 1174 285 1104 q 332 1283 285 1244 q 451 1322 379 1322 q 569 1283 521 1322 q 617 1174 617 1244 q 569 1065 617 1104 q 451 1026 521 1026 m 451 1100 q 514 1119 492 1100 q 536 1174 536 1139 q 514 1228 536 1210 q 451 1247 492 1247 q 388 1228 411 1247 q 365 1174 365 1210 q 388 1119 365 1139 q 451 1100 411 1100 z "},"Ũ":{"ha":896,"x_min":110,"x_max":786,"o":"m 444 -14 q 264 17 339 -14 q 149 115 189 47 q 110 293 110 182 l 110 960 l 221 960 l 221 290 q 280 133 221 181 q 444 85 339 85 q 615 133 556 85 q 675 290 675 181 l 675 960 l 786 960 l 786 293 q 747 115 786 183 q 631 17 707 47 q 444 -14 554 -14 m 563 1113 q 506 1124 538 1113 q 440 1150 474 1135 q 379 1176 407 1165 q 336 1188 351 1188 q 288 1165 318 1188 q 235 1121 257 1142 l 210 1201 q 268 1255 232 1228 q 335 1282 304 1282 q 394 1271 361 1282 q 458 1245 426 1260 q 517 1219 490 1231 q 561 1208 544 1208 q 606 1229 576 1208 q 657 1271 635 1250 l 682 1190 q 628 1139 663 1165 q 563 1113 594 1113 z "},"V":{"ha":810,"x_min":33,"x_max":776,"o":"m 283 0 l 33 960 l 149 960 l 367 99 l 443 99 l 661 960 l 776 960 l 528 0 l 283 0 z "},"W":{"ha":1233,"x_min":42,"x_max":1192,"o":"m 235 0 l 42 960 l 157 960 l 318 97 l 357 97 l 551 953 l 682 953 l 876 97 l 915 97 l 1076 960 l 1192 960 l 997 0 l 797 0 l 607 864 l 626 864 l 436 0 l 235 0 z "},"Ẃ":{"ha":1233,"x_min":42,"x_max":1192,"o":"m 235 0 l 42 960 l 157 960 l 318 97 l 357 97 l 551 953 l 682 953 l 876 97 l 915 97 l 1076 960 l 1192 960 l 997 0 l 797 0 l 607 864 l 626 864 l 436 0 l 235 0 m 493 1078 l 461 1156 l 764 1294 l 800 1199 l 493 1078 z "},"Ŵ":{"ha":1233,"x_min":42,"x_max":1192,"o":"m 235 0 l 42 960 l 157 960 l 318 97 l 357 97 l 551 953 l 682 953 l 876 97 l 915 97 l 1076 960 l 1192 960 l 997 0 l 797 0 l 607 864 l 626 864 l 436 0 l 235 0 m 383 1093 l 569 1281 l 664 1281 l 850 1093 l 729 1093 l 618 1203 l 506 1093 l 383 1093 z "},"Ẅ":{"ha":1233,"x_min":42,"x_max":1192,"o":"m 235 0 l 42 960 l 157 960 l 318 97 l 357 97 l 551 953 l 682 953 l 876 97 l 915 97 l 1076 960 l 1192 960 l 997 0 l 797 0 l 607 864 l 626 864 l 436 0 l 235 0 m 706 1119 l 706 1247 l 810 1247 l 810 1119 l 706 1119 m 422 1119 l 422 1247 l 526 1247 l 526 1119 l 422 1119 z "},"Ẁ":{"ha":1233,"x_min":42,"x_max":1192,"o":"m 235 0 l 42 960 l 157 960 l 318 97 l 357 97 l 551 953 l 682 953 l 876 97 l 915 97 l 1076 960 l 1192 960 l 997 0 l 797 0 l 607 864 l 626 864 l 436 0 l 235 0 m 751 1078 l 444 1199 l 481 1294 l 783 1156 l 751 1078 z "},"X":{"ha":776,"x_min":25,"x_max":751,"o":"m 25 0 l 321 469 l 25 960 l 151 960 l 390 553 l 632 960 l 751 960 l 457 474 l 751 0 l 625 0 l 388 394 l 144 0 l 25 0 z "},"Y":{"ha":749,"x_min":14,"x_max":735,"o":"m 319 0 l 319 403 l 14 960 l 139 960 l 374 514 l 610 960 l 735 960 l 431 403 l 431 0 l 319 0 z "},"Ý":{"ha":749,"x_min":14,"x_max":735,"o":"m 319 0 l 319 403 l 14 960 l 139 960 l 374 514 l 610 960 l 735 960 l 431 403 l 431 0 l 319 0 m 263 1078 l 231 1156 l 533 1294 l 569 1199 l 263 1078 z "},"Ŷ":{"ha":749,"x_min":14,"x_max":735,"o":"m 319 0 l 319 403 l 14 960 l 139 960 l 374 514 l 610 960 l 735 960 l 431 403 l 431 0 l 319 0 m 142 1097 l 328 1285 l 422 1285 l 608 1097 l 488 1097 l 376 1207 l 264 1097 l 142 1097 z "},"Ÿ":{"ha":749,"x_min":14,"x_max":735,"o":"m 319 0 l 319 403 l 14 960 l 139 960 l 374 514 l 610 960 l 735 960 l 431 403 l 431 0 l 319 0 m 463 1119 l 463 1247 l 567 1247 l 567 1119 l 463 1119 m 179 1119 l 179 1247 l 283 1247 l 283 1119 l 179 1119 z "},"Ỳ":{"ha":749,"x_min":14,"x_max":735,"o":"m 319 0 l 319 403 l 14 960 l 139 960 l 374 514 l 610 960 l 735 960 l 431 403 l 431 0 l 319 0 m 501 1078 l 194 1199 l 231 1294 l 533 1156 l 501 1078 z "},"Z":{"ha":744,"x_min":60,"x_max":685,"o":"m 60 -1 l 60 125 l 556 832 l 556 861 l 60 861 l 60 960 l 685 960 l 685 833 l 188 126 l 188 99 l 685 99 l 685 -1 l 60 -1 z "},"Ź":{"ha":744,"x_min":60,"x_max":685,"o":"m 60 -1 l 60 125 l 556 832 l 556 861 l 60 861 l 60 960 l 685 960 l 685 833 l 188 126 l 188 99 l 685 99 l 685 -1 l 60 -1 m 243 1078 l 211 1156 l 514 1294 l 550 1199 l 243 1078 z "},"Ž":{"ha":744,"x_min":60,"x_max":685,"o":"m 60 -1 l 60 125 l 556 832 l 556 861 l 60 861 l 60 960 l 685 960 l 685 833 l 188 126 l 188 99 l 685 99 l 685 -1 l 60 -1 m 336 1097 l 150 1285 l 271 1285 l 383 1176 l 494 1285 l 615 1285 l 429 1097 l 336 1097 z "},"Ż":{"ha":744,"x_min":60,"x_max":685,"o":"m 60 -1 l 60 125 l 556 832 l 556 861 l 60 861 l 60 960 l 685 960 l 685 833 l 188 126 l 188 99 l 685 99 l 685 -1 l 60 -1 m 317 1110 l 317 1233 l 425 1233 l 425 1110 l 317 1110 z "},"Ằ":{"ha":825,"x_min":32,"x_max":796,"o":"m 411 1043 q 298 1067 346 1043 q 222 1132 250 1090 q 192 1228 194 1174 l 292 1228 q 328 1153 294 1181 q 411 1125 363 1125 q 496 1153 461 1125 q 532 1228 531 1181 l 632 1228 q 601 1132 629 1174 q 526 1067 574 1090 q 411 1043 478 1043 m 551 1296 l 242 1413 l 279 1506 l 582 1368 l 551 1296 m 32 0 l 294 960 l 535 960 l 796 0 l 685 0 l 617 243 l 211 243 l 143 0 l 32 0 m 235 342 l 593 342 l 450 865 l 378 865 l 235 342 z "},"Ỹ":{"ha":738,"x_min":10,"x_max":731,"o":"m 463 1121 q 415 1131 442 1121 q 362 1153 389 1140 q 310 1175 335 1165 q 269 1185 286 1185 q 221 1166 251 1185 q 168 1131 190 1147 l 143 1199 q 202 1247 165 1222 q 269 1271 239 1271 q 318 1261 292 1271 q 372 1240 344 1251 q 422 1218 399 1228 q 461 1208 446 1208 q 508 1226 478 1208 q 558 1261 538 1243 l 583 1192 q 528 1145 563 1169 q 463 1121 494 1121 m 315 0 l 315 403 l 10 960 l 135 960 l 369 514 l 606 960 l 731 960 l 426 403 l 426 0 l 315 0 z "},"a":{"ha":697,"x_min":56,"x_max":671,"o":"m 251 -14 q 106 40 156 -14 q 56 199 56 94 q 79 310 56 267 q 151 376 103 353 q 269 404 199 399 l 483 425 l 483 485 q 452 585 483 556 q 360 614 421 614 q 277 611 325 614 q 182 604 229 608 q 99 596 135 600 l 93 678 q 174 692 126 685 q 272 703 221 699 q 367 708 324 708 q 496 684 446 708 q 569 610 546 660 q 592 485 592 561 l 592 133 q 616 89 594 103 q 671 71 638 75 l 667 -14 q 611 -10 636 -14 q 564 0 586 -7 q 530 17 546 7 q 499 40 514 26 q 431 17 472 29 q 344 -5 390 4 q 251 -14 297 -14 m 269 76 q 347 83 307 76 q 424 100 388 90 q 483 118 460 110 l 483 344 l 282 325 q 192 289 219 319 q 165 201 165 258 q 192 110 165 143 q 269 76 218 76 z "},"á":{"ha":697,"x_min":56,"x_max":671,"o":"m 251 -14 q 106 40 156 -14 q 56 199 56 94 q 79 310 56 267 q 151 376 103 353 q 269 404 199 399 l 483 425 l 483 485 q 452 585 483 556 q 360 614 421 614 q 277 611 325 614 q 182 604 229 608 q 99 596 135 600 l 93 678 q 174 692 126 685 q 272 703 221 699 q 367 708 324 708 q 496 684 446 708 q 569 610 546 660 q 592 485 592 561 l 592 133 q 616 89 594 103 q 671 71 638 75 l 667 -14 q 611 -10 636 -14 q 564 0 586 -7 q 530 17 546 7 q 499 40 514 26 q 431 17 472 29 q 344 -5 390 4 q 251 -14 297 -14 m 269 76 q 347 83 307 76 q 424 100 388 90 q 483 118 460 110 l 483 344 l 282 325 q 192 289 219 319 q 165 201 165 258 q 192 110 165 143 q 269 76 218 76 m 192 819 l 163 892 l 465 1029 l 501 936 l 192 819 z "},"ă":{"ha":697,"x_min":56,"x_max":671,"o":"m 251 -14 q 106 40 156 -14 q 56 199 56 94 q 79 310 56 267 q 151 376 103 353 q 269 404 199 399 l 483 425 l 483 485 q 452 585 483 556 q 360 614 421 614 q 277 611 325 614 q 182 604 229 608 q 99 596 135 600 l 93 678 q 174 692 126 685 q 272 703 221 699 q 367 708 324 708 q 496 684 446 708 q 569 610 546 660 q 592 485 592 561 l 592 133 q 616 89 594 103 q 671 71 638 75 l 667 -14 q 611 -10 636 -14 q 564 0 586 -7 q 530 17 546 7 q 499 40 514 26 q 431 17 472 29 q 344 -5 390 4 q 251 -14 297 -14 m 269 76 q 347 83 307 76 q 424 100 388 90 q 483 118 460 110 l 483 344 l 282 325 q 192 289 219 319 q 165 201 165 258 q 192 110 165 143 q 269 76 218 76 m 350 821 q 242 847 288 821 q 171 918 196 874 q 143 1015 146 963 l 231 1015 q 265 932 233 964 q 350 900 296 900 q 437 933 406 900 q 469 1015 468 965 l 557 1015 q 529 918 554 963 q 459 847 504 874 q 350 821 414 821 z "},"â":{"ha":697,"x_min":56,"x_max":671,"o":"m 251 -14 q 106 40 156 -14 q 56 199 56 94 q 79 310 56 267 q 151 376 103 353 q 269 404 199 399 l 483 425 l 483 485 q 452 585 483 556 q 360 614 421 614 q 277 611 325 614 q 182 604 229 608 q 99 596 135 600 l 93 678 q 174 692 126 685 q 272 703 221 699 q 367 708 324 708 q 496 684 446 708 q 569 610 546 660 q 592 485 592 561 l 592 133 q 616 89 594 103 q 671 71 638 75 l 667 -14 q 611 -10 636 -14 q 564 0 586 -7 q 530 17 546 7 q 499 40 514 26 q 431 17 472 29 q 344 -5 390 4 q 251 -14 297 -14 m 269 76 q 347 83 307 76 q 424 100 388 90 q 483 118 460 110 l 483 344 l 282 325 q 192 289 219 319 q 165 201 165 258 q 192 110 165 143 q 269 76 218 76 m 131 821 l 301 1017 l 374 1017 l 547 821 l 440 821 l 339 940 l 239 821 l 131 821 z "},"ä":{"ha":697,"x_min":56,"x_max":671,"o":"m 251 -14 q 106 40 156 -14 q 56 199 56 94 q 79 310 56 267 q 151 376 103 353 q 269 404 199 399 l 483 425 l 483 485 q 452 585 483 556 q 360 614 421 614 q 277 611 325 614 q 182 604 229 608 q 99 596 135 600 l 93 678 q 174 692 126 685 q 272 703 221 699 q 367 708 324 708 q 496 684 446 708 q 569 610 546 660 q 592 485 592 561 l 592 133 q 616 89 594 103 q 671 71 638 75 l 667 -14 q 611 -10 636 -14 q 564 0 586 -7 q 530 17 546 7 q 499 40 514 26 q 431 17 472 29 q 344 -5 390 4 q 251 -14 297 -14 m 269 76 q 347 83 307 76 q 424 100 388 90 q 483 118 460 110 l 483 344 l 282 325 q 192 289 219 319 q 165 201 165 258 q 192 110 165 143 q 269 76 218 76 m 454 861 l 454 989 l 558 989 l 558 861 l 454 861 m 175 861 l 175 989 l 279 989 l 279 861 l 175 861 z "},"à":{"ha":697,"x_min":56,"x_max":671,"o":"m 251 -14 q 106 40 156 -14 q 56 199 56 94 q 79 310 56 267 q 151 376 103 353 q 269 404 199 399 l 483 425 l 483 485 q 452 585 483 556 q 360 614 421 614 q 277 611 325 614 q 182 604 229 608 q 99 596 135 600 l 93 678 q 174 692 126 685 q 272 703 221 699 q 367 708 324 708 q 496 684 446 708 q 569 610 546 660 q 592 485 592 561 l 592 133 q 616 89 594 103 q 671 71 638 75 l 667 -14 q 611 -10 636 -14 q 564 0 586 -7 q 530 17 546 7 q 499 40 514 26 q 431 17 472 29 q 344 -5 390 4 q 251 -14 297 -14 m 269 76 q 347 83 307 76 q 424 100 388 90 q 483 118 460 110 l 483 344 l 282 325 q 192 289 219 319 q 165 201 165 258 q 192 110 165 143 q 269 76 218 76 m 476 819 l 167 936 l 204 1029 l 507 892 l 476 819 z "},"ā":{"ha":697,"x_min":56,"x_max":671,"o":"m 251 -14 q 106 40 156 -14 q 56 199 56 94 q 79 310 56 267 q 151 376 103 353 q 269 404 199 399 l 483 425 l 483 485 q 452 585 483 556 q 360 614 421 614 q 277 611 325 614 q 182 604 229 608 q 99 596 135 600 l 93 678 q 174 692 126 685 q 272 703 221 699 q 367 708 324 708 q 496 684 446 708 q 569 610 546 660 q 592 485 592 561 l 592 133 q 616 89 594 103 q 671 71 638 75 l 667 -14 q 611 -10 636 -14 q 564 0 586 -7 q 530 17 546 7 q 499 40 514 26 q 431 17 472 29 q 344 -5 390 4 q 251 -14 297 -14 m 269 76 q 347 83 307 76 q 424 100 388 90 q 483 118 460 110 l 483 344 l 282 325 q 192 289 219 319 q 165 201 165 258 q 192 110 165 143 q 269 76 218 76 m 154 865 l 154 950 l 538 950 l 538 865 l 154 865 z "},"ą":{"ha":697,"x_min":56,"x_max":671,"o":"m 251 -14 q 106 40 156 -14 q 56 199 56 94 q 79 310 56 267 q 151 376 103 353 q 269 404 199 399 l 483 425 l 483 485 q 452 585 483 556 q 360 614 421 614 q 277 611 325 614 q 182 604 229 608 q 99 596 135 600 l 93 678 q 174 692 126 685 q 272 703 221 699 q 367 708 324 708 q 496 684 446 708 q 569 610 546 660 q 592 485 592 561 l 592 133 q 616 89 594 103 q 671 71 638 75 l 667 -14 q 611 -10 636 -14 q 564 0 586 -7 q 530 17 546 7 q 499 40 514 26 q 431 17 472 29 q 344 -5 390 4 q 251 -14 297 -14 m 269 76 q 347 83 307 76 q 424 100 388 90 q 483 118 460 110 l 483 344 l 282 325 q 192 289 219 319 q 165 201 165 258 q 192 110 165 143 q 269 76 218 76 m 563 -287 q 490 -270 519 -287 q 445 -226 460 -253 q 431 -171 431 -200 q 448 -104 431 -137 q 492 -41 465 -71 q 544 11 518 -11 l 632 0 q 581 -53 603 -26 q 546 -103 558 -79 q 533 -149 533 -128 q 548 -185 533 -171 q 590 -200 563 -200 q 623 -197 603 -200 q 657 -192 643 -193 l 671 -275 q 614 -283 644 -279 q 563 -287 583 -287 z "},"å":{"ha":697,"x_min":56,"x_max":671,"o":"m 251 -14 q 106 40 156 -14 q 56 199 56 94 q 79 310 56 267 q 151 376 103 353 q 269 404 199 399 l 483 425 l 483 485 q 452 585 483 556 q 360 614 421 614 q 277 611 325 614 q 182 604 229 608 q 99 596 135 600 l 93 678 q 174 692 126 685 q 272 703 221 699 q 367 708 324 708 q 496 684 446 708 q 569 610 546 660 q 592 485 592 561 l 592 133 q 616 89 594 103 q 671 71 638 75 l 667 -14 q 611 -10 636 -14 q 564 0 586 -7 q 530 17 546 7 q 499 40 514 26 q 431 17 472 29 q 344 -5 390 4 q 251 -14 297 -14 m 269 76 q 347 83 307 76 q 424 100 388 90 q 483 118 460 110 l 483 344 l 282 325 q 192 289 219 319 q 165 201 165 258 q 192 110 165 143 q 269 76 218 76 m 356 750 q 251 792 293 750 q 210 896 210 833 q 251 999 210 957 q 356 1040 293 1040 q 458 999 417 1040 q 500 896 500 957 q 458 792 500 833 q 356 750 417 750 m 356 818 q 409 840 388 818 q 431 896 431 863 q 409 950 431 928 q 356 972 388 972 q 301 950 324 972 q 279 896 279 928 q 301 840 279 863 q 356 818 324 818 z "},"ǻ":{"ha":697,"x_min":56,"x_max":671,"o":"m 251 -14 q 106 40 156 -14 q 56 199 56 94 q 79 310 56 267 q 151 376 103 353 q 269 404 199 399 l 483 425 l 483 485 q 452 585 483 556 q 360 614 421 614 q 277 611 325 614 q 182 604 229 608 q 99 596 135 600 l 93 678 q 174 692 126 685 q 272 703 221 699 q 367 708 324 708 q 496 684 446 708 q 569 610 546 660 q 592 485 592 561 l 592 133 q 616 89 594 103 q 671 71 638 75 l 667 -14 q 611 -10 636 -14 q 564 0 586 -7 q 530 17 546 7 q 499 40 514 26 q 431 17 472 29 q 344 -5 390 4 q 251 -14 297 -14 m 269 76 q 347 83 307 76 q 424 100 388 90 q 483 118 460 110 l 483 344 l 282 325 q 192 289 219 319 q 165 201 165 258 q 192 110 165 143 q 269 76 218 76 m 343 750 q 239 792 281 750 q 197 896 197 833 q 239 999 197 957 q 343 1040 281 1040 q 446 999 404 1040 q 488 896 488 957 q 446 792 488 833 q 343 750 404 750 m 343 818 q 397 840 375 818 q 418 896 418 863 q 397 950 418 928 q 343 972 375 972 q 289 950 311 972 q 267 896 267 928 q 289 840 267 863 q 343 818 311 818 m 211 1074 l 182 1146 l 485 1283 l 521 1190 l 211 1074 z "},"ã":{"ha":697,"x_min":56,"x_max":671,"o":"m 251 -14 q 106 40 156 -14 q 56 199 56 94 q 79 310 56 267 q 151 376 103 353 q 269 404 199 399 l 483 425 l 483 485 q 452 585 483 556 q 360 614 421 614 q 277 611 325 614 q 182 604 229 608 q 99 596 135 600 l 93 678 q 174 692 126 685 q 272 703 221 699 q 367 708 324 708 q 496 684 446 708 q 569 610 546 660 q 592 485 592 561 l 592 133 q 616 89 594 103 q 671 71 638 75 l 667 -14 q 611 -10 636 -14 q 564 0 586 -7 q 530 17 546 7 q 499 40 514 26 q 431 17 472 29 q 344 -5 390 4 q 251 -14 297 -14 m 269 76 q 347 83 307 76 q 424 100 388 90 q 483 118 460 110 l 483 344 l 282 325 q 192 289 219 319 q 165 201 165 258 q 192 110 165 143 q 269 76 218 76 m 425 849 q 378 858 404 849 q 324 881 351 868 q 273 903 297 893 q 232 913 249 913 q 183 894 214 913 q 131 858 153 875 l 106 926 q 165 974 128 950 q 232 999 201 999 q 281 989 254 999 q 334 967 307 979 q 385 946 361 956 q 424 936 408 936 q 470 953 440 936 q 521 989 500 971 l 546 919 q 491 873 525 897 q 425 849 457 849 z "},"æ":{"ha":1115,"x_min":56,"x_max":1054,"o":"m 244 -14 q 103 42 151 -14 q 56 199 56 97 q 83 319 56 276 q 165 381 110 361 q 306 410 221 401 l 483 425 l 483 482 q 453 575 483 546 q 365 604 422 604 q 279 602 328 604 q 183 597 231 600 q 101 590 136 594 l 97 688 q 182 697 133 692 q 281 705 231 701 q 371 708 332 708 q 488 684 442 708 q 557 610 535 660 q 650 685 594 663 q 774 708 706 708 q 983 631 913 708 q 1054 383 1054 554 l 1047 301 l 592 301 q 631 140 592 194 q 772 85 671 85 q 858 87 811 85 q 949 92 904 89 q 1026 97 994 94 l 1029 10 q 949 -1 996 4 q 851 -10 901 -7 q 758 -14 800 -14 q 636 6 686 -14 q 554 60 586 25 q 456 21 504 38 q 356 -5 407 4 q 244 -14 304 -14 m 263 81 q 334 87 296 81 q 407 101 372 93 q 468 117 442 110 q 506 129 494 125 q 486 225 492 165 q 481 338 481 285 l 282 321 q 194 289 222 317 q 165 201 165 261 q 191 111 165 142 q 263 81 217 81 m 592 389 l 946 389 q 905 561 946 511 q 774 611 864 611 q 638 560 685 611 q 592 389 592 508 z "},"ǽ":{"ha":1115,"x_min":56,"x_max":1054,"o":"m 244 -14 q 103 42 151 -14 q 56 199 56 97 q 83 319 56 276 q 165 381 110 361 q 306 410 221 401 l 483 425 l 483 482 q 453 575 483 546 q 365 604 422 604 q 279 602 328 604 q 183 597 231 600 q 101 590 136 594 l 97 688 q 182 697 133 692 q 281 705 231 701 q 371 708 332 708 q 488 684 442 708 q 557 610 535 660 q 650 685 594 663 q 774 708 706 708 q 983 631 913 708 q 1054 383 1054 554 l 1047 301 l 592 301 q 631 140 592 194 q 772 85 671 85 q 858 87 811 85 q 949 92 904 89 q 1026 97 994 94 l 1029 10 q 949 -1 996 4 q 851 -10 901 -7 q 758 -14 800 -14 q 636 6 686 -14 q 554 60 586 25 q 456 21 504 38 q 356 -5 407 4 q 244 -14 304 -14 m 263 81 q 334 87 296 81 q 407 101 372 93 q 468 117 442 110 q 506 129 494 125 q 486 225 492 165 q 481 338 481 285 l 282 321 q 194 289 222 317 q 165 201 165 261 q 191 111 165 142 q 263 81 217 81 m 592 389 l 946 389 q 905 561 946 511 q 774 611 864 611 q 638 560 685 611 q 592 389 592 508 m 431 819 l 401 892 l 704 1029 l 740 936 l 431 819 z "},"b":{"ha":732,"x_min":99,"x_max":663,"o":"m 333 -14 q 260 -12 303 -14 q 175 -6 218 -10 q 99 1 132 -1 l 99 996 l 207 996 l 207 661 q 297 692 240 676 q 407 708 354 708 q 558 673 501 708 q 638 560 614 638 q 663 358 663 483 q 633 138 663 219 q 531 22 603 57 q 333 -14 460 -14 m 332 83 q 473 112 426 83 q 535 201 519 140 q 551 358 551 263 q 538 503 551 447 q 490 585 524 558 q 396 611 456 611 q 292 598 344 611 q 207 572 239 585 l 207 90 q 274 85 236 88 q 332 83 313 83 z "},"c":{"ha":606,"x_min":71,"x_max":550,"o":"m 357 -14 q 185 23 247 -14 q 97 142 122 60 q 71 358 71 224 q 99 562 71 485 q 192 674 128 639 q 358 708 256 708 q 416 705 382 708 q 486 697 450 701 q 549 688 522 692 l 544 599 q 490 604 521 601 q 431 609 460 607 q 382 611 401 611 q 259 586 303 611 q 198 506 215 561 q 181 358 181 451 q 196 197 181 257 q 254 110 211 136 q 382 83 297 83 q 431 85 401 83 q 492 90 461 88 q 547 94 524 93 l 550 6 q 486 -3 522 1 q 415 -10 450 -7 q 357 -14 381 -14 z "},"ć":{"ha":606,"x_min":71,"x_max":550,"o":"m 357 -14 q 185 23 247 -14 q 97 142 122 60 q 71 358 71 224 q 99 562 71 485 q 192 674 128 639 q 358 708 256 708 q 416 705 382 708 q 486 697 450 701 q 549 688 522 692 l 544 599 q 490 604 521 601 q 431 609 460 607 q 382 611 401 611 q 259 586 303 611 q 198 506 215 561 q 181 358 181 451 q 196 197 181 257 q 254 110 211 136 q 382 83 297 83 q 431 85 401 83 q 492 90 461 88 q 547 94 524 93 l 550 6 q 486 -3 522 1 q 415 -10 450 -7 q 357 -14 381 -14 m 203 819 l 174 892 l 476 1029 l 513 936 l 203 819 z "},"č":{"ha":606,"x_min":71,"x_max":550,"o":"m 357 -14 q 185 23 247 -14 q 97 142 122 60 q 71 358 71 224 q 99 562 71 485 q 192 674 128 639 q 358 708 256 708 q 416 705 382 708 q 486 697 450 701 q 549 688 522 692 l 544 599 q 490 604 521 601 q 431 609 460 607 q 382 611 401 611 q 259 586 303 611 q 198 506 215 561 q 181 358 181 451 q 196 197 181 257 q 254 110 211 136 q 382 83 297 83 q 431 85 401 83 q 492 90 461 88 q 547 94 524 93 l 550 6 q 486 -3 522 1 q 415 -10 450 -7 q 357 -14 381 -14 m 296 821 l 125 1017 l 232 1017 l 333 897 l 435 1017 l 542 1017 l 368 821 l 296 821 z "},"ç":{"ha":606,"x_min":71,"x_max":550,"o":"m 357 -14 q 185 23 247 -14 q 97 142 122 60 q 71 358 71 224 q 99 562 71 485 q 192 674 128 639 q 358 708 256 708 q 416 705 382 708 q 486 697 450 701 q 549 688 522 692 l 544 599 q 490 604 521 601 q 431 609 460 607 q 382 611 401 611 q 259 586 303 611 q 198 506 215 561 q 181 358 181 451 q 196 197 181 257 q 254 110 211 136 q 382 83 297 83 q 431 85 401 83 q 492 90 461 88 q 547 94 524 93 l 550 6 q 486 -3 522 1 q 415 -10 450 -7 q 357 -14 381 -14 m 371 -303 q 303 -300 338 -303 q 250 -293 269 -297 l 254 -225 q 297 -227 267 -226 q 344 -228 328 -228 q 390 -216 374 -228 q 406 -176 406 -204 q 390 -140 406 -150 q 344 -131 374 -131 l 288 -131 l 288 1 l 346 1 l 346 -67 q 463 -89 424 -68 q 501 -176 501 -110 q 465 -273 501 -243 q 371 -303 429 -303 z "},"ĉ":{"ha":606,"x_min":71,"x_max":550,"o":"m 357 -14 q 185 23 247 -14 q 97 142 122 60 q 71 358 71 224 q 99 562 71 485 q 192 674 128 639 q 358 708 256 708 q 416 705 382 708 q 486 697 450 701 q 549 688 522 692 l 544 599 q 490 604 521 601 q 431 609 460 607 q 382 611 401 611 q 259 586 303 611 q 198 506 215 561 q 181 358 181 451 q 196 197 181 257 q 254 110 211 136 q 382 83 297 83 q 431 85 401 83 q 492 90 461 88 q 547 94 524 93 l 550 6 q 486 -3 522 1 q 415 -10 450 -7 q 357 -14 381 -14 m 114 821 l 285 1017 l 357 1017 l 531 821 l 424 821 l 322 940 l 222 821 l 114 821 z "},"ċ":{"ha":606,"x_min":71,"x_max":550,"o":"m 357 -14 q 185 23 247 -14 q 97 142 122 60 q 71 358 71 224 q 99 562 71 485 q 192 674 128 639 q 358 708 256 708 q 416 705 382 708 q 486 697 450 701 q 549 688 522 692 l 544 599 q 490 604 521 601 q 431 609 460 607 q 382 611 401 611 q 259 586 303 611 q 198 506 215 561 q 181 358 181 451 q 196 197 181 257 q 254 110 211 136 q 382 83 297 83 q 431 85 401 83 q 492 90 461 88 q 547 94 524 93 l 550 6 q 486 -3 522 1 q 415 -10 450 -7 q 357 -14 381 -14 m 294 843 l 294 967 l 403 967 l 403 843 l 294 843 z "},"d":{"ha":736,"x_min":68,"x_max":636,"o":"m 319 -14 q 240 -5 278 -14 q 172 26 203 4 q 117 88 140 49 q 81 190 93 128 q 68 342 68 253 q 97 547 68 465 q 190 668 126 628 q 360 708 254 708 q 450 702 400 708 q 528 690 500 696 l 528 996 l 636 996 l 636 0 l 529 0 l 529 46 q 472 19 507 33 q 397 -4 436 6 q 319 -14 357 -14 m 333 83 q 406 92 369 83 q 475 112 443 100 q 528 133 507 124 l 528 599 q 482 605 511 601 q 422 611 453 608 q 365 614 390 614 q 254 583 294 614 q 197 492 214 553 q 179 342 179 432 q 192 208 179 258 q 226 130 204 157 q 275 93 247 103 q 333 83 303 83 z "},"ð":{"ha":763,"x_min":58,"x_max":692,"o":"m 369 -12 q 140 67 222 -12 q 58 299 58 146 q 133 516 58 433 q 350 599 208 599 q 430 590 388 599 q 512 571 472 582 q 578 549 551 560 q 549 666 574 610 q 474 770 525 722 q 339 858 422 818 q 132 929 256 899 l 153 1010 q 448 910 328 976 q 630 741 568 844 q 692 489 692 638 q 659 199 692 310 q 556 38 626 89 q 369 -12 485 -12 m 369 86 q 488 120 443 86 q 556 234 533 154 q 578 451 578 314 q 515 474 553 463 q 435 492 476 485 q 357 500 394 500 q 256 473 297 500 q 193 401 214 446 q 172 299 172 356 q 222 142 172 197 q 369 86 271 86 m 221 719 l 172 786 l 536 1031 l 585 963 l 221 719 z "},"ď":{"ha":804,"x_min":68,"x_max":885,"o":"m 721 660 l 778 949 l 885 949 l 815 660 l 721 660 m 319 -14 q 240 -5 278 -14 q 172 26 203 4 q 117 88 140 49 q 81 190 93 128 q 68 342 68 253 q 97 547 68 465 q 190 668 126 628 q 360 708 254 708 q 450 702 400 708 q 528 690 500 696 l 528 996 l 636 996 l 636 0 l 529 0 l 529 46 q 472 19 507 33 q 397 -4 436 6 q 319 -14 357 -14 m 333 83 q 406 92 369 83 q 475 112 443 100 q 528 133 507 124 l 528 599 q 482 605 511 601 q 422 611 453 608 q 365 614 390 614 q 254 583 294 614 q 197 492 214 553 q 179 342 179 432 q 192 208 179 258 q 226 130 204 157 q 275 93 247 103 q 333 83 303 83 z "},"đ":{"ha":736,"x_min":68,"x_max":664,"o":"m 257 864 l 257 958 l 664 958 l 664 864 l 257 864 m 319 -14 q 240 -5 278 -14 q 172 26 203 4 q 117 88 140 49 q 81 190 93 128 q 68 342 68 253 q 97 547 68 465 q 190 668 126 628 q 360 708 254 708 q 450 702 400 708 q 528 690 500 696 l 528 996 l 636 996 l 636 0 l 529 0 l 529 46 q 472 19 507 33 q 397 -4 436 6 q 319 -14 357 -14 m 333 83 q 406 92 369 83 q 475 112 443 100 q 528 133 507 124 l 528 599 q 482 605 511 601 q 422 611 453 608 q 365 614 390 614 q 254 583 294 614 q 197 492 214 553 q 179 342 179 432 q 192 208 179 258 q 226 130 204 157 q 275 93 247 103 q 333 83 303 83 z "},"e":{"ha":701,"x_min":68,"x_max":640,"o":"m 346 -14 q 181 26 242 -14 q 94 146 121 67 q 68 343 68 225 q 104 555 68 475 q 206 672 140 635 q 360 708 271 708 q 569 631 499 708 q 640 383 640 554 l 635 301 l 178 301 q 218 138 179 193 q 358 82 257 82 q 444 84 397 82 q 536 89 490 86 q 614 94 582 92 l 617 10 q 535 -1 583 4 q 438 -10 488 -7 q 346 -14 388 -14 m 178 389 l 532 389 q 491 567 532 517 q 360 618 450 618 q 225 565 272 618 q 178 389 178 513 z "},"é":{"ha":701,"x_min":68,"x_max":640,"o":"m 346 -14 q 181 26 242 -14 q 94 146 121 67 q 68 343 68 225 q 104 555 68 475 q 206 672 140 635 q 360 708 271 708 q 569 631 499 708 q 640 383 640 554 l 635 301 l 178 301 q 218 138 179 193 q 358 82 257 82 q 444 84 397 82 q 536 89 490 86 q 614 94 582 92 l 617 10 q 535 -1 583 4 q 438 -10 488 -7 q 346 -14 388 -14 m 178 389 l 532 389 q 491 567 532 517 q 360 618 450 618 q 225 565 272 618 q 178 389 178 513 m 228 819 l 199 892 l 501 1029 l 538 936 l 228 819 z "},"ĕ":{"ha":701,"x_min":68,"x_max":640,"o":"m 346 -14 q 181 26 242 -14 q 94 146 121 67 q 68 343 68 225 q 104 555 68 475 q 206 672 140 635 q 360 708 271 708 q 569 631 499 708 q 640 383 640 554 l 635 301 l 178 301 q 218 138 179 193 q 358 82 257 82 q 444 84 397 82 q 536 89 490 86 q 614 94 582 92 l 617 10 q 535 -1 583 4 q 438 -10 488 -7 q 346 -14 388 -14 m 178 389 l 532 389 q 491 567 532 517 q 360 618 450 618 q 225 565 272 618 q 178 389 178 513 m 356 814 q 247 840 293 814 q 176 911 201 867 q 149 1008 151 956 l 236 1008 q 270 925 239 957 q 356 893 301 893 q 442 926 411 893 q 475 1008 474 958 l 563 1008 q 535 911 560 956 q 465 840 510 867 q 356 814 419 814 z "},"ě":{"ha":701,"x_min":68,"x_max":640,"o":"m 346 -14 q 181 26 242 -14 q 94 146 121 67 q 68 343 68 225 q 104 555 68 475 q 206 672 140 635 q 360 708 271 708 q 569 631 499 708 q 640 383 640 554 l 635 301 l 178 301 q 218 138 179 193 q 358 82 257 82 q 444 84 397 82 q 536 89 490 86 q 614 94 582 92 l 617 10 q 535 -1 583 4 q 438 -10 488 -7 q 346 -14 388 -14 m 178 389 l 532 389 q 491 567 532 517 q 360 618 450 618 q 225 565 272 618 q 178 389 178 513 m 314 821 l 143 1017 l 250 1017 l 351 897 l 453 1017 l 560 1017 l 386 821 l 314 821 z "},"ê":{"ha":701,"x_min":68,"x_max":640,"o":"m 346 -14 q 181 26 242 -14 q 94 146 121 67 q 68 343 68 225 q 104 555 68 475 q 206 672 140 635 q 360 708 271 708 q 569 631 499 708 q 640 383 640 554 l 635 301 l 178 301 q 218 138 179 193 q 358 82 257 82 q 444 84 397 82 q 536 89 490 86 q 614 94 582 92 l 617 10 q 535 -1 583 4 q 438 -10 488 -7 q 346 -14 388 -14 m 178 389 l 532 389 q 491 567 532 517 q 360 618 450 618 q 225 565 272 618 q 178 389 178 513 m 154 821 l 325 1017 l 397 1017 l 571 821 l 464 821 l 363 940 l 263 821 l 154 821 z "},"ë":{"ha":701,"x_min":68,"x_max":640,"o":"m 346 -14 q 181 26 242 -14 q 94 146 121 67 q 68 343 68 225 q 104 555 68 475 q 206 672 140 635 q 360 708 271 708 q 569 631 499 708 q 640 383 640 554 l 635 301 l 178 301 q 218 138 179 193 q 358 82 257 82 q 444 84 397 82 q 536 89 490 86 q 614 94 582 92 l 617 10 q 535 -1 583 4 q 438 -10 488 -7 q 346 -14 388 -14 m 178 389 l 532 389 q 491 567 532 517 q 360 618 450 618 q 225 565 272 618 q 178 389 178 513 m 475 861 l 475 989 l 579 989 l 579 861 l 475 861 m 196 861 l 196 989 l 300 989 l 300 861 l 196 861 z "},"ė":{"ha":701,"x_min":68,"x_max":640,"o":"m 346 -14 q 181 26 242 -14 q 94 146 121 67 q 68 343 68 225 q 104 555 68 475 q 206 672 140 635 q 360 708 271 708 q 569 631 499 708 q 640 383 640 554 l 635 301 l 178 301 q 218 138 179 193 q 358 82 257 82 q 444 84 397 82 q 536 89 490 86 q 614 94 582 92 l 617 10 q 535 -1 583 4 q 438 -10 488 -7 q 346 -14 388 -14 m 178 389 l 532 389 q 491 567 532 517 q 360 618 450 618 q 225 565 272 618 q 178 389 178 513 m 299 843 l 299 967 l 407 967 l 407 843 l 299 843 z "},"è":{"ha":701,"x_min":68,"x_max":640,"o":"m 346 -14 q 181 26 242 -14 q 94 146 121 67 q 68 343 68 225 q 104 555 68 475 q 206 672 140 635 q 360 708 271 708 q 569 631 499 708 q 640 383 640 554 l 635 301 l 178 301 q 218 138 179 193 q 358 82 257 82 q 444 84 397 82 q 536 89 490 86 q 614 94 582 92 l 617 10 q 535 -1 583 4 q 438 -10 488 -7 q 346 -14 388 -14 m 178 389 l 532 389 q 491 567 532 517 q 360 618 450 618 q 225 565 272 618 q 178 389 178 513 m 476 821 l 167 938 l 204 1031 l 507 893 l 476 821 z "},"ē":{"ha":701,"x_min":68,"x_max":640,"o":"m 346 -14 q 181 26 242 -14 q 94 146 121 67 q 68 343 68 225 q 104 555 68 475 q 206 672 140 635 q 360 708 271 708 q 569 631 499 708 q 640 383 640 554 l 635 301 l 178 301 q 218 138 179 193 q 358 82 257 82 q 444 84 397 82 q 536 89 490 86 q 614 94 582 92 l 617 10 q 535 -1 583 4 q 438 -10 488 -7 q 346 -14 388 -14 m 178 389 l 532 389 q 491 567 532 517 q 360 618 450 618 q 225 565 272 618 q 178 389 178 513 m 169 865 l 169 950 l 553 950 l 553 865 l 169 865 z "},"ę":{"ha":701,"x_min":68,"x_max":640,"o":"m 346 -14 q 181 26 242 -14 q 94 146 121 67 q 68 343 68 225 q 104 555 68 475 q 206 672 140 635 q 360 708 271 708 q 569 631 499 708 q 640 383 640 554 l 635 301 l 178 301 q 218 138 179 193 q 358 82 257 82 q 444 84 397 82 q 536 89 490 86 q 614 94 582 92 l 617 10 q 535 -1 583 4 q 438 -10 488 -7 q 346 -14 388 -14 m 178 389 l 532 389 q 491 567 532 517 q 360 618 450 618 q 225 565 272 618 q 178 389 178 513 m 504 -283 q 431 -266 461 -283 q 387 -222 401 -249 q 372 -167 372 -196 q 390 -100 372 -133 q 433 -37 407 -67 q 486 15 460 -7 l 574 4 q 522 -49 544 -22 q 488 -99 500 -75 q 475 -144 475 -124 q 490 -181 475 -167 q 532 -196 504 -196 q 565 -192 544 -196 q 599 -187 585 -189 l 613 -271 q 556 -279 586 -275 q 504 -283 525 -283 z "},"f":{"ha":461,"x_min":42,"x_max":458,"o":"m 129 0 l 129 601 l 42 601 l 42 694 l 129 694 l 129 756 q 147 911 129 856 q 207 988 165 967 q 317 1010 249 1010 q 363 1008 333 1010 q 419 1005 392 1007 q 458 1000 447 1003 l 457 910 q 397 912 432 911 q 339 913 361 913 q 278 899 300 913 q 247 851 256 886 q 238 754 238 817 l 238 694 l 438 694 l 438 601 l 238 601 l 238 0 l 129 0 z "},"g":{"ha":715,"x_min":68,"x_max":689,"o":"m 368 -326 q 194 -308 260 -326 q 98 -243 128 -289 q 68 -118 68 -197 q 81 -49 68 -78 q 117 3 93 -21 q 178 54 142 28 q 149 94 160 68 q 139 151 139 119 q 155 201 139 167 q 186 261 171 235 q 133 299 157 275 q 93 365 108 324 q 78 471 78 407 q 150 653 78 599 q 338 708 222 708 q 417 703 375 708 q 482 690 458 697 l 689 696 l 689 604 l 558 607 q 591 556 578 588 q 604 471 604 524 q 574 329 604 381 q 483 257 543 278 q 333 236 424 236 q 301 238 324 236 q 267 242 278 240 q 250 197 258 222 q 242 163 242 172 q 251 122 242 136 q 297 104 261 108 q 408 100 332 100 q 568 83 508 100 q 653 23 628 67 q 679 -104 679 -21 q 597 -274 679 -222 q 368 -326 515 -326 m 369 -235 q 521 -206 472 -235 q 569 -110 569 -176 q 553 -34 569 -58 q 500 -2 538 -10 q 400 6 463 6 q 365 6 388 6 q 319 8 343 7 q 277 10 296 8 q 251 11 258 11 q 192 -44 208 -19 q 175 -108 175 -68 q 192 -182 175 -154 q 251 -222 208 -210 q 369 -235 293 -235 m 338 322 q 460 356 424 322 q 496 471 496 390 q 460 586 496 551 q 338 621 424 621 q 222 586 257 621 q 186 471 186 551 q 222 356 186 390 q 338 322 257 322 z "},"ğ":{"ha":715,"x_min":68,"x_max":689,"o":"m 368 -326 q 194 -308 260 -326 q 98 -243 128 -289 q 68 -118 68 -197 q 81 -49 68 -78 q 117 3 93 -21 q 178 54 142 28 q 149 94 160 68 q 139 151 139 119 q 155 201 139 167 q 186 261 171 235 q 133 299 157 275 q 93 365 108 324 q 78 471 78 407 q 150 653 78 599 q 338 708 222 708 q 417 703 375 708 q 482 690 458 697 l 689 696 l 689 604 l 558 607 q 591 556 578 588 q 604 471 604 524 q 574 329 604 381 q 483 257 543 278 q 333 236 424 236 q 301 238 324 236 q 267 242 278 240 q 250 197 258 222 q 242 163 242 172 q 251 122 242 136 q 297 104 261 108 q 408 100 332 100 q 568 83 508 100 q 653 23 628 67 q 679 -104 679 -21 q 597 -274 679 -222 q 368 -326 515 -326 m 369 -235 q 521 -206 472 -235 q 569 -110 569 -176 q 553 -34 569 -58 q 500 -2 538 -10 q 400 6 463 6 q 365 6 388 6 q 319 8 343 7 q 277 10 296 8 q 251 11 258 11 q 192 -44 208 -19 q 175 -108 175 -68 q 192 -182 175 -154 q 251 -222 208 -210 q 369 -235 293 -235 m 338 322 q 460 356 424 322 q 496 471 496 390 q 460 586 496 551 q 338 621 424 621 q 222 586 257 621 q 186 471 186 551 q 222 356 186 390 q 338 322 257 322 m 364 814 q 256 840 301 814 q 185 911 210 867 q 157 1008 160 956 l 244 1008 q 278 925 247 957 q 364 893 310 893 q 451 926 419 893 q 483 1008 482 958 l 571 1008 q 543 911 568 956 q 473 840 518 867 q 364 814 428 814 z "},"ĝ":{"ha":715,"x_min":68,"x_max":689,"o":"m 368 -326 q 194 -308 260 -326 q 98 -243 128 -289 q 68 -118 68 -197 q 81 -49 68 -78 q 117 3 93 -21 q 178 54 142 28 q 149 94 160 68 q 139 151 139 119 q 155 201 139 167 q 186 261 171 235 q 133 299 157 275 q 93 365 108 324 q 78 471 78 407 q 150 653 78 599 q 338 708 222 708 q 417 703 375 708 q 482 690 458 697 l 689 696 l 689 604 l 558 607 q 591 556 578 588 q 604 471 604 524 q 574 329 604 381 q 483 257 543 278 q 333 236 424 236 q 301 238 324 236 q 267 242 278 240 q 250 197 258 222 q 242 163 242 172 q 251 122 242 136 q 297 104 261 108 q 408 100 332 100 q 568 83 508 100 q 653 23 628 67 q 679 -104 679 -21 q 597 -274 679 -222 q 368 -326 515 -326 m 369 -235 q 521 -206 472 -235 q 569 -110 569 -176 q 553 -34 569 -58 q 500 -2 538 -10 q 400 6 463 6 q 365 6 388 6 q 319 8 343 7 q 277 10 296 8 q 251 11 258 11 q 192 -44 208 -19 q 175 -108 175 -68 q 192 -182 175 -154 q 251 -222 208 -210 q 369 -235 293 -235 m 338 322 q 460 356 424 322 q 496 471 496 390 q 460 586 496 551 q 338 621 424 621 q 222 586 257 621 q 186 471 186 551 q 222 356 186 390 q 338 322 257 322 m 157 821 l 328 1017 l 400 1017 l 574 821 l 467 821 l 365 940 l 265 821 l 157 821 z "},"ģ":{"ha":715,"x_min":68,"x_max":689,"o":"m 265 818 l 335 1107 l 429 1107 l 372 818 l 265 818 m 368 -326 q 194 -308 260 -326 q 98 -243 128 -289 q 68 -118 68 -197 q 81 -49 68 -78 q 117 3 93 -21 q 178 54 142 28 q 149 94 160 68 q 139 151 139 119 q 155 201 139 167 q 186 261 171 235 q 133 299 157 275 q 93 365 108 324 q 78 471 78 407 q 150 653 78 599 q 338 708 222 708 q 417 703 375 708 q 482 690 458 697 l 689 696 l 689 604 l 558 607 q 591 556 578 588 q 604 471 604 524 q 574 329 604 381 q 483 257 543 278 q 333 236 424 236 q 301 238 324 236 q 267 242 278 240 q 250 197 258 222 q 242 163 242 172 q 251 122 242 136 q 297 104 261 108 q 408 100 332 100 q 568 83 508 100 q 653 23 628 67 q 679 -104 679 -21 q 597 -274 679 -222 q 368 -326 515 -326 m 369 -235 q 521 -206 472 -235 q 569 -110 569 -176 q 553 -34 569 -58 q 500 -2 538 -10 q 400 6 463 6 q 365 6 388 6 q 319 8 343 7 q 277 10 296 8 q 251 11 258 11 q 192 -44 208 -19 q 175 -108 175 -68 q 192 -182 175 -154 q 251 -222 208 -210 q 369 -235 293 -235 m 338 322 q 460 356 424 322 q 496 471 496 390 q 460 586 496 551 q 338 621 424 621 q 222 586 257 621 q 186 471 186 551 q 222 356 186 390 q 338 322 257 322 z "},"ġ":{"ha":715,"x_min":68,"x_max":689,"o":"m 368 -326 q 194 -308 260 -326 q 98 -243 128 -289 q 68 -118 68 -197 q 81 -49 68 -78 q 117 3 93 -21 q 178 54 142 28 q 149 94 160 68 q 139 151 139 119 q 155 201 139 167 q 186 261 171 235 q 133 299 157 275 q 93 365 108 324 q 78 471 78 407 q 150 653 78 599 q 338 708 222 708 q 417 703 375 708 q 482 690 458 697 l 689 696 l 689 604 l 558 607 q 591 556 578 588 q 604 471 604 524 q 574 329 604 381 q 483 257 543 278 q 333 236 424 236 q 301 238 324 236 q 267 242 278 240 q 250 197 258 222 q 242 163 242 172 q 251 122 242 136 q 297 104 261 108 q 408 100 332 100 q 568 83 508 100 q 653 23 628 67 q 679 -104 679 -21 q 597 -274 679 -222 q 368 -326 515 -326 m 369 -235 q 521 -206 472 -235 q 569 -110 569 -176 q 553 -34 569 -58 q 500 -2 538 -10 q 400 6 463 6 q 365 6 388 6 q 319 8 343 7 q 277 10 296 8 q 251 11 258 11 q 192 -44 208 -19 q 175 -108 175 -68 q 192 -182 175 -154 q 251 -222 208 -210 q 369 -235 293 -235 m 338 322 q 460 356 424 322 q 496 471 496 390 q 460 586 496 551 q 338 621 424 621 q 222 586 257 621 q 186 471 186 551 q 222 356 186 390 q 338 322 257 322 m 308 843 l 308 967 l 417 967 l 417 843 l 308 843 z "},"h":{"ha":747,"x_min":100,"x_max":654,"o":"m 100 0 l 100 996 l 207 996 l 207 657 q 303 691 243 674 q 419 708 364 708 q 566 674 515 708 q 635 565 617 640 q 654 368 654 490 l 654 0 l 546 0 l 546 364 q 535 508 546 454 q 494 587 525 563 q 400 611 464 611 q 293 597 347 611 q 207 571 239 583 l 207 0 l 100 0 z "},"ħ":{"ha":747,"x_min":14,"x_max":654,"o":"m 14 801 l 14 897 l 421 897 l 421 801 l 14 801 m 100 0 l 100 996 l 207 996 l 207 657 q 303 691 243 674 q 419 708 364 708 q 566 674 515 708 q 635 565 617 640 q 654 368 654 490 l 654 0 l 546 0 l 546 364 q 535 508 546 454 q 494 587 525 563 q 400 611 464 611 q 293 597 347 611 q 207 571 239 583 l 207 0 l 100 0 z "},"ĥ":{"ha":747,"x_min":100,"x_max":654,"o":"m 100 0 l 100 996 l 207 996 l 207 657 q 303 691 243 674 q 419 708 364 708 q 566 674 515 708 q 635 565 617 640 q 654 368 654 490 l 654 0 l 546 0 l 546 364 q 535 508 546 454 q 494 587 525 563 q 400 611 464 611 q 293 597 347 611 q 207 571 239 583 l 207 0 l 100 0 m 164 1072 l 335 1268 l 407 1268 l 581 1072 l 474 1072 l 372 1192 l 272 1072 l 164 1072 z "},"i":{"ha":307,"x_min":100,"x_max":207,"o":"m 100 0 l 100 694 l 207 694 l 207 0 l 100 0 m 100 847 l 100 972 l 207 972 l 207 847 l 100 847 z "},"ı":{"ha":307,"x_min":100,"x_max":207,"o":"m 100 0 l 100 694 l 207 694 l 207 0 l 100 0 z "},"í":{"ha":307,"x_min":53,"x_max":392,"o":"m 100 0 l 100 694 l 207 694 l 207 0 l 100 0 m 82 819 l 53 892 l 356 1029 l 392 936 l 82 819 z "},"ĭ":{"ha":307,"x_min":-53,"x_max":361,"o":"m 100 0 l 100 694 l 207 694 l 207 0 l 100 0 m 154 814 q 46 840 92 814 q -25 911 0 867 q -53 1008 -50 956 l 35 1008 q 69 925 38 957 q 154 893 100 893 q 241 926 210 893 q 274 1008 272 958 l 361 1008 q 333 911 358 956 q 263 840 308 867 q 154 814 218 814 z "},"î":{"ha":307,"x_min":-58,"x_max":358,"o":"m 100 0 l 100 694 l 207 694 l 207 0 l 100 0 m -58 821 l 113 1017 l 185 1017 l 358 821 l 251 821 l 150 940 l 50 821 l -58 821 z "},"ï":{"ha":307,"x_min":-12,"x_max":371,"o":"m 100 0 l 100 694 l 207 694 l 207 0 l 100 0 m 267 861 l 267 989 l 371 989 l 371 861 l 267 861 m -12 861 l -12 989 l 92 989 l 92 861 l -12 861 z "},"ì":{"ha":307,"x_min":-83,"x_max":257,"o":"m 100 0 l 100 694 l 207 694 l 207 0 l 100 0 m 226 819 l -83 936 l -46 1029 l 257 892 l 226 819 z "},"ī":{"ha":307,"x_min":-39,"x_max":344,"o":"m 100 0 l 100 694 l 207 694 l 207 0 l 100 0 m -39 865 l -39 950 l 344 950 l 344 865 l -39 865 z "},"į":{"ha":307,"x_min":6,"x_max":246,"o":"m 138 -287 q 65 -270 94 -287 q 20 -226 35 -253 q 6 -171 6 -200 q 23 -104 6 -137 q 67 -41 40 -71 q 119 11 93 -11 l 207 0 q 156 -53 178 -26 q 121 -103 133 -79 q 108 -149 108 -128 q 123 -185 108 -171 q 165 -200 138 -200 q 198 -197 178 -200 q 232 -192 218 -193 l 246 -275 q 189 -283 219 -279 q 138 -287 158 -287 m 100 0 l 100 694 l 207 694 l 207 0 l 100 0 m 100 847 l 100 972 l 207 972 l 207 847 l 100 847 z "},"ĩ":{"ha":307,"x_min":-64,"x_max":376,"o":"m 100 0 l 100 694 l 207 694 l 207 0 l 100 0 m 256 849 q 208 858 235 849 q 155 881 182 868 q 103 903 128 893 q 63 913 79 913 q 14 894 44 913 q -39 858 -17 875 l -64 926 q -5 974 -42 950 q 63 999 32 999 q 111 989 85 999 q 165 967 138 979 q 215 946 192 956 q 254 936 239 936 q 301 953 271 936 q 351 989 331 971 l 376 919 q 322 873 356 897 q 256 849 288 849 z "},"j":{"ha":307,"x_min":-67,"x_max":208,"o":"m -24 -310 l -67 -226 q 19 -172 -14 -196 q 69 -122 51 -147 q 93 -64 86 -97 q 100 19 100 -31 l 100 694 l 208 694 l 208 18 q 198 -92 208 -46 q 162 -175 188 -139 q 91 -242 136 -211 q -24 -310 46 -274 m 100 847 l 100 972 l 208 972 l 208 847 l 100 847 z "},"ȷ":{"ha":307,"x_min":-67,"x_max":208,"o":"m -24 -310 l -67 -226 q 39 -154 3 -185 q 88 -84 75 -124 q 100 19 100 -44 l 100 694 l 208 694 l 208 18 q 198 -92 208 -46 q 162 -175 188 -139 q 91 -242 136 -211 q -24 -310 46 -274 z "},"ĵ":{"ha":307,"x_min":-67,"x_max":360,"o":"m -24 -310 l -67 -226 q 39 -154 3 -185 q 88 -84 75 -124 q 100 19 100 -44 l 100 694 l 208 694 l 208 18 q 198 -92 208 -46 q 162 -175 188 -139 q 91 -242 136 -211 q -24 -310 46 -274 m -57 821 l 114 1017 l 186 1017 l 360 821 l 253 821 l 151 940 l 51 821 l -57 821 z "},"k":{"ha":668,"x_min":100,"x_max":643,"o":"m 100 0 l 100 996 l 207 996 l 207 410 l 314 414 l 508 694 l 632 694 l 408 374 l 643 0 l 519 0 l 317 319 l 207 314 l 207 0 l 100 0 z "},"ķ":{"ha":668,"x_min":100,"x_max":643,"o":"m 131 -397 l 188 -108 l 294 -108 l 225 -397 l 131 -397 m 100 0 l 100 996 l 207 996 l 207 410 l 314 414 l 508 694 l 632 694 l 408 374 l 643 0 l 519 0 l 317 319 l 207 314 l 207 0 l 100 0 z "},"l":{"ha":324,"x_min":108,"x_max":215,"o":"m 108 0 l 108 996 l 215 996 l 215 0 l 108 0 z "},"ĺ":{"ha":324,"x_min":71,"x_max":410,"o":"m 108 0 l 108 996 l 215 996 l 215 0 l 108 0 m 100 1103 l 71 1175 l 374 1313 l 410 1219 l 100 1103 z "},"ľ":{"ha":383,"x_min":108,"x_max":465,"o":"m 301 660 l 358 949 l 465 949 l 396 660 l 301 660 m 108 0 l 108 996 l 215 996 l 215 0 l 108 0 z "},"ļ":{"ha":324,"x_min":46,"x_max":215,"o":"m 108 0 l 108 996 l 215 996 l 215 0 l 108 0 m 46 -397 l 103 -108 l 210 -108 l 140 -397 l 46 -397 z "},"ł":{"ha":436,"x_min":13,"x_max":422,"o":"m 67 319 l 13 394 l 368 643 l 422 568 l 67 319 m 160 0 l 160 996 l 267 996 l 267 0 l 160 0 z "},"m":{"ha":1161,"x_min":100,"x_max":1068,"o":"m 100 0 l 100 694 l 207 694 l 207 646 q 297 687 240 665 q 407 708 354 708 q 519 692 476 708 q 588 638 561 675 q 656 669 615 653 q 742 697 696 686 q 833 708 789 708 q 978 676 928 708 q 1049 568 1029 643 q 1068 368 1068 493 l 1068 0 l 961 0 l 961 364 q 951 508 961 454 q 910 587 940 563 q 817 611 879 611 q 708 594 761 611 q 625 561 654 578 q 638 472 635 525 q 642 361 642 418 l 642 0 l 535 0 l 535 358 q 525 508 535 453 q 484 587 515 563 q 390 611 453 611 q 286 594 338 611 q 207 561 235 578 l 207 0 l 100 0 z "},"n":{"ha":747,"x_min":100,"x_max":656,"o":"m 100 0 l 100 694 l 207 694 l 207 646 q 266 674 231 660 q 342 698 301 688 q 419 708 382 708 q 566 674 515 708 q 636 565 617 640 q 656 368 656 490 l 656 0 l 547 0 l 547 364 q 537 508 547 454 q 495 587 526 563 q 400 611 464 611 q 328 603 365 611 q 260 584 292 596 q 207 561 228 572 l 207 0 l 100 0 z "},"ń":{"ha":747,"x_min":100,"x_max":656,"o":"m 100 0 l 100 694 l 207 694 l 207 646 q 266 674 231 660 q 342 698 301 688 q 419 708 382 708 q 566 674 515 708 q 636 565 617 640 q 656 368 656 490 l 656 0 l 547 0 l 547 364 q 537 508 547 454 q 495 587 526 563 q 400 611 464 611 q 328 603 365 611 q 260 584 292 596 q 207 561 228 572 l 207 0 l 100 0 m 251 819 l 222 892 l 525 1029 l 561 936 l 251 819 z "},"ň":{"ha":747,"x_min":100,"x_max":656,"o":"m 100 0 l 100 694 l 207 694 l 207 646 q 266 674 231 660 q 342 698 301 688 q 419 708 382 708 q 566 674 515 708 q 636 565 617 640 q 656 368 656 490 l 656 0 l 547 0 l 547 364 q 537 508 547 454 q 495 587 526 563 q 400 611 464 611 q 328 603 365 611 q 260 584 292 596 q 207 561 228 572 l 207 0 l 100 0 m 336 821 l 165 1017 l 272 1017 l 374 897 l 475 1017 l 582 1017 l 408 821 l 336 821 z "},"ņ":{"ha":747,"x_min":100,"x_max":656,"o":"m 167 -397 l 224 -108 l 331 -108 l 261 -397 l 167 -397 m 100 0 l 100 694 l 207 694 l 207 646 q 266 674 231 660 q 342 698 301 688 q 419 708 382 708 q 566 674 515 708 q 636 565 617 640 q 656 368 656 490 l 656 0 l 547 0 l 547 364 q 537 508 547 454 q 495 587 526 563 q 400 611 464 611 q 328 603 365 611 q 260 584 292 596 q 207 561 228 572 l 207 0 l 100 0 z "},"ŋ":{"ha":747,"x_min":99,"x_max":656,"o":"m 432 -331 l 385 -239 q 488 -169 453 -199 q 535 -101 522 -139 q 547 -4 547 -64 l 547 360 q 537 499 547 443 q 497 582 526 554 q 407 610 467 610 q 336 602 374 610 q 265 583 299 594 q 207 560 231 571 l 207 0 l 99 0 l 99 694 l 207 694 l 207 649 q 270 676 233 663 q 348 699 307 689 q 424 708 389 708 q 567 671 517 708 q 636 557 617 633 q 656 361 656 481 l 656 -3 q 646 -114 656 -68 q 613 -195 636 -160 q 545 -262 589 -231 q 432 -331 501 -294 z "},"ñ":{"ha":747,"x_min":100,"x_max":656,"o":"m 100 0 l 100 694 l 207 694 l 207 646 q 266 674 231 660 q 342 698 301 688 q 419 708 382 708 q 566 674 515 708 q 636 565 617 640 q 656 368 656 490 l 656 0 l 547 0 l 547 364 q 537 508 547 454 q 495 587 526 563 q 400 611 464 611 q 328 603 365 611 q 260 584 292 596 q 207 561 228 572 l 207 0 l 100 0 m 485 849 q 438 858 464 849 q 384 881 411 868 q 333 903 357 893 q 292 913 308 913 q 243 894 274 913 q 190 858 213 875 l 165 926 q 224 974 188 950 q 292 999 261 999 q 340 989 314 999 q 394 967 367 979 q 444 946 421 956 q 483 936 468 936 q 530 953 500 936 q 581 989 560 971 l 606 919 q 551 873 585 897 q 485 849 517 849 z "},"o":{"ha":735,"x_min":69,"x_max":665,"o":"m 367 -14 q 185 26 250 -14 q 95 149 121 67 q 69 356 69 231 q 98 553 69 475 q 192 669 126 631 q 367 708 257 708 q 543 669 478 708 q 637 553 608 631 q 665 356 665 475 q 640 149 665 231 q 549 26 614 67 q 367 -14 485 -14 m 367 79 q 488 108 447 79 q 541 197 528 136 q 554 356 554 258 q 538 508 554 451 q 481 590 521 565 q 367 615 440 615 q 253 590 294 615 q 196 508 213 565 q 179 356 179 451 q 192 197 179 258 q 246 108 206 136 q 367 79 286 79 z "},"ó":{"ha":735,"x_min":69,"x_max":665,"o":"m 367 -14 q 185 26 250 -14 q 95 149 121 67 q 69 356 69 231 q 98 553 69 475 q 192 669 126 631 q 367 708 257 708 q 543 669 478 708 q 637 553 608 631 q 665 356 665 475 q 640 149 665 231 q 549 26 614 67 q 367 -14 485 -14 m 367 79 q 488 108 447 79 q 541 197 528 136 q 554 356 554 258 q 538 508 554 451 q 481 590 521 565 q 367 615 440 615 q 253 590 294 615 q 196 508 213 565 q 179 356 179 451 q 192 197 179 258 q 246 108 206 136 q 367 79 286 79 m 240 819 l 211 892 l 514 1029 l 550 936 l 240 819 z "},"ŏ":{"ha":735,"x_min":69,"x_max":665,"o":"m 367 -14 q 185 26 250 -14 q 95 149 121 67 q 69 356 69 231 q 98 553 69 475 q 192 669 126 631 q 367 708 257 708 q 543 669 478 708 q 637 553 608 631 q 665 356 665 475 q 640 149 665 231 q 549 26 614 67 q 367 -14 485 -14 m 367 79 q 488 108 447 79 q 541 197 528 136 q 554 356 554 258 q 538 508 554 451 q 481 590 521 565 q 367 615 440 615 q 253 590 294 615 q 196 508 213 565 q 179 356 179 451 q 192 197 179 258 q 246 108 206 136 q 367 79 286 79 m 371 814 q 263 840 308 814 q 192 911 217 867 q 164 1008 167 956 l 251 1008 q 285 925 254 957 q 371 893 317 893 q 458 926 426 893 q 490 1008 489 958 l 578 1008 q 550 911 575 956 q 480 840 525 867 q 371 814 435 814 z "},"ô":{"ha":735,"x_min":69,"x_max":665,"o":"m 367 -14 q 185 26 250 -14 q 95 149 121 67 q 69 356 69 231 q 98 553 69 475 q 192 669 126 631 q 367 708 257 708 q 543 669 478 708 q 637 553 608 631 q 665 356 665 475 q 640 149 665 231 q 549 26 614 67 q 367 -14 485 -14 m 367 79 q 488 108 447 79 q 541 197 528 136 q 554 356 554 258 q 538 508 554 451 q 481 590 521 565 q 367 615 440 615 q 253 590 294 615 q 196 508 213 565 q 179 356 179 451 q 192 197 179 258 q 246 108 206 136 q 367 79 286 79 m 156 821 l 326 1017 l 399 1017 l 572 821 l 465 821 l 364 940 l 264 821 l 156 821 z "},"ö":{"ha":735,"x_min":69,"x_max":665,"o":"m 367 -14 q 185 26 250 -14 q 95 149 121 67 q 69 356 69 231 q 98 553 69 475 q 192 669 126 631 q 367 708 257 708 q 543 669 478 708 q 637 553 608 631 q 665 356 665 475 q 640 149 665 231 q 549 26 614 67 q 367 -14 485 -14 m 367 79 q 488 108 447 79 q 541 197 528 136 q 554 356 554 258 q 538 508 554 451 q 481 590 521 565 q 367 615 440 615 q 253 590 294 615 q 196 508 213 565 q 179 356 179 451 q 192 197 179 258 q 246 108 206 136 q 367 79 286 79 m 482 861 l 482 989 l 586 989 l 586 861 l 482 861 m 203 861 l 203 989 l 307 989 l 307 861 l 203 861 z "},"ò":{"ha":735,"x_min":69,"x_max":665,"o":"m 367 -14 q 185 26 250 -14 q 95 149 121 67 q 69 356 69 231 q 98 553 69 475 q 192 669 126 631 q 367 708 257 708 q 543 669 478 708 q 637 553 608 631 q 665 356 665 475 q 640 149 665 231 q 549 26 614 67 q 367 -14 485 -14 m 367 79 q 488 108 447 79 q 541 197 528 136 q 554 356 554 258 q 538 508 554 451 q 481 590 521 565 q 367 615 440 615 q 253 590 294 615 q 196 508 213 565 q 179 356 179 451 q 192 197 179 258 q 246 108 206 136 q 367 79 286 79 m 504 819 l 194 936 l 232 1029 l 535 892 l 504 819 z "},"ő":{"ha":735,"x_min":69,"x_max":744,"o":"m 367 -14 q 185 26 250 -14 q 95 149 121 67 q 69 356 69 231 q 98 553 69 475 q 192 669 126 631 q 367 708 257 708 q 543 669 478 708 q 637 553 608 631 q 665 356 665 475 q 640 149 665 231 q 549 26 614 67 q 367 -14 485 -14 m 367 79 q 488 108 447 79 q 541 197 528 136 q 554 356 554 258 q 538 508 554 451 q 481 590 521 565 q 367 615 440 615 q 253 590 294 615 q 196 508 213 565 q 179 356 179 451 q 192 197 179 258 q 246 108 206 136 q 367 79 286 79 m 540 807 l 467 868 l 665 1064 l 744 1001 l 540 807 m 272 807 l 197 868 l 397 1063 l 476 1001 l 272 807 z "},"ō":{"ha":735,"x_min":69,"x_max":665,"o":"m 367 -14 q 185 26 250 -14 q 95 149 121 67 q 69 356 69 231 q 98 553 69 475 q 192 669 126 631 q 367 708 257 708 q 543 669 478 708 q 637 553 608 631 q 665 356 665 475 q 640 149 665 231 q 549 26 614 67 q 367 -14 485 -14 m 367 79 q 488 108 447 79 q 541 197 528 136 q 554 356 554 258 q 538 508 554 451 q 481 590 521 565 q 367 615 440 615 q 253 590 294 615 q 196 508 213 565 q 179 356 179 451 q 192 197 179 258 q 246 108 206 136 q 367 79 286 79 m 178 881 l 178 965 l 561 965 l 561 881 l 178 881 z "},"ø":{"ha":735,"x_min":69,"x_max":665,"o":"m 203 -154 l 131 -128 l 528 842 l 600 815 l 203 -154 m 203 -154 l 131 -128 l 528 842 l 600 815 l 203 -154 m 367 -14 q 185 26 250 -14 q 95 149 121 67 q 69 356 69 231 q 98 553 69 475 q 192 669 126 631 q 367 708 257 708 q 543 669 478 708 q 637 553 608 631 q 665 356 665 475 q 640 149 665 231 q 549 26 614 67 q 367 -14 485 -14 m 367 79 q 488 108 447 79 q 541 197 528 136 q 554 356 554 258 q 538 508 554 451 q 481 590 521 565 q 367 615 440 615 q 253 590 294 615 q 196 508 213 565 q 179 356 179 451 q 192 197 179 258 q 246 108 206 136 q 367 79 286 79 z "},"ǿ":{"ha":735,"x_min":69,"x_max":665,"o":"m 203 -154 l 131 -128 l 528 842 l 600 815 l 203 -154 m 203 -154 l 131 -128 l 528 842 l 600 815 l 203 -154 m 228 819 l 199 892 l 501 1029 l 538 936 l 228 819 m 367 -14 q 185 26 250 -14 q 95 149 121 67 q 69 356 69 231 q 98 553 69 475 q 192 669 126 631 q 367 708 257 708 q 543 669 478 708 q 637 553 608 631 q 665 356 665 475 q 640 149 665 231 q 549 26 614 67 q 367 -14 485 -14 m 367 79 q 488 108 447 79 q 541 197 528 136 q 554 356 554 258 q 538 508 554 451 q 481 590 521 565 q 367 615 440 615 q 253 590 294 615 q 196 508 213 565 q 179 356 179 451 q 192 197 179 258 q 246 108 206 136 q 367 79 286 79 z "},"õ":{"ha":735,"x_min":69,"x_max":665,"o":"m 367 -14 q 185 26 250 -14 q 95 149 121 67 q 69 356 69 231 q 98 553 69 475 q 192 669 126 631 q 367 708 257 708 q 543 669 478 708 q 637 553 608 631 q 665 356 665 475 q 640 149 665 231 q 549 26 614 67 q 367 -14 485 -14 m 367 79 q 488 108 447 79 q 541 197 528 136 q 554 356 554 258 q 538 508 554 451 q 481 590 521 565 q 367 615 440 615 q 253 590 294 615 q 196 508 213 565 q 179 356 179 451 q 192 197 179 258 q 246 108 206 136 q 367 79 286 79 m 464 849 q 417 858 443 849 q 363 881 390 868 q 312 903 336 893 q 271 913 288 913 q 222 894 253 913 q 169 858 192 875 l 144 926 q 203 974 167 950 q 271 999 240 999 q 319 989 293 999 q 373 967 346 979 q 424 946 400 956 q 463 936 447 936 q 509 953 479 936 q 560 989 539 971 l 585 919 q 530 873 564 897 q 464 849 496 849 z "},"œ":{"ha":1189,"x_min":69,"x_max":1128,"o":"m 368 -14 q 186 26 251 -14 q 95 149 121 67 q 69 356 69 231 q 98 553 69 475 q 192 670 126 632 q 368 708 258 708 q 519 676 458 708 q 611 565 579 643 q 708 677 647 646 q 846 708 769 708 q 1057 631 986 708 q 1128 383 1128 554 l 1121 301 l 665 301 q 705 140 665 194 q 846 85 744 85 q 931 87 883 85 q 1023 92 978 89 q 1100 97 1068 94 l 1103 10 q 1022 -1 1069 4 q 924 -10 974 -7 q 832 -14 874 -14 q 692 17 746 -14 q 607 111 638 47 q 519 15 576 44 q 368 -14 463 -14 m 368 83 q 488 113 449 83 q 541 203 528 143 q 554 354 554 264 q 510 550 554 490 q 368 610 467 610 q 255 585 296 610 q 197 506 214 561 q 179 356 179 450 q 193 201 179 261 q 248 112 207 140 q 368 83 289 83 m 664 389 l 1019 389 q 978 561 1019 511 q 846 611 936 611 q 711 560 758 611 q 664 389 664 508 z "},"p":{"ha":733,"x_min":100,"x_max":665,"o":"m 100 -307 l 100 694 l 207 694 l 207 644 q 263 673 229 658 q 336 698 297 688 q 411 708 375 708 q 604 624 543 708 q 665 356 665 540 q 634 138 665 219 q 535 22 603 57 q 361 -14 468 -14 q 274 -8 318 -14 q 207 1 231 -3 l 207 -307 l 100 -307 m 356 81 q 474 108 431 81 q 536 197 518 136 q 554 356 554 257 q 513 553 554 496 q 396 611 471 611 q 327 603 363 611 q 260 583 292 594 q 207 558 228 571 l 207 94 q 272 86 229 92 q 356 81 315 81 z "},"þ":{"ha":733,"x_min":100,"x_max":664,"o":"m 100 -307 l 100 996 l 207 996 l 207 661 q 299 692 242 676 q 408 708 356 708 q 559 674 503 708 q 640 562 615 639 q 664 358 664 485 q 635 140 664 221 q 536 22 606 58 q 347 -14 467 -14 q 276 -10 317 -14 q 207 -4 235 -7 l 207 -307 l 100 -307 m 340 81 q 476 110 431 81 q 538 201 522 140 q 553 357 553 263 q 539 503 553 447 q 491 585 525 558 q 397 611 457 611 q 292 598 346 611 q 207 572 239 585 l 207 89 q 276 83 236 86 q 340 81 317 81 z "},"q":{"ha":732,"x_min":68,"x_max":632,"o":"m 524 -307 l 524 32 q 438 2 493 18 q 331 -14 383 -14 q 178 22 236 -14 q 94 136 121 58 q 68 336 68 214 q 99 556 68 474 q 203 673 131 638 q 397 708 275 708 q 465 706 424 708 q 552 701 507 704 q 632 694 597 697 l 632 -307 l 524 -307 m 342 83 q 445 97 394 83 q 524 122 496 110 l 524 607 q 460 612 497 610 q 399 614 422 614 q 262 584 310 614 q 196 493 214 554 q 178 336 178 432 q 215 146 178 208 q 342 83 253 83 z "},"r":{"ha":482,"x_min":100,"x_max":460,"o":"m 100 0 l 100 694 l 207 694 l 207 601 q 274 641 233 619 q 363 682 314 663 q 460 710 411 701 l 460 600 q 364 574 413 590 q 274 540 315 558 q 207 508 233 522 l 207 0 l 100 0 z "},"ŕ":{"ha":482,"x_min":92,"x_max":460,"o":"m 100 0 l 100 694 l 207 694 l 207 601 q 274 641 233 619 q 363 682 314 663 q 460 710 411 701 l 460 600 q 364 574 413 590 q 274 540 315 558 q 207 508 233 522 l 207 0 l 100 0 m 121 819 l 92 892 l 394 1029 l 431 936 l 121 819 z "},"ř":{"ha":482,"x_min":35,"x_max":460,"o":"m 100 0 l 100 694 l 207 694 l 207 601 q 274 641 233 619 q 363 682 314 663 q 460 710 411 701 l 460 600 q 364 574 413 590 q 274 540 315 558 q 207 508 233 522 l 207 0 l 100 0 m 206 821 l 35 1017 l 142 1017 l 243 897 l 344 1017 l 451 1017 l 278 821 l 206 821 z "},"ŗ":{"ha":482,"x_min":43,"x_max":460,"o":"m 43 -397 l 100 -108 l 207 -108 l 138 -397 l 43 -397 m 100 0 l 100 694 l 207 694 l 207 601 q 274 641 233 619 q 363 682 314 663 q 460 710 411 701 l 460 600 q 364 574 413 590 q 274 540 315 558 q 207 508 233 522 l 207 0 l 100 0 z "},"s":{"ha":647,"x_min":63,"x_max":588,"o":"m 317 -14 q 240 -10 285 -14 q 150 1 194 -6 q 71 13 106 7 l 76 106 q 155 96 111 101 q 240 87 199 90 q 307 83 282 83 q 401 94 364 83 q 458 129 439 104 q 478 200 478 154 q 463 254 478 235 q 409 286 449 274 q 294 310 369 299 q 165 341 217 322 q 88 397 113 360 q 63 504 63 435 q 99 626 63 582 q 192 690 135 671 q 313 708 250 708 q 398 704 351 708 q 489 694 444 700 q 565 682 533 688 l 563 589 q 485 599 529 594 q 396 608 440 604 q 318 611 351 611 q 243 602 276 611 q 190 571 210 593 q 171 508 171 549 q 185 459 171 478 q 238 428 199 440 q 350 403 276 415 q 488 368 436 389 q 564 310 540 347 q 588 204 588 272 q 515 34 588 82 q 317 -14 443 -14 z "},"ś":{"ha":647,"x_min":63,"x_max":588,"o":"m 317 -14 q 240 -10 285 -14 q 150 1 194 -6 q 71 13 106 7 l 76 106 q 155 96 111 101 q 240 87 199 90 q 307 83 282 83 q 401 94 364 83 q 458 129 439 104 q 478 200 478 154 q 463 254 478 235 q 409 286 449 274 q 294 310 369 299 q 165 341 217 322 q 88 397 113 360 q 63 504 63 435 q 99 626 63 582 q 192 690 135 671 q 313 708 250 708 q 398 704 351 708 q 489 694 444 700 q 565 682 533 688 l 563 589 q 485 599 529 594 q 396 608 440 604 q 318 611 351 611 q 243 602 276 611 q 190 571 210 593 q 171 508 171 549 q 185 459 171 478 q 238 428 199 440 q 350 403 276 415 q 488 368 436 389 q 564 310 540 347 q 588 204 588 272 q 515 34 588 82 q 317 -14 443 -14 m 186 819 l 157 892 l 460 1029 l 496 936 l 186 819 z "},"š":{"ha":647,"x_min":63,"x_max":588,"o":"m 317 -14 q 240 -10 285 -14 q 150 1 194 -6 q 71 13 106 7 l 76 106 q 155 96 111 101 q 240 87 199 90 q 307 83 282 83 q 401 94 364 83 q 458 129 439 104 q 478 200 478 154 q 463 254 478 235 q 409 286 449 274 q 294 310 369 299 q 165 341 217 322 q 88 397 113 360 q 63 504 63 435 q 99 626 63 582 q 192 690 135 671 q 313 708 250 708 q 398 704 351 708 q 489 694 444 700 q 565 682 533 688 l 563 589 q 485 599 529 594 q 396 608 440 604 q 318 611 351 611 q 243 602 276 611 q 190 571 210 593 q 171 508 171 549 q 185 459 171 478 q 238 428 199 440 q 350 403 276 415 q 488 368 436 389 q 564 310 540 347 q 588 204 588 272 q 515 34 588 82 q 317 -14 443 -14 m 300 821 l 129 1017 l 236 1017 l 338 897 l 439 1017 l 546 1017 l 372 821 l 300 821 z "},"ş":{"ha":647,"x_min":63,"x_max":588,"o":"m 317 -14 q 240 -10 285 -14 q 150 1 194 -6 q 71 13 106 7 l 76 106 q 155 96 111 101 q 240 87 199 90 q 307 83 282 83 q 401 94 364 83 q 458 129 439 104 q 478 200 478 154 q 463 254 478 235 q 409 286 449 274 q 294 310 369 299 q 165 341 217 322 q 88 397 113 360 q 63 504 63 435 q 99 626 63 582 q 192 690 135 671 q 313 708 250 708 q 398 704 351 708 q 489 694 444 700 q 565 682 533 688 l 563 589 q 485 599 529 594 q 396 608 440 604 q 318 611 351 611 q 243 602 276 611 q 190 571 210 593 q 171 508 171 549 q 185 459 171 478 q 238 428 199 440 q 350 403 276 415 q 488 368 436 389 q 564 310 540 347 q 588 204 588 272 q 515 34 588 82 q 317 -14 443 -14 m 367 -303 q 299 -300 333 -303 q 246 -293 265 -297 l 250 -225 q 293 -227 263 -226 q 340 -228 324 -228 q 385 -216 369 -228 q 401 -176 401 -204 q 385 -140 401 -150 q 340 -131 369 -131 l 283 -131 l 283 1 l 342 1 l 342 -67 q 458 -89 419 -68 q 497 -176 497 -110 q 461 -273 497 -243 q 367 -303 425 -303 z "},"ŝ":{"ha":647,"x_min":63,"x_max":588,"o":"m 317 -14 q 240 -10 285 -14 q 150 1 194 -6 q 71 13 106 7 l 76 106 q 155 96 111 101 q 240 87 199 90 q 307 83 282 83 q 401 94 364 83 q 458 129 439 104 q 478 200 478 154 q 463 254 478 235 q 409 286 449 274 q 294 310 369 299 q 165 341 217 322 q 88 397 113 360 q 63 504 63 435 q 99 626 63 582 q 192 690 135 671 q 313 708 250 708 q 398 704 351 708 q 489 694 444 700 q 565 682 533 688 l 563 589 q 485 599 529 594 q 396 608 440 604 q 318 611 351 611 q 243 602 276 611 q 190 571 210 593 q 171 508 171 549 q 185 459 171 478 q 238 428 199 440 q 350 403 276 415 q 488 368 436 389 q 564 310 540 347 q 588 204 588 272 q 515 34 588 82 q 317 -14 443 -14 m 117 821 l 288 1017 l 360 1017 l 533 821 l 426 821 l 325 940 l 225 821 l 117 821 z "},"ș":{"ha":647,"x_min":63,"x_max":588,"o":"m 144 -397 l 201 -108 l 308 -108 l 239 -397 l 144 -397 m 317 -14 q 240 -10 285 -14 q 150 1 194 -6 q 71 13 106 7 l 76 106 q 155 96 111 101 q 240 87 199 90 q 307 83 282 83 q 401 94 364 83 q 458 129 439 104 q 478 200 478 154 q 463 254 478 235 q 409 286 449 274 q 294 310 369 299 q 165 341 217 322 q 88 397 113 360 q 63 504 63 435 q 99 626 63 582 q 192 690 135 671 q 313 708 250 708 q 398 704 351 708 q 489 694 444 700 q 565 682 533 688 l 563 589 q 485 599 529 594 q 396 608 440 604 q 318 611 351 611 q 243 602 276 611 q 190 571 210 593 q 171 508 171 549 q 185 459 171 478 q 238 428 199 440 q 350 403 276 415 q 488 368 436 389 q 564 310 540 347 q 588 204 588 272 q 515 34 588 82 q 317 -14 443 -14 z "},"ß":{"ha":800,"x_min":100,"x_max":751,"o":"m 474 -14 q 381 -6 435 -14 q 290 7 326 1 l 294 97 q 352 91 319 94 q 415 85 385 88 q 464 83 446 83 q 603 121 567 83 q 639 229 639 158 q 627 292 639 267 q 583 338 615 317 q 489 389 550 360 q 398 440 431 417 q 351 490 365 463 q 338 554 338 517 q 365 636 338 607 q 444 688 392 665 q 516 736 499 711 q 533 803 533 761 q 499 888 533 864 q 374 913 464 913 q 277 898 314 913 q 224 847 240 883 q 207 743 207 811 l 207 0 l 100 0 l 100 756 q 128 907 100 851 q 217 986 157 963 q 374 1010 278 1010 q 530 989 469 1010 q 618 924 590 968 q 646 808 646 881 q 633 725 646 758 q 596 670 621 692 q 532 631 571 649 q 465 595 482 608 q 449 561 449 582 q 472 522 449 540 q 572 467 496 504 q 677 406 638 435 q 734 340 717 376 q 751 246 751 303 q 724 94 751 151 q 635 12 696 38 q 474 -14 575 -14 z "},"t":{"ha":488,"x_min":36,"x_max":469,"o":"m 328 -15 q 213 7 256 -15 q 153 84 171 29 q 135 239 135 139 l 135 601 l 36 601 l 36 694 l 135 694 l 135 907 l 242 907 l 242 694 l 460 694 l 460 601 l 242 601 l 242 271 q 248 156 242 197 q 275 99 254 115 q 340 82 296 82 q 376 83 354 82 q 422 87 399 85 q 463 90 444 89 l 469 0 q 397 -10 439 -4 q 328 -15 356 -15 z "},"ŧ":{"ha":493,"x_min":36,"x_max":469,"o":"m 64 349 l 64 433 l 429 433 l 429 349 l 64 349 m 328 -15 q 213 7 256 -15 q 153 84 171 29 q 135 239 135 139 l 135 601 l 36 601 l 36 694 l 135 694 l 135 907 l 242 907 l 242 694 l 460 694 l 460 601 l 242 601 l 242 271 q 248 156 242 197 q 275 99 254 115 q 340 82 296 82 q 376 83 354 82 q 422 87 399 85 q 463 90 444 89 l 469 0 q 397 -10 439 -4 q 328 -15 356 -15 z "},"ť":{"ha":604,"x_min":36,"x_max":619,"o":"m 514 639 l 514 967 l 619 967 l 619 639 l 514 639 m 328 -15 q 213 7 256 -15 q 153 84 171 29 q 135 239 135 139 l 135 601 l 36 601 l 36 694 l 135 694 l 135 907 l 242 907 l 242 694 l 460 694 l 460 601 l 242 601 l 242 271 q 248 156 242 197 q 275 99 254 115 q 340 82 296 82 q 376 83 354 82 q 422 87 399 85 q 463 90 444 89 l 469 0 q 397 -10 439 -4 q 328 -15 356 -15 z "},"ţ":{"ha":488,"x_min":36,"x_max":469,"o":"m 328 -15 q 213 7 256 -15 q 153 84 171 29 q 135 239 135 139 l 135 601 l 36 601 l 36 694 l 135 694 l 135 907 l 242 907 l 242 694 l 460 694 l 460 601 l 242 601 l 242 271 q 248 156 242 197 q 275 99 254 115 q 340 82 296 82 q 376 83 354 82 q 422 87 399 85 q 463 90 444 89 l 469 0 q 397 -10 439 -4 q 328 -15 356 -15 m 318 -303 q 251 -300 285 -303 q 197 -293 217 -297 l 201 -225 q 244 -227 214 -226 q 292 -228 275 -228 q 337 -216 321 -228 q 353 -176 353 -204 q 337 -140 353 -150 q 292 -131 321 -131 l 235 -131 l 235 1 l 293 1 l 293 -67 q 410 -89 371 -68 q 449 -176 449 -110 q 413 -273 449 -243 q 318 -303 376 -303 z "},"ț":{"ha":488,"x_min":36,"x_max":469,"o":"m 133 -397 l 190 -108 l 297 -108 l 228 -397 l 133 -397 m 328 -15 q 213 7 256 -15 q 153 84 171 29 q 135 239 135 139 l 135 601 l 36 601 l 36 694 l 135 694 l 135 907 l 242 907 l 242 694 l 460 694 l 460 601 l 242 601 l 242 271 q 248 156 242 197 q 275 99 254 115 q 340 82 296 82 q 376 83 354 82 q 422 87 399 85 q 463 90 444 89 l 469 0 q 397 -10 439 -4 q 328 -15 356 -15 z "},"u":{"ha":739,"x_min":93,"x_max":639,"o":"m 311 -14 q 175 22 222 -14 q 110 135 128 58 q 93 332 93 211 l 93 694 l 200 694 l 200 332 q 209 186 200 240 q 249 108 218 132 q 340 83 279 83 q 451 100 401 83 q 532 133 501 117 l 532 694 l 639 694 l 639 0 l 532 0 l 532 49 q 435 5 488 24 q 311 -14 383 -14 z "},"ú":{"ha":739,"x_min":93,"x_max":639,"o":"m 311 -14 q 175 22 222 -14 q 110 135 128 58 q 93 332 93 211 l 93 694 l 200 694 l 200 332 q 209 186 200 240 q 249 108 218 132 q 340 83 279 83 q 451 100 401 83 q 532 133 501 117 l 532 694 l 639 694 l 639 0 l 532 0 l 532 49 q 435 5 488 24 q 311 -14 383 -14 m 243 819 l 214 892 l 517 1029 l 553 936 l 243 819 z "},"ŭ":{"ha":739,"x_min":93,"x_max":639,"o":"m 311 -14 q 175 22 222 -14 q 110 135 128 58 q 93 332 93 211 l 93 694 l 200 694 l 200 332 q 209 186 200 240 q 249 108 218 132 q 340 83 279 83 q 451 100 401 83 q 532 133 501 117 l 532 694 l 639 694 l 639 0 l 532 0 l 532 49 q 435 5 488 24 q 311 -14 383 -14 m 363 814 q 254 840 300 814 q 183 911 208 867 q 156 1008 158 956 l 243 1008 q 277 925 246 957 q 363 893 308 893 q 449 926 418 893 q 482 1008 481 958 l 569 1008 q 542 911 567 956 q 472 840 517 867 q 363 814 426 814 z "},"û":{"ha":739,"x_min":93,"x_max":639,"o":"m 311 -14 q 175 22 222 -14 q 110 135 128 58 q 93 332 93 211 l 93 694 l 200 694 l 200 332 q 209 186 200 240 q 249 108 218 132 q 340 83 279 83 q 451 100 401 83 q 532 133 501 117 l 532 694 l 639 694 l 639 0 l 532 0 l 532 49 q 435 5 488 24 q 311 -14 383 -14 m 144 821 l 315 1017 l 388 1017 l 561 821 l 454 821 l 353 940 l 253 821 l 144 821 z "},"ü":{"ha":739,"x_min":93,"x_max":639,"o":"m 311 -14 q 175 22 222 -14 q 110 135 128 58 q 93 332 93 211 l 93 694 l 200 694 l 200 332 q 209 186 200 240 q 249 108 218 132 q 340 83 279 83 q 451 100 401 83 q 532 133 501 117 l 532 694 l 639 694 l 639 0 l 532 0 l 532 49 q 435 5 488 24 q 311 -14 383 -14 m 492 861 l 492 989 l 596 989 l 596 861 l 492 861 m 213 861 l 213 989 l 317 989 l 317 861 l 213 861 z "},"ù":{"ha":739,"x_min":93,"x_max":639,"o":"m 311 -14 q 175 22 222 -14 q 110 135 128 58 q 93 332 93 211 l 93 694 l 200 694 l 200 332 q 209 186 200 240 q 249 108 218 132 q 340 83 279 83 q 451 100 401 83 q 532 133 501 117 l 532 694 l 639 694 l 639 0 l 532 0 l 532 49 q 435 5 488 24 q 311 -14 383 -14 m 467 819 l 157 936 l 194 1029 l 497 892 l 467 819 z "},"ű":{"ha":739,"x_min":93,"x_max":768,"o":"m 311 -14 q 175 22 222 -14 q 110 135 128 58 q 93 332 93 211 l 93 694 l 200 694 l 200 332 q 209 186 200 240 q 249 108 218 132 q 340 83 279 83 q 451 100 401 83 q 532 133 501 117 l 532 694 l 639 694 l 639 0 l 532 0 l 532 49 q 435 5 488 24 q 311 -14 383 -14 m 564 807 l 490 868 l 689 1064 l 768 1001 l 564 807 m 296 807 l 221 868 l 421 1063 l 500 1001 l 296 807 z "},"ū":{"ha":739,"x_min":93,"x_max":639,"o":"m 311 -14 q 175 22 222 -14 q 110 135 128 58 q 93 332 93 211 l 93 694 l 200 694 l 200 332 q 209 186 200 240 q 249 108 218 132 q 340 83 279 83 q 451 100 401 83 q 532 133 501 117 l 532 694 l 639 694 l 639 0 l 532 0 l 532 49 q 435 5 488 24 q 311 -14 383 -14 m 175 865 l 175 950 l 558 950 l 558 865 l 175 865 z "},"ẫ":{"ha":697,"x_min":56,"x_max":671,"o":"m 251 -14 q 106 40 156 -14 q 56 199 56 94 q 79 310 56 267 q 151 376 103 353 q 269 404 199 399 l 483 425 l 483 485 q 452 585 483 556 q 360 614 421 614 q 277 611 325 614 q 182 604 229 608 q 99 596 135 600 l 93 678 q 174 692 126 685 q 272 703 221 699 q 367 708 324 708 q 496 684 446 708 q 569 610 546 660 q 592 485 592 561 l 592 133 q 616 89 594 103 q 671 71 638 75 l 667 -14 q 611 -10 636 -14 q 564 0 586 -7 q 530 17 546 7 q 499 40 514 26 q 431 17 472 29 q 344 -5 390 4 q 251 -14 297 -14 m 269 76 q 347 83 307 76 q 424 100 388 90 q 483 118 460 110 l 483 344 l 282 325 q 192 289 219 319 q 165 201 165 258 q 192 110 165 143 q 269 76 218 76 m 119 779 l 290 975 l 363 975 l 536 779 l 429 779 l 328 899 l 228 779 l 119 779 m 415 1024 q 368 1033 394 1024 q 315 1056 342 1043 q 263 1078 288 1068 q 222 1088 239 1088 q 174 1069 204 1088 q 121 1033 143 1050 l 96 1101 q 155 1149 118 1125 q 222 1174 192 1174 q 271 1164 244 1174 q 324 1142 297 1154 q 375 1121 351 1131 q 414 1111 399 1111 q 460 1128 431 1111 q 511 1164 490 1146 l 536 1094 q 481 1048 515 1072 q 415 1024 447 1024 z "},"ễ":{"ha":703,"x_min":68,"x_max":640,"o":"m 150 779 l 321 975 l 393 975 l 567 779 l 460 779 l 358 899 l 258 779 l 150 779 m 449 1024 q 401 1033 428 1024 q 348 1056 375 1043 q 297 1078 321 1068 q 256 1088 272 1088 q 207 1069 238 1088 q 154 1033 176 1050 l 129 1101 q 188 1149 151 1125 q 256 1174 225 1174 q 304 1164 278 1174 q 358 1142 331 1154 q 408 1121 385 1131 q 447 1111 432 1111 q 494 1128 464 1111 q 544 1164 524 1146 l 569 1094 q 515 1048 549 1072 q 449 1024 481 1024 m 346 -14 q 181 26 242 -14 q 94 146 121 67 q 68 343 68 225 q 104 555 68 475 q 206 672 140 635 q 360 708 271 708 q 569 631 499 708 q 640 383 640 554 l 635 301 l 178 301 q 218 138 179 193 q 358 82 257 82 q 444 84 397 82 q 536 89 490 86 q 614 94 582 92 l 617 10 q 535 -1 583 4 q 438 -10 488 -7 q 346 -14 388 -14 m 178 389 l 532 389 q 491 567 532 517 q 360 618 450 618 q 225 565 272 618 q 178 389 178 513 z "},"ỗ":{"ha":735,"x_min":69,"x_max":665,"o":"m 367 -14 q 185 26 250 -14 q 95 149 121 67 q 69 356 69 231 q 98 553 69 475 q 192 669 126 631 q 367 708 257 708 q 543 669 478 708 q 637 553 608 631 q 665 356 665 475 q 640 149 665 231 q 549 26 614 67 q 367 -14 485 -14 m 367 79 q 488 108 447 79 q 541 197 528 136 q 554 356 554 258 q 538 508 554 451 q 481 590 521 565 q 367 615 440 615 q 253 590 294 615 q 196 508 213 565 q 179 356 179 451 q 192 197 179 258 q 246 108 206 136 q 367 79 286 79 m 151 779 l 322 975 l 394 975 l 568 779 l 461 779 l 360 899 l 260 779 l 151 779 m 442 1024 q 394 1033 421 1024 q 341 1056 368 1043 q 290 1078 314 1068 q 249 1088 265 1088 q 200 1069 231 1088 q 147 1033 169 1050 l 122 1101 q 181 1149 144 1125 q 249 1174 218 1174 q 297 1164 271 1174 q 351 1142 324 1154 q 401 1121 378 1131 q 440 1111 425 1111 q 487 1128 457 1111 q 538 1164 517 1146 l 563 1094 q 508 1048 542 1072 q 442 1024 474 1024 z "},"ỹ":{"ha":672,"x_min":35,"x_max":639,"o":"m 429 849 q 382 858 408 849 q 328 881 356 868 q 277 903 301 893 q 236 913 253 913 q 188 894 218 913 q 135 858 157 875 l 110 926 q 169 974 132 950 q 236 999 206 999 q 285 989 258 999 q 338 967 311 979 q 389 946 365 956 q 428 936 413 936 q 474 953 444 936 q 525 989 504 971 l 550 919 q 495 873 529 897 q 429 849 461 849 m 244 -307 l 335 0 l 231 0 l 35 694 l 143 694 l 313 93 l 360 93 l 531 694 l 639 694 l 353 -307 l 244 -307 z "},"ų":{"ha":739,"x_min":93,"x_max":669,"o":"m 561 -287 q 488 -270 518 -287 q 444 -226 458 -253 q 429 -171 429 -200 q 447 -104 429 -137 q 490 -41 464 -71 q 543 11 517 -11 l 631 0 q 579 -53 601 -26 q 544 -103 557 -79 q 532 -149 532 -128 q 547 -185 532 -171 q 589 -200 561 -200 q 622 -197 601 -200 q 656 -192 642 -193 l 669 -275 q 613 -283 643 -279 q 561 -287 582 -287 m 311 -14 q 175 22 222 -14 q 110 135 128 58 q 93 332 93 211 l 93 694 l 200 694 l 200 332 q 209 186 200 240 q 249 108 218 132 q 340 83 279 83 q 451 100 401 83 q 532 133 501 117 l 532 694 l 639 694 l 639 0 l 532 0 l 532 49 q 435 5 488 24 q 311 -14 383 -14 z "},"ů":{"ha":739,"x_min":93,"x_max":639,"o":"m 311 -14 q 175 22 222 -14 q 110 135 128 58 q 93 332 93 211 l 93 694 l 200 694 l 200 332 q 209 186 200 240 q 249 108 218 132 q 340 83 279 83 q 451 100 401 83 q 532 133 501 117 l 532 694 l 639 694 l 639 0 l 532 0 l 532 49 q 435 5 488 24 q 311 -14 383 -14 m 369 750 q 265 792 307 750 q 224 896 224 833 q 265 999 224 957 q 369 1040 307 1040 q 472 999 431 1040 q 514 896 514 957 q 472 792 514 833 q 369 750 431 750 m 369 818 q 423 840 401 818 q 444 896 444 863 q 423 950 444 928 q 369 972 401 972 q 315 950 338 972 q 293 896 293 928 q 315 840 293 863 q 369 818 338 818 z "},"ũ":{"ha":739,"x_min":93,"x_max":639,"o":"m 311 -14 q 175 22 222 -14 q 110 135 128 58 q 93 332 93 211 l 93 694 l 200 694 l 200 332 q 209 186 200 240 q 249 108 218 132 q 340 83 279 83 q 451 100 401 83 q 532 133 501 117 l 532 694 l 639 694 l 639 0 l 532 0 l 532 49 q 435 5 488 24 q 311 -14 383 -14 m 467 849 q 419 858 446 849 q 366 881 393 868 q 315 903 339 893 q 274 913 290 913 q 225 894 256 913 q 172 858 194 875 l 147 926 q 206 974 169 950 q 274 999 243 999 q 322 989 296 999 q 376 967 349 979 q 426 946 403 956 q 465 936 450 936 q 512 953 482 936 q 563 989 542 971 l 588 919 q 533 873 567 897 q 467 849 499 849 z "},"v":{"ha":669,"x_min":33,"x_max":636,"o":"m 228 0 l 33 694 l 150 694 l 308 93 l 361 93 l 525 694 l 636 694 l 442 0 l 228 0 z "},"w":{"ha":1060,"x_min":43,"x_max":1017,"o":"m 207 0 l 43 694 l 151 694 l 288 93 l 311 93 l 474 681 l 586 681 l 749 93 l 772 93 l 908 694 l 1017 694 l 853 0 l 674 0 l 529 538 l 386 0 l 207 0 z "},"ẃ":{"ha":1060,"x_min":43,"x_max":1017,"o":"m 207 0 l 43 694 l 151 694 l 288 93 l 311 93 l 474 681 l 586 681 l 749 93 l 772 93 l 908 694 l 1017 694 l 853 0 l 674 0 l 529 538 l 386 0 l 207 0 m 413 819 l 383 892 l 686 1029 l 722 936 l 413 819 z "},"ŵ":{"ha":1060,"x_min":43,"x_max":1017,"o":"m 207 0 l 43 694 l 151 694 l 288 93 l 311 93 l 474 681 l 586 681 l 749 93 l 772 93 l 908 694 l 1017 694 l 853 0 l 674 0 l 529 538 l 386 0 l 207 0 m 324 821 l 494 1017 l 567 1017 l 740 821 l 633 821 l 532 940 l 432 821 l 324 821 z "},"ẅ":{"ha":1060,"x_min":43,"x_max":1017,"o":"m 207 0 l 43 694 l 151 694 l 288 93 l 311 93 l 474 681 l 586 681 l 749 93 l 772 93 l 908 694 l 1017 694 l 853 0 l 674 0 l 529 538 l 386 0 l 207 0 m 650 861 l 650 989 l 754 989 l 754 861 l 650 861 m 371 861 l 371 989 l 475 989 l 475 861 l 371 861 z "},"ẁ":{"ha":1060,"x_min":43,"x_max":1017,"o":"m 207 0 l 43 694 l 151 694 l 288 93 l 311 93 l 474 681 l 586 681 l 749 93 l 772 93 l 908 694 l 1017 694 l 853 0 l 674 0 l 529 538 l 386 0 l 207 0 m 640 819 l 331 936 l 368 1029 l 671 892 l 640 819 z "},"x":{"ha":629,"x_min":31,"x_max":599,"o":"m 31 0 l 246 347 l 31 694 l 149 694 l 314 425 l 481 694 l 599 694 l 381 350 l 599 0 l 481 0 l 314 268 l 149 0 l 31 0 z "},"y":{"ha":672,"x_min":35,"x_max":639,"o":"m 244 -307 l 335 0 l 231 0 l 35 694 l 143 694 l 313 93 l 360 93 l 531 694 l 639 694 l 353 -307 l 244 -307 z "},"ý":{"ha":672,"x_min":35,"x_max":639,"o":"m 244 -307 l 335 0 l 231 0 l 35 694 l 143 694 l 313 93 l 360 93 l 531 694 l 639 694 l 353 -307 l 244 -307 m 240 819 l 211 892 l 514 1029 l 550 936 l 240 819 z "},"ŷ":{"ha":672,"x_min":35,"x_max":639,"o":"m 244 -307 l 335 0 l 231 0 l 35 694 l 143 694 l 313 93 l 360 93 l 531 694 l 639 694 l 353 -307 l 244 -307 m 132 821 l 303 1017 l 375 1017 l 549 821 l 442 821 l 340 940 l 240 821 l 132 821 z "},"ÿ":{"ha":672,"x_min":35,"x_max":639,"o":"m 244 -307 l 335 0 l 231 0 l 35 694 l 143 694 l 313 93 l 360 93 l 531 694 l 639 694 l 353 -307 l 244 -307 m 454 861 l 454 989 l 558 989 l 558 861 l 454 861 m 175 861 l 175 989 l 279 989 l 279 861 l 175 861 z "},"ỳ":{"ha":672,"x_min":35,"x_max":639,"o":"m 244 -307 l 335 0 l 231 0 l 35 694 l 143 694 l 313 93 l 360 93 l 531 694 l 639 694 l 353 -307 l 244 -307 m 453 819 l 143 936 l 181 1029 l 483 892 l 453 819 z "},"z":{"ha":632,"x_min":58,"x_max":574,"o":"m 58 0 l 58 97 l 442 597 l 58 597 l 58 694 l 574 694 l 574 597 l 190 97 l 574 97 l 574 0 l 58 0 z "},"ź":{"ha":632,"x_min":58,"x_max":574,"o":"m 58 0 l 58 97 l 442 597 l 58 597 l 58 694 l 574 694 l 574 597 l 190 97 l 574 97 l 574 0 l 58 0 m 185 819 l 156 892 l 458 1029 l 494 936 l 185 819 z "},"ž":{"ha":632,"x_min":58,"x_max":574,"o":"m 58 0 l 58 97 l 442 597 l 58 597 l 58 694 l 574 694 l 574 597 l 190 97 l 574 97 l 574 0 l 58 0 m 283 821 l 113 1017 l 219 1017 l 321 897 l 422 1017 l 529 1017 l 356 821 l 283 821 z "},"ż":{"ha":632,"x_min":58,"x_max":574,"o":"m 58 0 l 58 97 l 442 597 l 58 597 l 58 694 l 574 694 l 574 597 l 190 97 l 574 97 l 574 0 l 58 0 m 261 843 l 261 967 l 369 967 l 369 843 l 261 843 z "},"ª":{"ha":539,"x_min":74,"x_max":464,"o":"m 457 492 q 394 501 421 494 q 352 522 368 508 q 331 561 336 536 l 331 781 q 315 824 331 813 q 263 835 299 836 q 188 831 236 835 q 104 825 140 828 l 99 893 q 184 909 138 903 q 271 915 231 915 q 386 885 349 915 q 424 776 424 854 l 424 586 q 442 572 431 576 q 464 564 453 567 l 457 492 m 192 493 q 106 528 139 493 q 74 621 74 564 q 210 743 74 735 l 357 751 l 358 686 l 224 676 q 181 663 193 675 q 168 624 168 651 q 217 569 168 569 q 292 580 251 569 q 363 601 333 590 l 364 544 q 285 508 332 522 q 192 493 238 493 z "},"º":{"ha":531,"x_min":74,"x_max":457,"o":"m 267 493 q 122 545 171 493 q 74 707 74 597 q 122 865 74 815 q 267 915 171 915 q 409 865 361 915 q 457 707 457 815 q 409 545 457 597 q 267 493 361 493 m 267 581 q 338 610 318 581 q 357 706 357 640 q 338 800 357 772 q 267 828 318 828 q 194 800 215 828 q 172 706 172 772 q 194 610 172 640 q 267 581 215 581 z "},"π":{"ha":778,"x_min":31,"x_max":736,"o":"m 724 -6 q 580 13 629 -6 q 513 78 531 31 q 496 214 496 125 l 496 625 l 604 626 l 604 214 q 614 135 604 163 q 650 98 624 108 q 724 88 676 88 l 724 -6 m 136 0 l 181 621 l 285 621 l 246 0 l 136 0 m 31 583 l 31 674 q 79 683 49 679 q 149 691 110 688 q 229 694 188 694 l 556 694 q 628 698 593 694 q 691 706 663 701 q 736 714 719 710 l 736 624 q 660 607 715 614 q 522 606 604 600 l 504 601 l 240 601 l 208 593 q 116 597 168 603 q 31 583 64 592 z "},"ء":{"ha":756,"x_min":56,"x_max":699,"o":"m 232 19 q 149 144 176 82 q 122 278 122 207 q 147 406 122 347 q 217 506 172 464 q 320 572 261 549 q 447 596 379 596 q 547 582 499 596 q 633 543 594 568 l 574 461 q 449 497 518 497 q 335 469 385 497 q 258 391 286 440 q 229 278 229 342 q 249 180 229 226 q 313 85 269 133 l 232 19 m 56 0 l 56 99 l 699 99 l 699 0 l 56 0 z "},"ا":{"ha":374,"x_min":133,"x_max":240,"o":"m 133 0 l 133 996 l 240 996 l 240 0 l 133 0 z "},"ﺎ":{"ha":410,"x_min":133,"x_max":438,"o":"m 240 0 l 240 99 l 410 99 l 410 0 l 240 0 m 133 0 l 133 996 l 240 996 l 240 0 l 133 0 m 410 0 l 410 99 q 433 85 428 99 q 438 50 438 72 q 433 14 438 28 q 410 0 428 0 z "},"أ":{"ha":374,"x_min":50,"x_max":324,"o":"m 133 0 l 133 996 l 240 996 l 240 0 l 133 0 m 122 1088 q 88 1142 100 1115 q 76 1197 76 1168 q 97 1269 76 1238 q 150 1319 117 1301 q 222 1338 183 1338 q 267 1331 244 1338 q 306 1314 289 1325 l 269 1251 q 248 1260 258 1258 q 226 1263 238 1263 q 176 1244 194 1263 q 157 1197 157 1226 q 165 1163 157 1179 q 188 1126 172 1146 l 122 1088 m 50 1088 l 50 1161 l 324 1161 l 324 1088 l 50 1088 z "},"ﺄ":{"ha":410,"x_min":50,"x_max":438,"o":"m 240 0 l 240 99 l 410 99 l 410 0 l 240 0 m 133 0 l 133 996 l 240 996 l 240 0 l 133 0 m 410 0 l 410 99 q 433 85 428 99 q 438 50 438 72 q 433 14 438 28 q 410 0 428 0 m 122 1088 q 88 1142 100 1115 q 76 1197 76 1168 q 97 1269 76 1238 q 150 1319 117 1301 q 222 1338 183 1338 q 267 1331 244 1338 q 306 1314 289 1325 l 269 1251 q 248 1260 258 1258 q 226 1263 238 1263 q 176 1244 194 1263 q 157 1197 157 1226 q 165 1163 157 1179 q 188 1126 172 1146 l 122 1088 m 50 1088 l 50 1161 l 324 1161 l 324 1088 l 50 1088 z "},"إ":{"ha":374,"x_min":50,"x_max":324,"o":"m 133 0 l 133 996 l 240 996 l 240 0 l 133 0 m 122 -374 q 88 -319 100 -346 q 76 -264 76 -293 q 97 -192 76 -224 q 150 -142 117 -160 q 222 -124 183 -124 q 267 -130 244 -124 q 306 -147 289 -136 l 269 -210 q 248 -201 258 -203 q 226 -199 238 -199 q 176 -217 194 -199 q 157 -264 157 -235 q 165 -299 157 -282 q 188 -335 172 -315 l 122 -374 m 50 -374 l 50 -300 l 324 -300 l 324 -374 l 50 -374 z "},"ﺈ":{"ha":410,"x_min":50,"x_max":438,"o":"m 240 0 l 240 99 l 410 99 l 410 0 l 240 0 m 133 0 l 133 996 l 240 996 l 240 0 l 133 0 m 410 0 l 410 99 q 433 85 428 99 q 438 50 438 72 q 433 14 438 28 q 410 0 428 0 m 122 -374 q 88 -319 100 -346 q 76 -264 76 -293 q 97 -192 76 -224 q 150 -142 117 -160 q 222 -124 183 -124 q 267 -130 244 -124 q 306 -147 289 -136 l 269 -210 q 248 -201 258 -203 q 226 -199 238 -199 q 176 -217 194 -199 q 157 -264 157 -235 q 165 -299 157 -282 q 188 -335 172 -315 l 122 -374 m 50 -374 l 50 -300 l 324 -300 l 324 -374 l 50 -374 z "},"آ":{"ha":374,"x_min":15,"x_max":349,"o":"m 133 0 l 133 996 l 240 996 l 240 0 l 133 0 m 58 1085 l 15 1121 l 76 1204 l 147 1204 q 185 1179 161 1188 q 231 1171 208 1171 q 276 1178 254 1171 q 311 1201 297 1186 l 349 1169 q 317 1129 336 1147 q 272 1101 297 1111 q 215 1090 247 1090 q 156 1101 185 1090 q 106 1132 126 1111 l 58 1085 z "},"ﺂ":{"ha":410,"x_min":15,"x_max":438,"o":"m 240 0 l 240 99 l 410 99 l 410 0 l 240 0 m 133 0 l 133 996 l 240 996 l 240 0 l 133 0 m 410 0 l 410 99 q 433 85 428 99 q 438 50 438 72 q 433 14 438 28 q 410 0 428 0 m 58 1085 l 15 1121 l 76 1204 l 147 1204 q 185 1179 161 1188 q 231 1171 208 1171 q 276 1178 254 1171 q 311 1201 297 1186 l 349 1169 q 317 1129 336 1147 q 272 1101 297 1111 q 215 1090 247 1090 q 156 1101 185 1090 q 106 1132 126 1111 l 58 1085 z "},"ٱ":{"ha":374,"x_min":22,"x_max":351,"o":"m 133 0 l 133 996 l 240 996 l 240 0 l 133 0 m 63 1158 q 82 1230 63 1199 q 135 1278 101 1261 q 207 1296 168 1296 q 280 1278 247 1296 q 332 1230 313 1261 q 351 1158 351 1199 l 276 1158 q 257 1206 276 1186 q 207 1225 238 1225 q 158 1206 178 1225 q 138 1158 138 1186 l 63 1158 m 22 1088 l 22 1158 l 351 1158 l 351 1088 l 22 1088 z "},"ﭑ":{"ha":410,"x_min":22,"x_max":438,"o":"m 240 0 l 240 99 l 410 99 l 410 0 l 240 0 m 133 0 l 133 996 l 240 996 l 240 0 l 133 0 m 410 0 l 410 99 q 433 85 428 99 q 438 50 438 72 q 433 14 438 28 q 410 0 428 0 m 63 1158 q 82 1230 63 1199 q 135 1278 101 1261 q 207 1296 168 1296 q 280 1278 247 1296 q 332 1230 313 1261 q 351 1158 351 1199 l 276 1158 q 257 1206 276 1186 q 207 1225 238 1225 q 158 1206 178 1225 q 138 1158 138 1186 l 63 1158 m 22 1088 l 22 1158 l 351 1158 l 351 1088 l 22 1088 z "},"ٮ":{"ha":1097,"x_min":56,"x_max":985,"o":"m 468 0 q 158 72 261 0 q 56 296 56 144 q 60 368 56 329 q 72 444 65 407 q 85 508 79 481 q 92 544 90 535 l 197 525 q 185 464 193 503 q 171 381 178 425 q 164 296 164 336 q 193 183 164 226 q 289 119 222 139 q 468 99 356 99 l 876 99 l 876 694 l 985 694 l 985 0 l 468 0 z "},"ب":{"ha":1097,"x_min":56,"x_max":985,"o":"m 468 0 q 158 72 261 0 q 56 296 56 144 q 60 368 56 329 q 72 444 65 407 q 85 508 79 481 q 92 544 90 535 l 197 525 q 185 464 193 503 q 171 381 178 425 q 164 296 164 336 q 193 183 164 226 q 289 119 222 139 q 468 99 356 99 l 876 99 l 876 694 l 985 694 l 985 0 l 468 0 m 467 -250 l 467 -125 l 575 -125 l 575 -250 l 467 -250 z "},"ﺐ":{"ha":1135,"x_min":56,"x_max":1163,"o":"m 985 0 l 985 99 l 1135 99 l 1135 0 l 985 0 m 468 0 q 158 72 261 0 q 56 296 56 144 q 60 368 56 329 q 72 444 65 407 q 85 508 79 481 q 92 544 90 535 l 197 525 q 185 464 193 503 q 171 381 178 425 q 164 296 164 336 q 193 183 164 226 q 289 119 222 139 q 468 99 356 99 l 876 99 l 876 694 l 985 694 l 985 0 l 468 0 m 1135 0 l 1135 99 q 1158 85 1153 99 q 1163 50 1163 72 q 1158 14 1163 28 q 1135 0 1153 0 m 467 -250 l 467 -125 l 575 -125 l 575 -250 l 467 -250 z "},"ﺒ":{"ha":408,"x_min":-28,"x_max":436,"o":"m 258 0 l 258 99 l 408 99 l 408 0 l 258 0 m 0 0 l 0 99 l 200 99 l 150 58 l 150 694 l 258 694 l 258 0 l 0 0 m 0 0 q -23 14 -18 0 q -28 50 -28 28 q -23 85 -28 72 q 0 99 -18 99 l 0 0 m 408 0 l 408 99 q 431 85 426 99 q 436 50 436 72 q 431 14 436 28 q 408 0 426 0 m 150 -250 l 150 -125 l 258 -125 l 258 -250 l 150 -250 z "},"ﺑ":{"ha":371,"x_min":-28,"x_max":258,"o":"m 0 0 l 0 99 l 200 99 l 150 58 l 150 694 l 258 694 l 258 0 l 0 0 m 0 0 q -23 14 -18 0 q -28 50 -28 28 q -23 85 -28 72 q 0 99 -18 99 l 0 0 m 150 -250 l 150 -125 l 258 -125 l 258 -250 l 150 -250 z "},"پ":{"ha":1097,"x_min":56,"x_max":985,"o":"m 471 -307 l 571 -307 l 571 -425 l 471 -425 l 471 -307 m 371 -124 l 479 -124 l 479 -249 l 371 -249 l 371 -124 m 561 -124 l 669 -124 l 669 -249 l 561 -249 l 561 -124 m 468 0 q 158 72 261 0 q 56 296 56 144 q 60 368 56 329 q 72 444 65 407 q 85 508 79 481 q 92 544 90 535 l 197 525 q 185 464 193 503 q 171 381 178 425 q 164 296 164 336 q 193 183 164 226 q 289 119 222 139 q 468 99 356 99 l 876 99 l 876 694 l 985 694 l 985 0 l 468 0 z "},"ﭗ":{"ha":1135,"x_min":56,"x_max":1163,"o":"m 471 -307 l 571 -307 l 571 -425 l 471 -425 l 471 -307 m 371 -124 l 479 -124 l 479 -249 l 371 -249 l 371 -124 m 561 -124 l 669 -124 l 669 -249 l 561 -249 l 561 -124 m 985 0 l 985 99 l 1135 99 l 1135 0 l 985 0 m 468 0 q 158 72 261 0 q 56 296 56 144 q 60 368 56 329 q 72 444 65 407 q 85 508 79 481 q 92 544 90 535 l 197 525 q 185 464 193 503 q 171 381 178 425 q 164 296 164 336 q 193 183 164 226 q 289 119 222 139 q 468 99 356 99 l 876 99 l 876 694 l 985 694 l 985 0 l 468 0 m 1135 0 l 1135 99 q 1158 85 1153 99 q 1163 50 1163 72 q 1158 14 1163 28 q 1135 0 1153 0 z "},"ﭙ":{"ha":408,"x_min":-28,"x_max":436,"o":"m 156 -265 l 256 -265 l 256 -383 l 156 -383 l 156 -265 m 56 -82 l 164 -82 l 164 -207 l 56 -207 l 56 -82 m 246 -82 l 354 -82 l 354 -207 l 246 -207 l 246 -82 m 258 0 l 258 99 l 408 99 l 408 0 l 258 0 m 408 0 l 408 99 q 431 85 426 99 q 436 50 436 72 q 431 14 436 28 q 408 0 426 0 m 0 0 l 0 99 l 200 99 l 150 58 l 150 694 l 258 694 l 258 0 l 0 0 m 0 0 q -23 14 -18 0 q -28 50 -28 28 q -23 85 -28 72 q 0 99 -18 99 l 0 0 z "},"ﭘ":{"ha":371,"x_min":-28,"x_max":353,"o":"m 154 -307 l 254 -307 l 254 -425 l 154 -425 l 154 -307 m 54 -124 l 163 -124 l 163 -249 l 54 -249 l 54 -124 m 244 -124 l 353 -124 l 353 -249 l 244 -249 l 244 -124 m 0 0 l 0 99 l 200 99 l 150 58 l 150 694 l 258 694 l 258 0 l 0 0 m 0 0 q -23 14 -18 0 q -28 50 -28 28 q -23 85 -28 72 q 0 99 -18 99 l 0 0 z "},"ﯩ":{"ha":408,"x_min":-28,"x_max":436,"o":"m 258 0 l 258 99 l 408 99 l 408 0 l 258 0 m 0 0 l 0 99 l 200 99 l 150 58 l 150 694 l 258 694 l 258 0 l 0 0 m 0 0 q -23 14 -18 0 q -28 50 -28 28 q -23 85 -28 72 q 0 99 -18 99 l 0 0 m 408 0 l 408 99 q 431 85 426 99 q 436 50 436 72 q 431 14 436 28 q 408 0 426 0 z "},"ﯨ":{"ha":371,"x_min":-28,"x_max":258,"o":"m 0 0 l 0 99 l 200 99 l 150 58 l 150 694 l 258 694 l 258 0 l 0 0 m 0 0 q -23 14 -18 0 q -28 50 -28 28 q -23 85 -28 72 q 0 99 -18 99 l 0 0 z "},"ت":{"ha":1097,"x_min":56,"x_max":985,"o":"m 468 0 q 158 72 261 0 q 56 296 56 144 q 60 368 56 329 q 72 444 65 407 q 85 508 79 481 q 92 544 90 535 l 197 525 q 185 464 193 503 q 171 381 178 425 q 164 296 164 336 q 193 183 164 226 q 289 119 222 139 q 468 99 356 99 l 876 99 l 876 694 l 985 694 l 985 0 l 468 0 m 372 685 l 372 810 l 481 810 l 481 685 l 372 685 m 563 685 l 563 810 l 671 810 l 671 685 l 563 685 z "},"ﺖ":{"ha":1135,"x_min":56,"x_max":1163,"o":"m 985 0 l 985 99 l 1135 99 l 1135 0 l 985 0 m 468 0 q 158 72 261 0 q 56 296 56 144 q 60 368 56 329 q 72 444 65 407 q 85 508 79 481 q 92 544 90 535 l 197 525 q 185 464 193 503 q 171 381 178 425 q 164 296 164 336 q 193 183 164 226 q 289 119 222 139 q 468 99 356 99 l 876 99 l 876 694 l 985 694 l 985 0 l 468 0 m 1135 0 l 1135 99 q 1158 85 1153 99 q 1163 50 1163 72 q 1158 14 1163 28 q 1135 0 1153 0 m 372 685 l 372 810 l 481 810 l 481 685 l 372 685 m 563 685 l 563 810 l 671 810 l 671 685 l 563 685 z "},"ﺘ":{"ha":408,"x_min":-28,"x_max":436,"o":"m 258 0 l 258 99 l 408 99 l 408 0 l 258 0 m 408 0 l 408 99 q 431 85 426 99 q 436 50 436 72 q 431 14 436 28 q 408 0 426 0 m 0 0 l 0 99 l 200 99 l 150 58 l 150 694 l 258 694 l 258 0 l 0 0 m 0 0 q -23 14 -18 0 q -28 50 -28 28 q -23 85 -28 72 q 0 99 -18 99 l 0 0 m 56 819 l 56 944 l 164 944 l 164 819 l 56 819 m 246 819 l 246 944 l 354 944 l 354 819 l 246 819 z "},"ﺗ":{"ha":371,"x_min":-28,"x_max":354,"o":"m 0 0 l 0 99 l 200 99 l 150 58 l 150 694 l 258 694 l 258 0 l 0 0 m 0 0 q -23 14 -18 0 q -28 50 -28 28 q -23 85 -28 72 q 0 99 -18 99 l 0 0 m 56 819 l 56 944 l 164 944 l 164 819 l 56 819 m 246 819 l 246 944 l 354 944 l 354 819 l 246 819 z "},"ث":{"ha":1097,"x_min":56,"x_max":985,"o":"m 468 0 q 158 72 261 0 q 56 296 56 144 q 60 368 56 329 q 72 444 65 407 q 85 508 79 481 q 92 544 90 535 l 197 525 q 185 464 193 503 q 171 381 178 425 q 164 296 164 336 q 193 183 164 226 q 289 119 222 139 q 468 99 356 99 l 876 99 l 876 694 l 985 694 l 985 0 l 468 0 m 471 868 l 471 986 l 571 986 l 571 868 l 471 868 m 371 685 l 371 810 l 479 810 l 479 685 l 371 685 m 561 685 l 561 810 l 669 810 l 669 685 l 561 685 z "},"ﺚ":{"ha":1135,"x_min":56,"x_max":1163,"o":"m 985 0 l 985 99 l 1135 99 l 1135 0 l 985 0 m 468 0 q 158 72 261 0 q 56 296 56 144 q 60 368 56 329 q 72 444 65 407 q 85 508 79 481 q 92 544 90 535 l 197 525 q 185 464 193 503 q 171 381 178 425 q 164 296 164 336 q 193 183 164 226 q 289 119 222 139 q 468 99 356 99 l 876 99 l 876 694 l 985 694 l 985 0 l 468 0 m 1135 0 l 1135 99 q 1158 85 1153 99 q 1163 50 1163 72 q 1158 14 1163 28 q 1135 0 1153 0 m 471 868 l 471 986 l 571 986 l 571 868 l 471 868 m 371 685 l 371 810 l 479 810 l 479 685 l 371 685 m 561 685 l 561 810 l 669 810 l 669 685 l 561 685 z "},"ﺜ":{"ha":408,"x_min":-28,"x_max":436,"o":"m 258 0 l 258 99 l 408 99 l 408 0 l 258 0 m 408 0 l 408 99 q 431 85 426 99 q 436 50 436 72 q 431 14 436 28 q 408 0 426 0 m 0 0 l 0 99 l 200 99 l 150 58 l 150 694 l 258 694 l 258 0 l 0 0 m 0 0 q -23 14 -18 0 q -28 50 -28 28 q -23 85 -28 72 q 0 99 -18 99 l 0 0 m 154 1003 l 154 1121 l 254 1121 l 254 1003 l 154 1003 m 54 819 l 54 944 l 163 944 l 163 819 l 54 819 m 244 819 l 244 944 l 353 944 l 353 819 l 244 819 z "},"ﺛ":{"ha":371,"x_min":-28,"x_max":353,"o":"m 0 0 l 0 99 l 200 99 l 150 58 l 150 694 l 258 694 l 258 0 l 0 0 m 0 0 q -23 14 -18 0 q -28 50 -28 28 q -23 85 -28 72 q 0 99 -18 99 l 0 0 m 154 1003 l 154 1121 l 254 1121 l 254 1003 l 154 1003 m 54 819 l 54 944 l 163 944 l 163 819 l 54 819 m 244 819 l 244 944 l 353 944 l 353 819 l 244 819 z "},"ٹ":{"ha":1097,"x_min":56,"x_max":985,"o":"m 468 0 q 158 72 261 0 q 56 296 56 144 q 60 368 56 329 q 72 444 65 407 q 85 508 79 481 q 92 544 90 535 l 197 525 q 185 464 193 503 q 171 381 178 425 q 164 296 164 336 q 193 183 164 226 q 289 119 222 139 q 468 99 356 99 l 876 99 l 876 694 l 985 694 l 985 0 l 468 0 m 396 756 q 415 826 396 796 q 468 875 435 857 q 540 893 501 893 q 613 875 581 893 q 665 826 646 857 q 685 756 685 796 l 610 756 q 590 803 610 783 q 540 822 571 822 q 484 803 511 822 q 457 756 457 783 l 396 756 m 356 685 l 356 756 l 685 756 l 685 685 l 356 685 m 396 756 l 396 949 l 471 949 l 471 756 l 396 756 z "},"ﭧ":{"ha":1135,"x_min":56,"x_max":1163,"o":"m 985 0 l 985 99 l 1135 99 l 1135 0 l 985 0 m 468 0 q 158 72 261 0 q 56 296 56 144 q 60 368 56 329 q 72 444 65 407 q 85 508 79 481 q 92 544 90 535 l 197 525 q 185 464 193 503 q 171 381 178 425 q 164 296 164 336 q 193 183 164 226 q 289 119 222 139 q 468 99 356 99 l 876 99 l 876 694 l 985 694 l 985 0 l 468 0 m 1135 0 l 1135 99 q 1158 85 1153 99 q 1163 50 1163 72 q 1158 14 1163 28 q 1135 0 1153 0 m 396 756 q 415 826 396 796 q 468 875 435 857 q 540 893 501 893 q 613 875 581 893 q 665 826 646 857 q 685 756 685 796 l 610 756 q 590 803 610 783 q 540 822 571 822 q 484 803 511 822 q 457 756 457 783 l 396 756 m 356 685 l 356 756 l 685 756 l 685 685 l 356 685 m 396 756 l 396 949 l 471 949 l 471 756 l 396 756 z "},"ﭩ":{"ha":408,"x_min":-28,"x_max":436,"o":"m 258 0 l 258 99 l 408 99 l 408 0 l 258 0 m 0 0 l 0 99 l 200 99 l 150 58 l 150 694 l 258 694 l 258 0 l 0 0 m 0 0 q -23 14 -18 0 q -28 50 -28 28 q -23 85 -28 72 q 0 99 -18 99 l 0 0 m 408 0 l 408 99 q 431 85 426 99 q 436 50 436 72 q 431 14 436 28 q 408 0 426 0 m 79 890 q 99 961 79 931 q 151 1010 118 992 q 224 1028 185 1028 q 297 1010 264 1028 q 349 961 329 992 q 368 890 368 931 l 293 890 q 274 938 293 918 q 224 957 254 957 q 167 938 194 957 q 140 890 140 918 l 79 890 m 39 819 l 39 890 l 368 890 l 368 819 l 39 819 m 79 890 l 79 1083 l 154 1083 l 154 890 l 79 890 z "},"ﭨ":{"ha":371,"x_min":-28,"x_max":368,"o":"m 0 0 l 0 99 l 200 99 l 150 58 l 150 694 l 258 694 l 258 0 l 0 0 m 0 0 q -23 14 -18 0 q -28 50 -28 28 q -23 85 -28 72 q 0 99 -18 99 l 0 0 m 79 890 q 99 961 79 931 q 151 1010 118 992 q 224 1028 185 1028 q 297 1010 264 1028 q 349 961 329 992 q 368 890 368 931 l 293 890 q 274 938 293 918 q 224 957 254 957 q 167 938 194 957 q 140 890 140 918 l 79 890 m 39 819 l 39 890 l 368 890 l 368 819 l 39 819 m 79 890 l 79 1083 l 154 1083 l 154 890 l 79 890 z "},"ج":{"ha":806,"x_min":56,"x_max":722,"o":"m 469 -232 l 469 -122 l 563 -122 l 563 -232 l 469 -232 m 385 -442 q 209 -410 283 -442 q 95 -318 135 -379 q 56 -171 56 -257 q 95 -24 56 -85 q 209 67 135 36 q 386 99 283 99 l 615 99 l 615 414 q 558 549 615 504 q 386 594 501 594 q 282 588 350 594 q 139 571 214 582 l 126 660 q 251 684 183 674 q 383 694 319 694 q 565 662 489 694 q 681 567 640 629 q 722 414 722 504 l 722 0 l 386 0 q 217 -44 271 0 q 164 -172 164 -87 q 217 -299 164 -256 q 385 -343 271 -343 q 442 -340 410 -343 q 522 -332 475 -337 l 540 -425 q 465 -437 506 -432 q 385 -442 425 -442 z "},"ﺞ":{"ha":872,"x_min":56,"x_max":900,"o":"m 469 -232 l 469 -122 l 563 -122 l 563 -232 l 469 -232 m 722 0 l 722 99 l 872 99 l 872 0 l 722 0 m 872 0 l 872 99 q 895 85 890 99 q 900 50 900 72 q 895 14 900 28 q 872 0 890 0 m 385 -442 q 209 -410 283 -442 q 95 -318 135 -379 q 56 -171 56 -257 q 95 -24 56 -85 q 209 67 135 36 q 386 99 283 99 l 615 99 l 615 414 q 558 549 615 504 q 386 594 501 594 q 282 588 350 594 q 139 571 214 582 l 126 660 q 251 684 183 674 q 383 694 319 694 q 565 662 489 694 q 681 567 640 629 q 722 414 722 504 l 722 0 l 386 0 q 217 -44 271 0 q 164 -172 164 -87 q 217 -299 164 -256 q 385 -343 271 -343 q 442 -340 410 -343 q 522 -332 475 -337 l 540 -425 q 465 -437 506 -432 q 385 -442 425 -442 z "},"ﺠ":{"ha":838,"x_min":-28,"x_max":865,"o":"m 688 0 l 688 99 l 838 99 l 838 0 l 688 0 m 0 0 l 0 99 l 613 99 l 579 69 l 579 414 q 523 549 579 504 q 351 594 467 594 q 247 588 315 594 q 104 571 179 582 l 92 660 q 217 684 149 674 q 349 694 285 694 q 530 662 454 694 q 647 567 606 629 q 688 414 688 504 l 688 0 l 0 0 m 0 0 q -23 14 -18 0 q -28 50 -28 28 q -23 85 -28 72 q 0 99 -18 99 l 0 0 m 838 0 l 838 99 q 860 85 856 99 q 865 50 865 72 q 860 14 865 28 q 838 0 856 0 m 294 -250 l 294 -125 l 403 -125 l 403 -250 l 294 -250 z "},"ﺟ":{"ha":771,"x_min":-28,"x_max":688,"o":"m 0 0 l 0 99 l 613 99 l 579 69 l 579 414 q 523 549 579 504 q 351 594 467 594 q 247 588 315 594 q 104 571 179 582 l 92 660 q 217 684 149 674 q 349 694 285 694 q 530 662 454 694 q 647 567 606 629 q 688 414 688 504 l 688 0 l 0 0 m 0 0 q -23 14 -18 0 q -28 50 -28 28 q -23 85 -28 72 q 0 99 -18 99 l 0 0 m 294 -250 l 294 -125 l 403 -125 l 403 -250 l 294 -250 z "},"چ":{"ha":806,"x_min":56,"x_max":722,"o":"m 458 -190 l 521 -190 l 521 -265 l 458 -265 l 458 -190 m 515 -75 l 583 -75 l 583 -154 l 515 -154 l 515 -75 m 394 -75 l 464 -75 l 464 -154 l 394 -154 l 394 -75 m 385 -442 q 209 -410 283 -442 q 95 -318 135 -379 q 56 -171 56 -257 q 95 -24 56 -85 q 209 67 135 36 q 386 99 283 99 l 615 99 l 615 414 q 558 549 615 504 q 386 594 501 594 q 282 588 350 594 q 139 571 214 582 l 126 660 q 251 684 183 674 q 383 694 319 694 q 565 662 489 694 q 681 567 640 629 q 722 414 722 504 l 722 0 l 386 0 q 217 -44 271 0 q 164 -172 164 -87 q 217 -299 164 -256 q 385 -343 271 -343 q 442 -340 410 -343 q 522 -332 475 -337 l 540 -425 q 465 -437 506 -432 q 385 -442 425 -442 z "},"ﭻ":{"ha":872,"x_min":56,"x_max":900,"o":"m 458 -190 l 521 -190 l 521 -265 l 458 -265 l 458 -190 m 515 -75 l 583 -75 l 583 -154 l 515 -154 l 515 -75 m 394 -75 l 464 -75 l 464 -154 l 394 -154 l 394 -75 m 722 0 l 722 99 l 872 99 l 872 0 l 722 0 m 872 0 l 872 99 q 895 85 890 99 q 900 50 900 72 q 895 14 900 28 q 872 0 890 0 m 385 -442 q 209 -410 283 -442 q 95 -318 135 -379 q 56 -171 56 -257 q 95 -24 56 -85 q 209 67 135 36 q 386 99 283 99 l 615 99 l 615 414 q 558 549 615 504 q 386 594 501 594 q 282 588 350 594 q 139 571 214 582 l 126 660 q 251 684 183 674 q 383 694 319 694 q 565 662 489 694 q 681 567 640 629 q 722 414 722 504 l 722 0 l 386 0 q 217 -44 271 0 q 164 -172 164 -87 q 217 -299 164 -256 q 385 -343 271 -343 q 442 -340 410 -343 q 522 -332 475 -337 l 540 -425 q 465 -437 506 -432 q 385 -442 425 -442 z "},"ﭽ":{"ha":838,"x_min":-28,"x_max":865,"o":"m 299 -307 l 399 -307 l 399 -425 l 299 -425 l 299 -307 m 199 -124 l 307 -124 l 307 -249 l 199 -249 l 199 -124 m 389 -124 l 497 -124 l 497 -249 l 389 -249 l 389 -124 m 688 0 l 688 99 l 838 99 l 838 0 l 688 0 m 0 0 l 0 99 l 613 99 l 579 69 l 579 414 q 523 549 579 504 q 351 594 467 594 q 247 588 315 594 q 104 571 179 582 l 92 660 q 217 684 149 674 q 349 694 285 694 q 530 662 454 694 q 647 567 606 629 q 688 414 688 504 l 688 0 l 0 0 m 0 0 q -23 14 -18 0 q -28 50 -28 28 q -23 85 -28 72 q 0 99 -18 99 l 0 0 m 838 0 l 838 99 q 860 85 856 99 q 865 50 865 72 q 860 14 865 28 q 838 0 856 0 z "},"ﭼ":{"ha":771,"x_min":-28,"x_max":688,"o":"m 299 -307 l 399 -307 l 399 -425 l 299 -425 l 299 -307 m 199 -124 l 307 -124 l 307 -249 l 199 -249 l 199 -124 m 389 -124 l 497 -124 l 497 -249 l 389 -249 l 389 -124 m 0 0 l 0 99 l 613 99 l 579 69 l 579 414 q 523 549 579 504 q 351 594 467 594 q 247 588 315 594 q 104 571 179 582 l 92 660 q 217 684 149 674 q 349 694 285 694 q 530 662 454 694 q 647 567 606 629 q 688 414 688 504 l 688 0 l 0 0 m 0 0 q -23 14 -18 0 q -28 50 -28 28 q -23 85 -28 72 q 0 99 -18 99 l 0 0 z "},"ح":{"ha":806,"x_min":56,"x_max":722,"o":"m 592 -325 l 608 -412 q 488 -434 543 -426 q 385 -442 433 -442 q 209 -410 283 -442 q 95 -318 135 -379 q 56 -171 56 -257 q 95 -24 56 -85 q 209 67 135 36 q 386 99 283 99 l 615 99 l 615 0 l 386 0 q 217 -44 271 0 q 164 -172 164 -87 q 217 -299 164 -256 q 385 -343 271 -343 q 469 -339 419 -343 q 592 -325 519 -335 m 139 571 l 126 660 q 251 684 183 674 q 383 694 319 694 q 565 662 489 694 q 681 567 640 629 q 722 414 722 504 l 722 0 l 615 0 l 615 414 q 558 549 615 504 q 386 594 501 594 q 282 588 350 594 q 139 571 214 582 z "},"ﺢ":{"ha":872,"x_min":56,"x_max":900,"o":"m 722 0 l 722 99 l 872 99 l 872 0 l 722 0 m 592 -325 l 608 -412 q 488 -434 543 -426 q 385 -442 433 -442 q 209 -410 283 -442 q 95 -318 135 -379 q 56 -171 56 -257 q 95 -24 56 -85 q 209 67 135 36 q 386 99 283 99 l 615 99 l 615 0 l 386 0 q 217 -44 271 0 q 164 -172 164 -87 q 217 -299 164 -256 q 385 -343 271 -343 q 469 -339 419 -343 q 592 -325 519 -335 m 139 571 l 126 660 q 251 684 183 674 q 383 694 319 694 q 565 662 489 694 q 681 567 640 629 q 722 414 722 504 l 722 0 l 615 0 l 615 414 q 558 549 615 504 q 386 594 501 594 q 282 588 350 594 q 139 571 214 582 m 872 0 l 872 99 q 895 85 890 99 q 900 50 900 72 q 895 14 900 28 q 872 0 890 0 z "},"ﺤ":{"ha":838,"x_min":-28,"x_max":865,"o":"m 688 0 l 688 99 l 838 99 l 838 0 l 688 0 m 0 0 l 0 99 l 613 99 l 579 69 l 579 414 q 523 549 579 504 q 351 594 467 594 q 247 588 315 594 q 104 571 179 582 l 92 660 q 217 684 149 674 q 349 694 285 694 q 530 662 454 694 q 647 567 606 629 q 688 414 688 504 l 688 0 l 0 0 m 0 0 q -23 14 -18 0 q -28 50 -28 28 q -23 85 -28 72 q 0 99 -18 99 l 0 0 m 838 0 l 838 99 q 860 85 856 99 q 865 50 865 72 q 860 14 865 28 q 838 0 856 0 z "},"ﺣ":{"ha":771,"x_min":-28,"x_max":688,"o":"m 0 0 l 0 99 l 613 99 l 579 69 l 579 414 q 523 549 579 504 q 351 594 467 594 q 247 588 315 594 q 104 571 179 582 l 92 660 q 217 684 149 674 q 349 694 285 694 q 530 662 454 694 q 647 567 606 629 q 688 414 688 504 l 688 0 l 0 0 m 0 0 q -23 14 -18 0 q -28 50 -28 28 q -23 85 -28 72 q 0 99 -18 99 l 0 0 z "},"خ":{"ha":806,"x_min":56,"x_max":722,"o":"m 592 -325 l 608 -412 q 488 -434 543 -426 q 385 -442 433 -442 q 209 -410 283 -442 q 95 -318 135 -379 q 56 -171 56 -257 q 95 -24 56 -85 q 209 67 135 36 q 386 99 283 99 l 615 99 l 615 0 l 386 0 q 217 -44 271 0 q 164 -172 164 -87 q 217 -299 164 -256 q 385 -343 271 -343 q 469 -339 419 -343 q 592 -325 519 -335 m 139 571 l 126 660 q 251 684 183 674 q 383 694 319 694 q 565 662 489 694 q 681 567 640 629 q 722 414 722 504 l 722 0 l 615 0 l 615 414 q 558 549 615 504 q 386 594 501 594 q 282 588 350 594 q 139 571 214 582 m 329 796 l 329 921 l 438 921 l 438 796 l 329 796 z "},"ﺦ":{"ha":872,"x_min":56,"x_max":900,"o":"m 722 0 l 722 99 l 872 99 l 872 0 l 722 0 m 592 -325 l 608 -412 q 488 -434 543 -426 q 385 -442 433 -442 q 209 -410 283 -442 q 95 -318 135 -379 q 56 -171 56 -257 q 95 -24 56 -85 q 209 67 135 36 q 386 99 283 99 l 615 99 l 615 0 l 386 0 q 217 -44 271 0 q 164 -172 164 -87 q 217 -299 164 -256 q 385 -343 271 -343 q 469 -339 419 -343 q 592 -325 519 -335 m 139 571 l 126 660 q 251 684 183 674 q 383 694 319 694 q 565 662 489 694 q 681 567 640 629 q 722 414 722 504 l 722 0 l 615 0 l 615 414 q 558 549 615 504 q 386 594 501 594 q 282 588 350 594 q 139 571 214 582 m 872 0 l 872 99 q 895 85 890 99 q 900 50 900 72 q 895 14 900 28 q 872 0 890 0 m 329 796 l 329 921 l 438 921 l 438 796 l 329 796 z "},"ﺨ":{"ha":838,"x_min":-28,"x_max":865,"o":"m 688 0 l 688 99 l 838 99 l 838 0 l 688 0 m 0 0 l 0 99 l 613 99 l 579 69 l 579 414 q 523 549 579 504 q 351 594 467 594 q 247 588 315 594 q 104 571 179 582 l 92 660 q 217 684 149 674 q 349 694 285 694 q 530 662 454 694 q 647 567 606 629 q 688 414 688 504 l 688 0 l 0 0 m 0 0 q -23 14 -18 0 q -28 50 -28 28 q -23 85 -28 72 q 0 99 -18 99 l 0 0 m 838 0 l 838 99 q 860 85 856 99 q 865 50 865 72 q 860 14 865 28 q 838 0 856 0 m 294 790 l 294 915 l 403 915 l 403 790 l 294 790 z "},"ﺧ":{"ha":771,"x_min":-28,"x_max":688,"o":"m 0 0 l 0 99 l 613 99 l 579 69 l 579 414 q 523 549 579 504 q 351 594 467 594 q 247 588 315 594 q 104 571 179 582 l 92 660 q 217 684 149 674 q 349 694 285 694 q 530 662 454 694 q 647 567 606 629 q 688 414 688 504 l 688 0 l 0 0 m 0 0 q -23 14 -18 0 q -28 50 -28 28 q -23 85 -28 72 q 0 99 -18 99 l 0 0 m 294 790 l 294 915 l 403 915 l 403 790 l 294 790 z "},"د":{"ha":671,"x_min":56,"x_max":593,"o":"m 56 0 l 56 99 l 574 99 l 485 19 l 485 322 q 461 485 485 425 q 384 570 438 544 q 240 596 331 596 l 128 596 l 128 694 l 240 694 q 431 660 351 694 q 551 544 510 625 q 593 322 593 463 l 593 0 l 56 0 z "},"ﺪ":{"ha":743,"x_min":56,"x_max":771,"o":"m 593 0 l 593 99 l 743 99 l 743 0 l 593 0 m 56 0 l 56 99 l 574 99 l 485 19 l 485 322 q 461 485 485 425 q 384 570 438 544 q 240 596 331 596 l 128 596 l 128 694 l 240 694 q 431 660 351 694 q 551 544 510 625 q 593 322 593 463 l 593 0 l 56 0 m 743 0 l 743 99 q 766 85 761 99 q 771 50 771 72 q 766 14 771 28 q 743 0 761 0 z "},"ذ":{"ha":671,"x_min":56,"x_max":593,"o":"m 56 0 l 56 99 l 574 99 l 485 19 l 485 322 q 461 485 485 425 q 384 570 438 544 q 240 596 331 596 l 128 596 l 128 694 l 240 694 q 431 660 351 694 q 551 544 510 625 q 593 322 593 463 l 593 0 l 56 0 m 161 819 l 161 944 l 269 944 l 269 819 l 161 819 z "},"ﺬ":{"ha":743,"x_min":56,"x_max":771,"o":"m 593 0 l 593 99 l 743 99 l 743 0 l 593 0 m 56 0 l 56 99 l 574 99 l 485 19 l 485 322 q 461 485 485 425 q 384 570 438 544 q 240 596 331 596 l 128 596 l 128 694 l 240 694 q 431 660 351 694 q 551 544 510 625 q 593 322 593 463 l 593 0 l 56 0 m 743 0 l 743 99 q 766 85 761 99 q 771 50 771 72 q 766 14 771 28 q 743 0 761 0 m 161 819 l 161 944 l 269 944 l 269 819 l 161 819 z "},"ڈ":{"ha":671,"x_min":56,"x_max":593,"o":"m 56 0 l 56 99 l 574 99 l 485 19 l 485 322 q 461 485 485 425 q 384 570 438 544 q 240 596 331 596 l 128 596 l 128 694 l 240 694 q 431 660 351 694 q 551 544 510 625 q 593 322 593 463 l 593 0 l 56 0 m 168 890 q 188 961 168 931 q 240 1010 207 992 q 313 1028 274 1028 q 385 1010 353 1028 q 438 961 418 992 q 457 890 457 931 l 382 890 q 363 938 382 918 q 313 957 343 957 q 256 938 283 957 q 229 890 229 918 l 168 890 m 128 819 l 128 890 l 457 890 l 457 819 l 128 819 m 168 890 l 168 1083 l 243 1083 l 243 890 l 168 890 z "},"ﮉ":{"ha":743,"x_min":56,"x_max":771,"o":"m 593 0 l 593 99 l 743 99 l 743 0 l 593 0 m 56 0 l 56 99 l 574 99 l 485 19 l 485 322 q 461 485 485 425 q 384 570 438 544 q 240 596 331 596 l 128 596 l 128 694 l 240 694 q 431 660 351 694 q 551 544 510 625 q 593 322 593 463 l 593 0 l 56 0 m 743 0 l 743 99 q 766 85 761 99 q 771 50 771 72 q 766 14 771 28 q 743 0 761 0 m 168 890 q 188 961 168 931 q 240 1010 207 992 q 313 1028 274 1028 q 385 1010 353 1028 q 438 961 418 992 q 457 890 457 931 l 382 890 q 363 938 382 918 q 313 957 343 957 q 256 938 283 957 q 229 890 229 918 l 168 890 m 128 819 l 128 890 l 457 890 l 457 819 l 128 819 m 168 890 l 168 1083 l 243 1083 l 243 890 l 168 890 z "},"ر":{"ha":365,"x_min":-65,"x_max":267,"o":"m 13 -307 q -26 -305 -6 -307 q -65 -301 -46 -303 l -53 -203 q -17 -206 -33 -204 q 13 -208 0 -208 q 118 -159 78 -208 q 158 -22 158 -110 l 158 694 l 267 694 l 267 -22 q 234 -172 267 -107 q 144 -272 201 -236 q 13 -307 88 -307 z "},"ﺮ":{"ha":417,"x_min":-65,"x_max":444,"o":"m 239 0 l 239 99 l 417 99 l 417 0 l 239 0 m 13 -307 q -26 -305 -6 -307 q -65 -301 -46 -303 l -53 -203 q -17 -206 -33 -204 q 13 -208 0 -208 q 118 -159 78 -208 q 158 -22 158 -110 l 158 694 l 267 694 l 267 -22 q 234 -172 267 -107 q 144 -272 201 -236 q 13 -307 88 -307 m 417 0 l 417 99 q 440 85 435 99 q 444 50 444 72 q 440 14 444 28 q 417 0 435 0 z "},"ز":{"ha":365,"x_min":-65,"x_max":267,"o":"m 13 -307 q -26 -305 -6 -307 q -65 -301 -46 -303 l -53 -203 q -17 -206 -33 -204 q 13 -208 0 -208 q 118 -159 78 -208 q 158 -22 158 -110 l 158 694 l 267 694 l 267 -22 q 234 -172 267 -107 q 144 -272 201 -236 q 13 -307 88 -307 m 158 819 l 158 944 l 267 944 l 267 819 l 158 819 z "},"ﺰ":{"ha":417,"x_min":-65,"x_max":444,"o":"m 239 0 l 239 99 l 417 99 l 417 0 l 239 0 m 13 -307 q -26 -305 -6 -307 q -65 -301 -46 -303 l -53 -203 q -17 -206 -33 -204 q 13 -208 0 -208 q 118 -159 78 -208 q 158 -22 158 -110 l 158 694 l 267 694 l 267 -22 q 234 -172 267 -107 q 144 -272 201 -236 q 13 -307 88 -307 m 417 0 l 417 99 q 440 85 435 99 q 444 50 444 72 q 440 14 444 28 q 417 0 435 0 m 158 819 l 158 944 l 267 944 l 267 819 l 158 819 z "},"ڑ":{"ha":365,"x_min":-65,"x_max":376,"o":"m 13 -307 q -26 -305 -6 -307 q -65 -301 -46 -303 l -53 -203 q -17 -206 -33 -204 q 13 -208 0 -208 q 118 -159 78 -208 q 158 -22 158 -110 l 158 694 l 267 694 l 267 -22 q 234 -172 267 -107 q 144 -272 201 -236 q 13 -307 88 -307 m 88 890 q 107 961 88 931 q 160 1010 126 992 q 232 1028 193 1028 q 305 1010 272 1028 q 357 961 338 992 q 376 890 376 931 l 301 890 q 282 938 301 918 q 232 957 263 957 q 176 938 203 957 q 149 890 149 918 l 88 890 m 47 819 l 47 890 l 376 890 l 376 819 l 47 819 m 88 890 l 88 1083 l 163 1083 l 163 890 l 88 890 z "},"ﮍ":{"ha":417,"x_min":-65,"x_max":444,"o":"m 239 0 l 239 99 l 417 99 l 417 0 l 239 0 m 13 -307 q -26 -305 -6 -307 q -65 -301 -46 -303 l -53 -203 q -17 -206 -33 -204 q 13 -208 0 -208 q 118 -159 78 -208 q 158 -22 158 -110 l 158 694 l 267 694 l 267 -22 q 234 -172 267 -107 q 144 -272 201 -236 q 13 -307 88 -307 m 417 0 l 417 99 q 440 85 435 99 q 444 50 444 72 q 440 14 444 28 q 417 0 435 0 m 88 890 q 107 961 88 931 q 160 1010 126 992 q 232 1028 193 1028 q 305 1010 272 1028 q 357 961 338 992 q 376 890 376 931 l 301 890 q 282 938 301 918 q 232 957 263 957 q 176 938 203 957 q 149 890 149 918 l 88 890 m 47 819 l 47 890 l 376 890 l 376 819 l 47 819 m 88 890 l 88 1083 l 163 1083 l 163 890 l 88 890 z "},"ژ":{"ha":365,"x_min":-65,"x_max":361,"o":"m 13 -307 q -26 -305 -6 -307 q -65 -301 -46 -303 l -53 -203 q -17 -206 -33 -204 q 13 -208 0 -208 q 118 -159 78 -208 q 158 -22 158 -110 l 158 694 l 267 694 l 267 -22 q 234 -172 267 -107 q 144 -272 201 -236 q 13 -307 88 -307 m 163 1003 l 163 1121 l 263 1121 l 263 1003 l 163 1003 m 63 819 l 63 944 l 171 944 l 171 819 l 63 819 m 253 819 l 253 944 l 361 944 l 361 819 l 253 819 z "},"ﮋ":{"ha":417,"x_min":-65,"x_max":444,"o":"m 239 0 l 239 99 l 417 99 l 417 0 l 239 0 m 13 -307 q -26 -305 -6 -307 q -65 -301 -46 -303 l -53 -203 q -17 -206 -33 -204 q 13 -208 0 -208 q 118 -159 78 -208 q 158 -22 158 -110 l 158 694 l 267 694 l 267 -22 q 234 -172 267 -107 q 144 -272 201 -236 q 13 -307 88 -307 m 417 0 l 417 99 q 440 85 435 99 q 444 50 444 72 q 440 14 444 28 q 417 0 435 0 m 163 1003 l 163 1121 l 263 1121 l 263 1003 l 163 1003 m 63 819 l 63 944 l 171 944 l 171 819 l 63 819 m 253 819 l 253 944 l 361 944 l 361 819 l 253 819 z "},"س":{"ha":1682,"x_min":56,"x_max":1582,"o":"m 446 -344 q 247 -304 336 -344 q 107 -192 158 -264 q 56 -26 56 -119 q 60 51 56 3 q 73 158 65 99 q 90 277 81 217 q 108 392 100 338 l 215 375 q 188 198 200 279 q 170 59 176 117 q 164 -26 164 1 q 199 -140 164 -90 q 299 -217 235 -189 q 446 -246 363 -246 q 589 -219 529 -246 q 681 -146 649 -193 q 713 -35 713 -99 l 713 556 l 821 556 l 821 -35 q 770 -201 821 -132 q 635 -308 719 -271 q 446 -344 550 -344 m 821 0 l 821 99 l 976 99 q 1049 113 1024 99 q 1083 168 1074 126 q 1093 290 1093 210 l 1093 625 l 1201 625 l 1201 290 q 1178 118 1201 182 q 1106 27 1156 54 q 976 0 1057 0 l 821 0 m 1269 0 q 1177 18 1222 0 q 1089 75 1132 36 l 1160 149 q 1217 110 1192 122 q 1269 99 1243 99 l 1517 99 l 1475 54 l 1475 386 q 1469 457 1475 411 q 1455 560 1464 503 q 1435 676 1446 618 l 1540 694 q 1560 586 1550 646 q 1576 473 1569 526 q 1582 386 1582 419 l 1582 0 l 1269 0 z "},"ﺲ":{"ha":1732,"x_min":56,"x_max":1760,"o":"m 1582 0 l 1582 99 l 1732 99 l 1732 0 l 1582 0 m 446 -344 q 247 -304 336 -344 q 107 -192 158 -264 q 56 -26 56 -119 q 60 51 56 3 q 73 158 65 99 q 90 277 81 217 q 108 392 100 338 l 215 375 q 188 198 200 279 q 170 59 176 117 q 164 -26 164 1 q 199 -140 164 -90 q 299 -217 235 -189 q 446 -246 363 -246 q 589 -219 529 -246 q 681 -146 649 -193 q 713 -35 713 -99 l 713 556 l 821 556 l 821 -35 q 770 -201 821 -132 q 635 -308 719 -271 q 446 -344 550 -344 m 821 0 l 821 99 l 976 99 q 1049 113 1024 99 q 1083 168 1074 126 q 1093 290 1093 210 l 1093 625 l 1201 625 l 1201 290 q 1178 118 1201 182 q 1106 27 1156 54 q 976 0 1057 0 l 821 0 m 1269 0 q 1177 18 1222 0 q 1089 75 1132 36 l 1160 149 q 1217 110 1192 122 q 1269 99 1243 99 l 1517 99 l 1475 54 l 1475 386 q 1469 457 1475 411 q 1455 560 1464 503 q 1435 676 1446 618 l 1540 694 q 1560 586 1550 646 q 1576 473 1569 526 q 1582 386 1582 419 l 1582 0 l 1269 0 m 1732 0 l 1732 99 q 1755 85 1750 99 q 1760 50 1760 72 q 1755 14 1760 28 q 1732 0 1750 0 z "},"ﺴ":{"ha":1194,"x_min":-28,"x_max":1222,"o":"m 1044 0 l 1044 99 l 1194 99 l 1194 0 l 1044 0 m 731 0 q 638 18 683 0 q 551 75 593 36 l 622 149 q 679 110 654 122 q 731 99 704 99 l 978 99 l 936 54 l 936 386 q 931 457 936 411 q 917 560 926 503 q 896 676 908 618 l 1001 694 q 1021 586 1011 646 q 1038 473 1031 526 q 1044 386 1044 419 l 1044 0 l 731 0 m 0 0 l 0 99 l 203 99 l 175 71 l 175 556 l 282 556 l 282 0 l 0 0 m 282 0 l 282 99 l 439 99 q 510 113 486 99 q 544 168 535 126 q 554 290 554 210 l 554 625 l 663 625 l 663 290 q 640 118 663 182 q 568 27 617 54 q 439 0 519 0 l 282 0 m 0 0 q -23 14 -18 0 q -28 50 -28 28 q -23 85 -28 72 q 0 99 -18 99 l 0 0 m 1194 0 l 1194 99 q 1217 85 1213 99 q 1222 50 1222 72 q 1217 14 1222 28 q 1194 0 1213 0 z "},"ﺳ":{"ha":1149,"x_min":-28,"x_max":1044,"o":"m 731 0 q 638 18 683 0 q 551 75 593 36 l 622 149 q 679 110 654 122 q 731 99 704 99 l 978 99 l 936 54 l 936 386 q 931 457 936 411 q 917 560 926 503 q 896 676 908 618 l 1001 694 q 1021 586 1011 646 q 1038 473 1031 526 q 1044 386 1044 419 l 1044 0 l 731 0 m 0 0 l 0 99 l 203 99 l 175 71 l 175 556 l 282 556 l 282 0 l 0 0 m 282 0 l 282 99 l 439 99 q 510 113 486 99 q 544 168 535 126 q 554 290 554 210 l 554 625 l 663 625 l 663 290 q 640 118 663 182 q 568 27 617 54 q 439 0 519 0 l 282 0 m 0 0 q -23 14 -18 0 q -28 50 -28 28 q -23 85 -28 72 q 0 99 -18 99 l 0 0 z "},"ش":{"ha":1682,"x_min":56,"x_max":1582,"o":"m 446 -344 q 247 -304 336 -344 q 107 -192 158 -264 q 56 -26 56 -119 q 60 51 56 3 q 73 158 65 99 q 90 277 81 217 q 108 392 100 338 l 215 375 q 188 198 200 279 q 170 59 176 117 q 164 -26 164 1 q 199 -140 164 -90 q 299 -217 235 -189 q 446 -246 363 -246 q 589 -219 529 -246 q 681 -146 649 -193 q 713 -35 713 -99 l 713 556 l 821 556 l 821 -35 q 770 -201 821 -132 q 635 -308 719 -271 q 446 -344 550 -344 m 821 0 l 821 99 l 976 99 q 1049 113 1024 99 q 1083 168 1074 126 q 1093 290 1093 210 l 1093 625 l 1201 625 l 1201 290 q 1178 118 1201 182 q 1106 27 1156 54 q 976 0 1057 0 l 821 0 m 1269 0 q 1177 18 1222 0 q 1089 75 1132 36 l 1160 149 q 1217 110 1192 122 q 1269 99 1243 99 l 1517 99 l 1475 54 l 1475 386 q 1469 457 1475 411 q 1455 560 1464 503 q 1435 676 1446 618 l 1540 694 q 1560 586 1550 646 q 1576 473 1569 526 q 1582 386 1582 419 l 1582 0 l 1269 0 m 1096 1003 l 1096 1121 l 1196 1121 l 1196 1003 l 1096 1003 m 996 819 l 996 944 l 1104 944 l 1104 819 l 996 819 m 1186 819 l 1186 944 l 1294 944 l 1294 819 l 1186 819 z "},"ﺶ":{"ha":1732,"x_min":56,"x_max":1760,"o":"m 1582 0 l 1582 99 l 1732 99 l 1732 0 l 1582 0 m 446 -344 q 247 -304 336 -344 q 107 -192 158 -264 q 56 -26 56 -119 q 60 51 56 3 q 73 158 65 99 q 90 277 81 217 q 108 392 100 338 l 215 375 q 188 198 200 279 q 170 59 176 117 q 164 -26 164 1 q 199 -140 164 -90 q 299 -217 235 -189 q 446 -246 363 -246 q 589 -219 529 -246 q 681 -146 649 -193 q 713 -35 713 -99 l 713 556 l 821 556 l 821 -35 q 770 -201 821 -132 q 635 -308 719 -271 q 446 -344 550 -344 m 821 0 l 821 99 l 976 99 q 1049 113 1024 99 q 1083 168 1074 126 q 1093 290 1093 210 l 1093 625 l 1201 625 l 1201 290 q 1178 118 1201 182 q 1106 27 1156 54 q 976 0 1057 0 l 821 0 m 1269 0 q 1177 18 1222 0 q 1089 75 1132 36 l 1160 149 q 1217 110 1192 122 q 1269 99 1243 99 l 1517 99 l 1475 54 l 1475 386 q 1469 457 1475 411 q 1455 560 1464 503 q 1435 676 1446 618 l 1540 694 q 1560 586 1550 646 q 1576 473 1569 526 q 1582 386 1582 419 l 1582 0 l 1269 0 m 1732 0 l 1732 99 q 1755 85 1750 99 q 1760 50 1760 72 q 1755 14 1760 28 q 1732 0 1750 0 m 1096 1003 l 1096 1121 l 1196 1121 l 1196 1003 l 1096 1003 m 996 819 l 996 944 l 1104 944 l 1104 819 l 996 819 m 1186 819 l 1186 944 l 1294 944 l 1294 819 l 1186 819 z "},"ﺸ":{"ha":1194,"x_min":-28,"x_max":1222,"o":"m 1044 0 l 1044 99 l 1194 99 l 1194 0 l 1044 0 m 731 0 q 638 18 683 0 q 551 75 593 36 l 622 149 q 679 110 654 122 q 731 99 704 99 l 978 99 l 936 54 l 936 386 q 931 457 936 411 q 917 560 926 503 q 896 676 908 618 l 1001 694 q 1021 586 1011 646 q 1038 473 1031 526 q 1044 386 1044 419 l 1044 0 l 731 0 m 0 0 l 0 99 l 203 99 l 175 71 l 175 556 l 282 556 l 282 0 l 0 0 m 282 0 l 282 99 l 439 99 q 510 113 486 99 q 544 168 535 126 q 554 290 554 210 l 554 625 l 663 625 l 663 290 q 640 118 663 182 q 568 27 617 54 q 439 0 519 0 l 282 0 m 0 0 q -23 14 -18 0 q -28 50 -28 28 q -23 85 -28 72 q 0 99 -18 99 l 0 0 m 1194 0 l 1194 99 q 1217 85 1213 99 q 1222 50 1222 72 q 1217 14 1222 28 q 1194 0 1213 0 m 558 1003 l 558 1121 l 658 1121 l 658 1003 l 558 1003 m 458 819 l 458 944 l 567 944 l 567 819 l 458 819 m 649 819 l 649 944 l 757 944 l 757 819 l 649 819 z "},"ﺷ":{"ha":1149,"x_min":-28,"x_max":1044,"o":"m 731 0 q 638 18 683 0 q 551 75 593 36 l 622 149 q 679 110 654 122 q 731 99 704 99 l 978 99 l 936 54 l 936 386 q 931 457 936 411 q 917 560 926 503 q 896 676 908 618 l 1001 694 q 1021 586 1011 646 q 1038 473 1031 526 q 1044 386 1044 419 l 1044 0 l 731 0 m 0 0 l 0 99 l 203 99 l 175 71 l 175 556 l 282 556 l 282 0 l 0 0 m 282 0 l 282 99 l 439 99 q 510 113 486 99 q 544 168 535 126 q 554 290 554 210 l 554 625 l 663 625 l 663 290 q 640 118 663 182 q 568 27 617 54 q 439 0 519 0 l 282 0 m 0 0 q -23 14 -18 0 q -28 50 -28 28 q -23 85 -28 72 q 0 99 -18 99 l 0 0 m 558 1003 l 558 1121 l 658 1121 l 658 1003 l 558 1003 m 458 819 l 458 944 l 567 944 l 567 819 l 458 819 m 649 819 l 649 944 l 757 944 l 757 819 l 649 819 z "},"ص":{"ha":1654,"x_min":56,"x_max":1549,"o":"m 446 -344 q 247 -304 336 -344 q 107 -192 158 -264 q 56 -26 56 -119 q 60 51 56 3 q 73 158 65 99 q 90 277 81 217 q 108 392 100 338 l 215 375 q 188 198 200 279 q 170 59 176 117 q 164 -26 164 1 q 199 -140 164 -90 q 299 -217 235 -189 q 446 -246 363 -246 q 589 -219 529 -246 q 681 -146 649 -193 q 713 -35 713 -99 l 713 694 l 821 694 l 821 -35 q 770 -201 821 -132 q 635 -308 719 -271 q 446 -344 550 -344 m 821 0 l 821 99 l 1542 99 l 1442 8 l 1442 335 q 1417 480 1442 422 q 1345 567 1393 538 q 1225 596 1297 596 q 1112 576 1164 596 q 1015 523 1060 556 q 933 451 971 490 q 863 371 894 411 q 804 297 831 331 l 768 396 q 838 482 803 439 q 913 563 874 525 q 998 631 951 601 q 1100 677 1044 660 q 1225 694 1156 694 q 1387 661 1324 694 q 1485 573 1450 628 q 1535 456 1521 518 q 1549 335 1549 393 l 1549 0 l 821 0 z "},"ﺺ":{"ha":1700,"x_min":56,"x_max":1728,"o":"m 1549 0 l 1549 99 l 1700 99 l 1700 0 l 1549 0 m 446 -344 q 247 -304 336 -344 q 107 -192 158 -264 q 56 -26 56 -119 q 60 51 56 3 q 73 158 65 99 q 90 277 81 217 q 108 392 100 338 l 215 375 q 188 198 200 279 q 170 59 176 117 q 164 -26 164 1 q 199 -140 164 -90 q 299 -217 235 -189 q 446 -246 363 -246 q 589 -219 529 -246 q 681 -146 649 -193 q 713 -35 713 -99 l 713 694 l 821 694 l 821 -35 q 770 -201 821 -132 q 635 -308 719 -271 q 446 -344 550 -344 m 821 0 l 821 99 l 1542 99 l 1442 8 l 1442 335 q 1417 480 1442 422 q 1345 567 1393 538 q 1225 596 1297 596 q 1112 576 1164 596 q 1015 523 1060 556 q 933 451 971 490 q 863 371 894 411 q 804 297 831 331 l 768 396 q 838 482 803 439 q 913 563 874 525 q 998 631 951 601 q 1100 677 1044 660 q 1225 694 1156 694 q 1387 661 1324 694 q 1485 573 1450 628 q 1535 456 1521 518 q 1549 335 1549 393 l 1549 0 l 821 0 m 1700 0 l 1700 99 q 1723 85 1718 99 q 1728 50 1728 72 q 1723 14 1728 28 q 1700 0 1718 0 z "},"ﺼ":{"ha":1185,"x_min":-28,"x_max":1213,"o":"m 1035 0 l 1035 99 l 1185 99 l 1185 0 l 1035 0 m 0 0 l 0 99 l 1026 99 l 926 8 l 926 335 q 902 480 926 422 q 830 567 878 538 q 710 596 782 596 q 597 576 649 596 q 500 523 544 556 q 417 451 456 490 q 347 371 379 411 q 289 297 315 331 l 254 396 q 324 482 289 439 q 399 563 360 525 q 484 631 438 601 q 586 677 531 660 q 711 694 642 694 q 873 661 810 694 q 972 573 936 628 q 1021 456 1007 518 q 1035 335 1035 393 l 1035 0 l 0 0 m 197 99 l 197 694 l 306 694 l 306 99 l 197 99 m 0 0 q -23 14 -18 0 q -28 50 -28 28 q -23 85 -28 72 q 0 99 -18 99 l 0 0 m 1185 0 l 1185 99 q 1208 85 1203 99 q 1213 50 1213 72 q 1208 14 1213 28 q 1185 0 1203 0 z "},"ﺻ":{"ha":1139,"x_min":-28,"x_max":1035,"o":"m 0 0 l 0 99 l 1026 99 l 926 8 l 926 335 q 902 480 926 422 q 830 567 878 538 q 710 596 782 596 q 597 576 649 596 q 500 523 544 556 q 417 451 456 490 q 347 371 379 411 q 289 297 315 331 l 254 396 q 324 482 289 439 q 399 563 360 525 q 484 631 438 601 q 586 677 531 660 q 711 694 642 694 q 873 661 810 694 q 972 573 936 628 q 1021 456 1007 518 q 1035 335 1035 393 l 1035 0 l 0 0 m 197 99 l 197 694 l 306 694 l 306 99 l 197 99 m 0 0 q -23 14 -18 0 q -28 50 -28 28 q -23 85 -28 72 q 0 99 -18 99 l 0 0 z "},"ض":{"ha":1654,"x_min":56,"x_max":1549,"o":"m 446 -344 q 247 -304 336 -344 q 107 -192 158 -264 q 56 -26 56 -119 q 60 51 56 3 q 73 158 65 99 q 90 277 81 217 q 108 392 100 338 l 215 375 q 188 198 200 279 q 170 59 176 117 q 164 -26 164 1 q 199 -140 164 -90 q 299 -217 235 -189 q 446 -246 363 -246 q 589 -219 529 -246 q 681 -146 649 -193 q 713 -35 713 -99 l 713 694 l 821 694 l 821 -35 q 770 -201 821 -132 q 635 -308 719 -271 q 446 -344 550 -344 m 821 0 l 821 99 l 1542 99 l 1442 8 l 1442 335 q 1417 480 1442 422 q 1345 567 1393 538 q 1225 596 1297 596 q 1112 576 1164 596 q 1015 523 1060 556 q 933 451 971 490 q 863 371 894 411 q 804 297 831 331 l 768 396 q 838 482 803 439 q 913 563 874 525 q 998 631 951 601 q 1100 677 1044 660 q 1225 694 1156 694 q 1387 661 1324 694 q 1485 573 1450 628 q 1535 456 1521 518 q 1549 335 1549 393 l 1549 0 l 821 0 m 1092 818 l 1092 943 l 1200 943 l 1200 818 l 1092 818 z "},"ﺾ":{"ha":1700,"x_min":56,"x_max":1728,"o":"m 1549 0 l 1549 99 l 1700 99 l 1700 0 l 1549 0 m 446 -344 q 247 -304 336 -344 q 107 -192 158 -264 q 56 -26 56 -119 q 60 51 56 3 q 73 158 65 99 q 90 277 81 217 q 108 392 100 338 l 215 375 q 188 198 200 279 q 170 59 176 117 q 164 -26 164 1 q 199 -140 164 -90 q 299 -217 235 -189 q 446 -246 363 -246 q 589 -219 529 -246 q 681 -146 649 -193 q 713 -35 713 -99 l 713 694 l 821 694 l 821 -35 q 770 -201 821 -132 q 635 -308 719 -271 q 446 -344 550 -344 m 821 0 l 821 99 l 1542 99 l 1442 8 l 1442 335 q 1417 480 1442 422 q 1345 567 1393 538 q 1225 596 1297 596 q 1112 576 1164 596 q 1015 523 1060 556 q 933 451 971 490 q 863 371 894 411 q 804 297 831 331 l 768 396 q 838 482 803 439 q 913 563 874 525 q 998 631 951 601 q 1100 677 1044 660 q 1225 694 1156 694 q 1387 661 1324 694 q 1485 573 1450 628 q 1535 456 1521 518 q 1549 335 1549 393 l 1549 0 l 821 0 m 1700 0 l 1700 99 q 1723 85 1718 99 q 1728 50 1728 72 q 1723 14 1728 28 q 1700 0 1718 0 m 1092 818 l 1092 943 l 1200 943 l 1200 818 l 1092 818 z "},"ﻀ":{"ha":1185,"x_min":-28,"x_max":1213,"o":"m 1035 0 l 1035 99 l 1185 99 l 1185 0 l 1035 0 m 0 0 l 0 99 l 1026 99 l 926 8 l 926 335 q 902 480 926 422 q 830 567 878 538 q 710 596 782 596 q 597 576 649 596 q 500 523 544 556 q 417 451 456 490 q 347 371 379 411 q 289 297 315 331 l 254 396 q 324 482 289 439 q 399 563 360 525 q 484 631 438 601 q 586 677 531 660 q 711 694 642 694 q 873 661 810 694 q 972 573 936 628 q 1021 456 1007 518 q 1035 335 1035 393 l 1035 0 l 0 0 m 197 99 l 197 694 l 306 694 l 306 99 l 197 99 m 0 0 q -23 14 -18 0 q -28 50 -28 28 q -23 85 -28 72 q 0 99 -18 99 l 0 0 m 1185 0 l 1185 99 q 1208 85 1203 99 q 1213 50 1213 72 q 1208 14 1213 28 q 1185 0 1203 0 m 576 818 l 576 943 l 685 943 l 685 818 l 576 818 z "},"ﺿ":{"ha":1139,"x_min":-28,"x_max":1035,"o":"m 0 0 l 0 99 l 1026 99 l 926 8 l 926 335 q 902 480 926 422 q 830 567 878 538 q 710 596 782 596 q 597 576 649 596 q 500 523 544 556 q 417 451 456 490 q 347 371 379 411 q 289 297 315 331 l 254 396 q 324 482 289 439 q 399 563 360 525 q 484 631 438 601 q 586 677 531 660 q 711 694 642 694 q 873 661 810 694 q 972 573 936 628 q 1021 456 1007 518 q 1035 335 1035 393 l 1035 0 l 0 0 m 197 99 l 197 694 l 306 694 l 306 99 l 197 99 m 0 0 q -23 14 -18 0 q -28 50 -28 28 q -23 85 -28 72 q 0 99 -18 99 l 0 0 m 576 818 l 576 943 l 685 943 l 685 818 l 576 818 z "},"ط":{"ha":1061,"x_min":28,"x_max":956,"o":"m 28 0 l 28 99 l 949 99 l 849 8 l 849 335 q 824 480 849 422 q 752 567 800 538 q 632 596 704 596 q 519 576 571 596 q 422 523 467 556 q 340 451 378 490 q 269 371 301 411 q 211 297 238 331 l 175 396 q 263 503 218 450 q 360 599 307 556 q 479 668 413 642 q 632 694 546 694 q 794 661 731 694 q 892 573 857 628 q 942 456 928 518 q 956 335 956 393 l 956 0 l 28 0 m 119 99 l 119 996 l 228 996 l 228 99 l 119 99 z "},"ﻂ":{"ha":1107,"x_min":28,"x_max":1135,"o":"m 956 0 l 956 99 l 1107 99 l 1107 0 l 956 0 m 28 0 l 28 99 l 949 99 l 849 8 l 849 335 q 824 480 849 422 q 752 567 800 538 q 632 596 704 596 q 519 576 571 596 q 422 523 467 556 q 340 451 378 490 q 269 371 301 411 q 211 297 238 331 l 175 396 q 263 503 218 450 q 360 599 307 556 q 479 668 413 642 q 632 694 546 694 q 794 661 731 694 q 892 573 857 628 q 942 456 928 518 q 956 335 956 393 l 956 0 l 28 0 m 119 99 l 119 996 l 228 996 l 228 99 l 119 99 m 1107 0 l 1107 99 q 1130 85 1125 99 q 1135 50 1135 72 q 1130 14 1135 28 q 1107 0 1125 0 z "},"ﻄ":{"ha":1040,"x_min":-28,"x_max":1068,"o":"m 890 0 l 890 99 l 1040 99 l 1040 0 l 890 0 m 0 0 l 0 99 l 921 99 l 821 8 l 821 335 q 797 480 821 422 q 724 567 772 538 q 604 596 676 596 q 491 576 543 596 q 394 523 439 556 q 312 451 350 490 q 242 371 274 411 q 183 297 210 331 l 147 396 q 235 503 190 450 q 332 599 279 556 q 451 668 385 642 q 604 694 518 694 q 766 661 703 694 q 865 573 829 628 q 914 456 900 518 q 928 335 928 393 l 928 0 l 0 0 m 92 99 l 92 996 l 200 996 l 200 99 l 92 99 m 0 0 q -23 14 -18 0 q -28 50 -28 28 q -23 85 -28 72 q 0 99 -18 99 l 0 0 m 1040 0 l 1040 99 q 1063 85 1058 99 q 1068 50 1068 72 q 1063 14 1068 28 q 1040 0 1058 0 z "},"ﻃ":{"ha":1032,"x_min":-28,"x_max":928,"o":"m 0 0 l 0 99 l 921 99 l 821 8 l 821 335 q 797 480 821 422 q 724 567 772 538 q 604 596 676 596 q 491 576 543 596 q 394 523 439 556 q 312 451 350 490 q 242 371 274 411 q 183 297 210 331 l 147 396 q 235 503 190 450 q 332 599 279 556 q 451 668 385 642 q 604 694 518 694 q 766 661 703 694 q 865 573 829 628 q 914 456 900 518 q 928 335 928 393 l 928 0 l 0 0 m 92 99 l 92 996 l 200 996 l 200 99 l 92 99 m 0 0 q -23 14 -18 0 q -28 50 -28 28 q -23 85 -28 72 q 0 99 -18 99 l 0 0 z "},"ظ":{"ha":1061,"x_min":28,"x_max":956,"o":"m 28 0 l 28 99 l 949 99 l 849 8 l 849 335 q 824 480 849 422 q 752 567 800 538 q 632 596 704 596 q 519 576 571 596 q 422 523 467 556 q 340 451 378 490 q 269 371 301 411 q 211 297 238 331 l 175 396 q 263 503 218 450 q 360 599 307 556 q 479 668 413 642 q 632 694 546 694 q 794 661 731 694 q 892 573 857 628 q 942 456 928 518 q 956 335 956 393 l 956 0 l 28 0 m 119 99 l 119 996 l 228 996 l 228 99 l 119 99 m 499 819 l 499 944 l 607 944 l 607 819 l 499 819 z "},"ﻆ":{"ha":1107,"x_min":28,"x_max":1135,"o":"m 956 0 l 956 99 l 1107 99 l 1107 0 l 956 0 m 28 0 l 28 99 l 949 99 l 849 8 l 849 335 q 824 480 849 422 q 752 567 800 538 q 632 596 704 596 q 519 576 571 596 q 422 523 467 556 q 340 451 378 490 q 269 371 301 411 q 211 297 238 331 l 175 396 q 263 503 218 450 q 360 599 307 556 q 479 668 413 642 q 632 694 546 694 q 794 661 731 694 q 892 573 857 628 q 942 456 928 518 q 956 335 956 393 l 956 0 l 28 0 m 119 99 l 119 996 l 228 996 l 228 99 l 119 99 m 1107 0 l 1107 99 q 1130 85 1125 99 q 1135 50 1135 72 q 1130 14 1135 28 q 1107 0 1125 0 m 499 819 l 499 944 l 607 944 l 607 819 l 499 819 z "},"ﻈ":{"ha":1040,"x_min":-28,"x_max":1068,"o":"m 890 0 l 890 99 l 1040 99 l 1040 0 l 890 0 m 0 0 l 0 99 l 921 99 l 821 8 l 821 335 q 797 480 821 422 q 724 567 772 538 q 604 596 676 596 q 491 576 543 596 q 394 523 439 556 q 312 451 350 490 q 242 371 274 411 q 183 297 210 331 l 147 396 q 235 503 190 450 q 332 599 279 556 q 451 668 385 642 q 604 694 518 694 q 766 661 703 694 q 865 573 829 628 q 914 456 900 518 q 928 335 928 393 l 928 0 l 0 0 m 92 99 l 92 996 l 200 996 l 200 99 l 92 99 m 0 0 q -23 14 -18 0 q -28 50 -28 28 q -23 85 -28 72 q 0 99 -18 99 l 0 0 m 1040 0 l 1040 99 q 1063 85 1058 99 q 1068 50 1068 72 q 1063 14 1068 28 q 1040 0 1058 0 m 471 819 l 471 944 l 579 944 l 579 819 l 471 819 z "},"ﻇ":{"ha":1032,"x_min":-28,"x_max":928,"o":"m 0 0 l 0 99 l 921 99 l 821 8 l 821 335 q 797 480 821 422 q 724 567 772 538 q 604 596 676 596 q 491 576 543 596 q 394 523 439 556 q 312 451 350 490 q 242 371 274 411 q 183 297 210 331 l 147 396 q 235 503 190 450 q 332 599 279 556 q 451 668 385 642 q 604 694 518 694 q 766 661 703 694 q 865 573 829 628 q 914 456 900 518 q 928 335 928 393 l 928 0 l 0 0 m 92 99 l 92 996 l 200 996 l 200 99 l 92 99 m 0 0 q -23 14 -18 0 q -28 50 -28 28 q -23 85 -28 72 q 0 99 -18 99 l 0 0 m 471 819 l 471 944 l 579 944 l 579 819 l 471 819 z "},"ع":{"ha":767,"x_min":56,"x_max":668,"o":"m 385 -442 q 209 -410 283 -442 q 95 -318 135 -379 q 56 -171 56 -257 q 95 -24 56 -85 q 209 67 135 36 q 386 99 283 99 l 668 99 l 668 0 l 386 0 q 217 -44 271 0 q 164 -172 164 -87 q 217 -299 164 -256 q 385 -343 271 -343 q 469 -339 419 -343 q 592 -325 519 -335 l 608 -412 q 488 -434 543 -426 q 385 -442 433 -442 m 263 4 q 148 151 188 68 q 108 326 108 233 q 136 473 108 406 q 213 590 164 540 q 328 667 261 640 q 471 694 394 694 q 558 686 511 694 q 647 663 604 678 l 610 569 q 540 589 575 582 q 472 596 504 596 q 340 561 397 596 q 249 466 282 526 q 215 326 215 406 q 246 191 215 254 q 332 79 276 128 l 263 4 z "},"ﻊ":{"ha":876,"x_min":56,"x_max":904,"o":"m 592 -324 l 608 -412 q 488 -434 543 -426 q 385 -442 433 -442 q 209 -410 283 -442 q 95 -318 135 -379 q 56 -171 56 -257 q 79 -47 56 -104 q 147 52 103 10 q 254 119 192 94 l 297 138 q 407 188 351 160 q 514 249 463 215 q 606 324 565 283 q 669 413 646 365 q 693 517 693 461 l 693 600 l 751 513 q 594 575 672 554 q 442 596 515 596 q 290 575 368 596 q 133 513 213 554 l 192 600 l 192 517 q 218 410 192 467 q 291 298 244 353 q 401 198 338 243 q 542 126 465 153 q 701 99 618 99 l 876 99 l 876 0 l 701 0 q 499 35 593 0 q 328 127 404 69 q 197 253 251 185 q 113 391 142 322 q 83 517 83 460 l 83 600 q 204 653 143 632 q 326 684 265 674 q 442 694 386 694 q 558 684 499 694 q 679 653 618 674 q 800 600 740 632 l 800 517 q 767 369 800 435 q 680 251 733 303 q 564 161 626 200 q 443 94 501 122 q 406 78 429 89 q 359 57 383 68 q 316 38 335 46 q 293 28 297 31 q 203 -41 243 4 q 164 -169 164 -86 q 217 -299 164 -254 q 385 -343 271 -343 q 469 -338 418 -343 q 592 -324 519 -333 m 876 0 l 876 99 q 899 85 894 99 q 904 50 904 72 q 899 14 904 28 q 876 0 894 0 z "},"ﻌ":{"ha":883,"x_min":-28,"x_max":911,"o":"m 0 0 l 0 99 l 186 99 q 346 126 269 99 q 486 198 422 153 q 597 298 550 243 q 671 410 644 353 q 697 517 697 467 l 697 600 l 756 513 q 597 575 675 554 q 446 596 519 596 q 294 575 372 596 q 138 513 217 554 l 196 600 l 196 517 q 222 410 196 467 q 295 298 249 353 q 406 198 342 243 q 546 126 469 153 q 706 99 622 99 l 883 99 l 883 0 l 706 0 q 503 35 597 0 q 332 127 408 69 q 201 253 256 185 q 117 391 146 322 q 88 517 88 460 l 88 600 q 208 653 147 632 q 330 684 269 674 q 446 694 390 694 q 563 684 503 694 q 683 653 622 674 q 804 600 744 632 l 804 517 q 775 391 804 460 q 691 253 746 322 q 560 127 636 185 q 389 35 483 69 q 186 0 294 0 l 0 0 m 0 0 q -23 14 -18 0 q -28 50 -28 28 q -23 85 -28 72 q 0 99 -18 99 l 0 0 m 883 0 l 883 99 q 906 85 901 99 q 911 50 911 72 q 906 14 911 28 q 883 0 901 0 z "},"ﻋ":{"ha":822,"x_min":-28,"x_max":703,"o":"m 301 4 q 187 151 226 68 q 147 326 147 233 q 175 473 147 406 q 251 590 203 540 q 367 667 300 640 q 510 694 433 694 q 597 686 550 694 q 686 663 643 678 l 649 569 q 578 589 614 582 q 511 596 543 596 q 379 561 438 596 q 288 466 321 526 q 256 326 256 406 q 372 79 256 176 l 301 4 m 0 0 l 0 99 l 703 99 l 703 0 l 0 0 m 0 0 q -23 14 -18 0 q -28 50 -28 28 q -23 85 -28 72 q 0 99 -18 99 l 0 0 z "},"غ":{"ha":767,"x_min":56,"x_max":668,"o":"m 385 -442 q 209 -410 283 -442 q 95 -318 135 -379 q 56 -171 56 -257 q 95 -24 56 -85 q 209 67 135 36 q 386 99 283 99 l 668 99 l 668 0 l 386 0 q 217 -44 271 0 q 164 -172 164 -87 q 217 -299 164 -256 q 385 -343 271 -343 q 469 -339 419 -343 q 592 -325 519 -335 l 608 -412 q 488 -434 543 -426 q 385 -442 433 -442 m 263 4 q 148 151 188 68 q 108 326 108 233 q 136 473 108 406 q 213 590 164 540 q 328 667 261 640 q 471 694 394 694 q 558 686 511 694 q 647 663 604 678 l 610 569 q 540 589 575 582 q 472 596 504 596 q 340 561 397 596 q 249 466 282 526 q 215 326 215 406 q 246 191 215 254 q 332 79 276 128 l 263 4 m 365 819 l 365 944 l 474 944 l 474 819 l 365 819 z "},"ﻎ":{"ha":876,"x_min":56,"x_max":904,"o":"m 592 -324 l 608 -412 q 488 -434 543 -426 q 385 -442 433 -442 q 209 -410 283 -442 q 95 -318 135 -379 q 56 -171 56 -257 q 79 -47 56 -104 q 147 52 103 10 q 254 119 192 94 l 297 138 q 407 188 351 160 q 514 249 463 215 q 606 324 565 283 q 669 413 646 365 q 693 517 693 461 l 693 600 l 751 513 q 594 575 672 554 q 442 596 515 596 q 290 575 368 596 q 133 513 213 554 l 192 600 l 192 517 q 218 410 192 467 q 291 298 244 353 q 401 198 338 243 q 542 126 465 153 q 701 99 618 99 l 876 99 l 876 0 l 701 0 q 499 35 593 0 q 328 127 404 69 q 197 253 251 185 q 113 391 142 322 q 83 517 83 460 l 83 600 q 204 653 143 632 q 326 684 265 674 q 442 694 386 694 q 558 684 499 694 q 679 653 618 674 q 800 600 740 632 l 800 517 q 767 369 800 435 q 680 251 733 303 q 564 161 626 200 q 443 94 501 122 q 406 78 429 89 q 359 57 383 68 q 316 38 335 46 q 293 28 297 31 q 203 -41 243 4 q 164 -169 164 -86 q 217 -299 164 -254 q 385 -343 271 -343 q 469 -338 418 -343 q 592 -324 519 -333 m 876 0 l 876 99 q 899 85 894 99 q 904 50 904 72 q 899 14 904 28 q 876 0 894 0 m 388 819 l 388 944 l 496 944 l 496 819 l 388 819 z "},"ﻐ":{"ha":883,"x_min":-28,"x_max":911,"o":"m 0 0 l 0 99 l 186 99 q 346 126 269 99 q 486 198 422 153 q 597 298 550 243 q 671 410 644 353 q 697 517 697 467 l 697 600 l 756 513 q 597 575 675 554 q 446 596 519 596 q 294 575 372 596 q 138 513 217 554 l 196 600 l 196 517 q 222 410 196 467 q 295 298 249 353 q 406 198 342 243 q 546 126 469 153 q 706 99 622 99 l 883 99 l 883 0 l 706 0 q 503 35 597 0 q 332 127 408 69 q 201 253 256 185 q 117 391 146 322 q 88 517 88 460 l 88 600 q 208 653 147 632 q 330 684 269 674 q 446 694 390 694 q 563 684 503 694 q 683 653 622 674 q 804 600 744 632 l 804 517 q 775 391 804 460 q 691 253 746 322 q 560 127 636 185 q 389 35 483 69 q 186 0 294 0 l 0 0 m 0 0 q -23 14 -18 0 q -28 50 -28 28 q -23 85 -28 72 q 0 99 -18 99 l 0 0 m 883 0 l 883 99 q 906 85 901 99 q 911 50 911 72 q 906 14 911 28 q 883 0 901 0 m 390 819 l 390 944 l 499 944 l 499 819 l 390 819 z "},"ﻏ":{"ha":822,"x_min":-28,"x_max":703,"o":"m 301 4 q 187 151 226 68 q 147 326 147 233 q 175 473 147 406 q 251 590 203 540 q 367 667 300 640 q 510 694 433 694 q 597 686 550 694 q 686 663 643 678 l 649 569 q 578 589 614 582 q 511 596 543 596 q 379 561 438 596 q 288 466 321 526 q 256 326 256 406 q 372 79 256 176 l 301 4 m 0 0 l 0 99 l 703 99 l 703 0 l 0 0 m 0 0 q -23 14 -18 0 q -28 50 -28 28 q -23 85 -28 72 q 0 99 -18 99 l 0 0 m 404 819 l 404 944 l 513 944 l 513 819 l 404 819 z "},"ف":{"ha":1435,"x_min":75,"x_max":1315,"o":"m 488 0 q 178 72 281 0 q 75 296 75 144 q 80 368 75 329 q 92 444 85 407 q 104 508 99 481 q 111 544 110 535 l 217 525 q 205 464 213 503 q 190 381 197 425 q 183 296 183 336 q 213 183 183 226 q 308 119 242 139 q 488 99 375 99 l 1279 99 l 1207 36 l 1207 643 l 1264 596 l 1028 596 q 903 576 947 596 q 843 503 860 557 q 826 347 826 450 q 843 191 826 244 q 903 118 860 138 q 1028 99 947 99 l 1028 28 q 840 58 907 28 q 745 158 772 88 q 718 347 718 228 q 745 544 718 467 q 840 658 772 621 q 1028 694 907 694 l 1315 694 l 1315 0 l 488 0 m 994 819 l 994 944 l 1103 944 l 1103 819 l 994 819 z "},"ﻒ":{"ha":1465,"x_min":75,"x_max":1493,"o":"m 1315 0 l 1315 99 l 1465 99 l 1465 0 l 1315 0 m 488 0 q 178 72 281 0 q 75 296 75 144 q 80 368 75 329 q 92 444 85 407 q 104 508 99 481 q 111 544 110 535 l 217 525 q 205 464 213 503 q 190 381 197 425 q 183 296 183 336 q 213 183 183 226 q 308 119 242 139 q 488 99 375 99 l 1279 99 l 1207 36 l 1207 643 l 1264 596 l 1028 596 q 903 576 947 596 q 843 503 860 557 q 826 347 826 450 q 843 191 826 244 q 903 118 860 138 q 1028 99 947 99 l 1028 28 q 840 58 907 28 q 745 158 772 88 q 718 347 718 228 q 745 544 718 467 q 840 658 772 621 q 1028 694 907 694 l 1315 694 l 1315 0 l 488 0 m 1465 0 l 1465 99 q 1488 85 1483 99 q 1493 50 1493 72 q 1488 14 1493 28 q 1465 0 1483 0 m 994 819 l 994 944 l 1103 944 l 1103 819 l 994 819 z "},"ﻔ":{"ha":888,"x_min":-28,"x_max":915,"o":"m 738 0 l 738 99 l 888 99 l 888 0 l 738 0 m 0 0 l 0 99 l 701 99 l 629 36 l 629 643 l 686 596 l 450 596 q 326 576 369 596 q 265 503 282 557 q 249 347 249 450 q 265 191 249 244 q 326 118 282 138 q 450 99 369 99 l 450 28 q 262 58 329 28 q 167 158 194 88 q 140 347 140 228 q 167 544 140 467 q 262 658 194 621 q 450 694 329 694 l 738 694 l 738 0 l 0 0 m 0 0 q -23 14 -18 0 q -28 50 -28 28 q -23 85 -28 72 q 0 99 -18 99 l 0 0 m 888 0 l 888 99 q 910 85 906 99 q 915 50 915 72 q 910 14 915 28 q 888 0 906 0 m 417 819 l 417 944 l 525 944 l 525 819 l 417 819 z "},"ﻓ":{"ha":843,"x_min":-28,"x_max":738,"o":"m 0 0 l 0 99 l 701 99 l 629 36 l 629 643 l 686 596 l 450 596 q 326 576 369 596 q 265 503 282 557 q 249 347 249 450 q 265 191 249 244 q 326 118 282 138 q 450 99 369 99 l 450 28 q 262 58 329 28 q 167 158 194 88 q 140 347 140 228 q 167 544 140 467 q 262 658 194 621 q 450 694 329 694 l 738 694 l 738 0 l 0 0 m 0 0 q -23 14 -18 0 q -28 50 -28 28 q -23 85 -28 72 q 0 99 -18 99 l 0 0 m 417 819 l 417 944 l 525 944 l 525 819 l 417 819 z "},"ڤ":{"ha":1435,"x_min":75,"x_max":1315,"o":"m 488 0 q 178 72 281 0 q 75 296 75 144 q 80 368 75 329 q 92 444 85 407 q 104 508 99 481 q 111 544 110 535 l 217 525 q 205 464 213 503 q 190 381 197 425 q 183 296 183 336 q 213 183 183 226 q 308 119 242 139 q 488 99 375 99 l 1279 99 l 1207 36 l 1207 643 l 1264 596 l 1028 596 q 903 576 947 596 q 843 503 860 557 q 826 347 826 450 q 843 191 826 244 q 903 118 860 138 q 1028 99 947 99 l 1028 28 q 840 58 907 28 q 745 158 772 88 q 718 347 718 228 q 745 544 718 467 q 840 658 772 621 q 1028 694 907 694 l 1315 694 l 1315 0 l 488 0 m 999 1003 l 999 1121 l 1099 1121 l 1099 1003 l 999 1003 m 899 819 l 899 944 l 1007 944 l 1007 819 l 899 819 m 1089 819 l 1089 944 l 1197 944 l 1197 819 l 1089 819 z "},"ﭫ":{"ha":1465,"x_min":75,"x_max":1493,"o":"m 1315 0 l 1315 99 l 1465 99 l 1465 0 l 1315 0 m 488 0 q 178 72 281 0 q 75 296 75 144 q 80 368 75 329 q 92 444 85 407 q 104 508 99 481 q 111 544 110 535 l 217 525 q 205 464 213 503 q 190 381 197 425 q 183 296 183 336 q 213 183 183 226 q 308 119 242 139 q 488 99 375 99 l 1279 99 l 1207 36 l 1207 643 l 1264 596 l 1028 596 q 903 576 947 596 q 843 503 860 557 q 826 347 826 450 q 843 191 826 244 q 903 118 860 138 q 1028 99 947 99 l 1028 28 q 840 58 907 28 q 745 158 772 88 q 718 347 718 228 q 745 544 718 467 q 840 658 772 621 q 1028 694 907 694 l 1315 694 l 1315 0 l 488 0 m 1465 0 l 1465 99 q 1488 85 1483 99 q 1493 50 1493 72 q 1488 14 1493 28 q 1465 0 1483 0 m 999 1003 l 999 1121 l 1099 1121 l 1099 1003 l 999 1003 m 899 819 l 899 944 l 1007 944 l 1007 819 l 899 819 m 1089 819 l 1089 944 l 1197 944 l 1197 819 l 1089 819 z "},"ﭭ":{"ha":888,"x_min":-28,"x_max":915,"o":"m 738 0 l 738 99 l 888 99 l 888 0 l 738 0 m 0 0 l 0 99 l 701 99 l 629 36 l 629 643 l 686 596 l 450 596 q 326 576 369 596 q 265 503 282 557 q 249 347 249 450 q 265 191 249 244 q 326 118 282 138 q 450 99 369 99 l 450 28 q 262 58 329 28 q 167 158 194 88 q 140 347 140 228 q 167 544 140 467 q 262 658 194 621 q 450 694 329 694 l 738 694 l 738 0 l 0 0 m 0 0 q -23 14 -18 0 q -28 50 -28 28 q -23 85 -28 72 q 0 99 -18 99 l 0 0 m 888 0 l 888 99 q 910 85 906 99 q 915 50 915 72 q 910 14 915 28 q 888 0 906 0 m 421 1003 l 421 1121 l 521 1121 l 521 1003 l 421 1003 m 321 819 l 321 944 l 429 944 l 429 819 l 321 819 m 511 819 l 511 944 l 619 944 l 619 819 l 511 819 z "},"ﭬ":{"ha":843,"x_min":-28,"x_max":738,"o":"m 0 0 l 0 99 l 701 99 l 629 36 l 629 643 l 686 596 l 450 596 q 326 576 369 596 q 265 503 282 557 q 249 347 249 450 q 265 191 249 244 q 326 118 282 138 q 450 99 369 99 l 450 28 q 262 58 329 28 q 167 158 194 88 q 140 347 140 228 q 167 544 140 467 q 262 658 194 621 q 450 694 329 694 l 738 694 l 738 0 l 0 0 m 0 0 q -23 14 -18 0 q -28 50 -28 28 q -23 85 -28 72 q 0 99 -18 99 l 0 0 m 421 1003 l 421 1121 l 521 1121 l 521 1003 l 421 1003 m 321 819 l 321 944 l 429 944 l 429 819 l 321 819 m 511 819 l 511 944 l 619 944 l 619 819 l 511 819 z "},"ڡ":{"ha":1435,"x_min":75,"x_max":1315,"o":"m 488 0 q 178 72 281 0 q 75 296 75 144 q 80 368 75 329 q 92 444 85 407 q 104 508 99 481 q 111 544 110 535 l 217 525 q 205 464 213 503 q 190 381 197 425 q 183 296 183 336 q 213 183 183 226 q 308 119 242 139 q 488 99 375 99 l 1279 99 l 1207 36 l 1207 643 l 1264 596 l 1028 596 q 903 576 947 596 q 843 503 860 557 q 826 347 826 450 q 843 191 826 244 q 903 118 860 138 q 1028 99 947 99 l 1028 28 q 840 58 907 28 q 745 158 772 88 q 718 347 718 228 q 745 544 718 467 q 840 658 772 621 q 1028 694 907 694 l 1315 694 l 1315 0 l 488 0 z "},"ٯ":{"ha":1199,"x_min":56,"x_max":1093,"o":"m 421 -369 q 236 -332 319 -369 q 104 -228 153 -294 q 56 -74 56 -161 q 61 6 56 -44 q 75 117 67 57 q 93 240 83 178 q 111 354 103 303 l 218 338 q 190 163 203 243 q 172 25 178 83 q 165 -65 165 -33 q 197 -176 165 -131 q 287 -247 229 -222 q 421 -271 344 -271 l 743 -271 q 921 -219 857 -271 q 985 -81 985 -168 l 985 643 l 1042 596 l 806 596 q 681 576 725 596 q 621 503 638 557 q 604 347 604 450 q 621 191 604 244 q 681 118 638 138 q 806 99 725 99 l 985 99 l 985 0 l 806 0 q 617 37 683 0 q 523 151 550 74 q 496 347 496 228 q 523 544 496 467 q 617 658 550 621 q 806 694 683 694 l 1093 694 l 1093 -81 q 1044 -241 1093 -176 q 915 -337 994 -306 q 743 -369 835 -369 l 421 -369 z "},"ق":{"ha":1199,"x_min":56,"x_max":1093,"o":"m 421 -369 q 236 -332 319 -369 q 104 -228 153 -294 q 56 -74 56 -161 q 61 6 56 -44 q 75 117 67 57 q 93 240 83 178 q 111 354 103 303 l 218 338 q 190 163 203 243 q 172 25 178 83 q 165 -65 165 -33 q 197 -176 165 -131 q 287 -247 229 -222 q 421 -271 344 -271 l 743 -271 q 921 -219 857 -271 q 985 -81 985 -168 l 985 643 l 1042 596 l 806 596 q 681 576 725 596 q 621 503 638 557 q 604 347 604 450 q 621 191 604 244 q 681 118 638 138 q 806 99 725 99 l 985 99 l 985 0 l 806 0 q 617 37 683 0 q 523 151 550 74 q 496 347 496 228 q 523 544 496 467 q 617 658 550 621 q 806 694 683 694 l 1093 694 l 1093 -81 q 1044 -241 1093 -176 q 915 -337 994 -306 q 743 -369 835 -369 l 421 -369 m 678 819 l 678 944 l 786 944 l 786 819 l 678 819 m 868 819 l 868 944 l 976 944 l 976 819 l 868 819 z "},"ﻖ":{"ha":1243,"x_min":56,"x_max":1271,"o":"m 1093 0 l 1093 99 l 1243 99 l 1243 0 l 1093 0 m 421 -369 q 236 -332 319 -369 q 104 -228 153 -294 q 56 -74 56 -161 q 61 6 56 -44 q 75 117 67 57 q 93 240 83 178 q 111 354 103 303 l 218 338 q 190 163 203 243 q 172 25 178 83 q 165 -65 165 -33 q 197 -176 165 -131 q 287 -247 229 -222 q 421 -271 344 -271 l 743 -271 q 921 -219 857 -271 q 985 -81 985 -168 l 985 643 l 1042 596 l 806 596 q 681 576 725 596 q 621 503 638 557 q 604 347 604 450 q 621 191 604 244 q 681 118 638 138 q 806 99 725 99 l 985 99 l 985 0 l 806 0 q 617 37 683 0 q 523 151 550 74 q 496 347 496 228 q 523 544 496 467 q 617 658 550 621 q 806 694 683 694 l 1093 694 l 1093 -81 q 1044 -241 1093 -176 q 915 -337 994 -306 q 743 -369 835 -369 l 421 -369 m 1243 0 l 1243 99 q 1266 85 1261 99 q 1271 50 1271 72 q 1266 14 1271 28 q 1243 0 1261 0 m 678 819 l 678 944 l 786 944 l 786 819 l 678 819 m 868 819 l 868 944 l 976 944 l 976 819 l 868 819 z "},"ﻘ":{"ha":888,"x_min":-28,"x_max":915,"o":"m 738 0 l 738 99 l 888 99 l 888 0 l 738 0 m 0 0 l 0 99 l 701 99 l 629 36 l 629 643 l 686 596 l 450 596 q 326 576 369 596 q 265 503 282 557 q 249 347 249 450 q 265 191 249 244 q 326 118 282 138 q 450 99 369 99 l 450 28 q 262 58 329 28 q 167 158 194 88 q 140 347 140 228 q 167 544 140 467 q 262 658 194 621 q 450 694 329 694 l 738 694 l 738 0 l 0 0 m 0 0 q -23 14 -18 0 q -28 50 -28 28 q -23 85 -28 72 q 0 99 -18 99 l 0 0 m 888 0 l 888 99 q 910 85 906 99 q 915 50 915 72 q 910 14 915 28 q 888 0 906 0 m 322 819 l 322 944 l 431 944 l 431 819 l 322 819 m 513 819 l 513 944 l 621 944 l 621 819 l 513 819 z "},"ﻗ":{"ha":843,"x_min":-28,"x_max":738,"o":"m 0 0 l 0 99 l 701 99 l 629 36 l 629 643 l 686 596 l 450 596 q 326 576 369 596 q 265 503 282 557 q 249 347 249 450 q 265 191 249 244 q 326 118 282 138 q 450 99 369 99 l 450 28 q 262 58 329 28 q 167 158 194 88 q 140 347 140 228 q 167 544 140 467 q 262 658 194 621 q 450 694 329 694 l 738 694 l 738 0 l 0 0 m 0 0 q -23 14 -18 0 q -28 50 -28 28 q -23 85 -28 72 q 0 99 -18 99 l 0 0 m 322 819 l 322 944 l 431 944 l 431 819 l 322 819 m 513 819 l 513 944 l 621 944 l 621 819 l 513 819 z "},"ك":{"ha":1089,"x_min":56,"x_max":985,"o":"m 468 0 q 158 72 261 0 q 56 296 56 144 q 60 368 56 329 q 72 444 65 407 q 85 508 79 481 q 92 544 90 535 l 197 525 q 185 464 193 503 q 171 381 178 425 q 164 296 164 336 q 193 183 164 226 q 289 119 222 139 q 468 99 356 99 l 926 99 l 876 58 l 876 996 l 985 996 l 985 0 l 468 0 m 456 481 q 422 535 433 508 q 410 590 410 561 q 430 663 410 631 q 483 713 450 694 q 556 731 517 731 q 600 724 578 731 q 639 707 622 718 l 603 644 q 581 653 592 651 q 560 656 571 656 q 509 638 528 656 q 490 590 490 619 q 498 556 490 572 q 521 519 506 539 l 456 481 m 383 481 l 383 554 l 657 554 l 657 481 l 383 481 z "},"ﻚ":{"ha":1135,"x_min":56,"x_max":1163,"o":"m 985 0 l 985 99 l 1135 99 l 1135 0 l 985 0 m 468 0 q 158 72 261 0 q 56 296 56 144 q 60 368 56 329 q 72 444 65 407 q 85 508 79 481 q 92 544 90 535 l 197 525 q 185 464 193 503 q 171 381 178 425 q 164 296 164 336 q 193 183 164 226 q 289 119 222 139 q 468 99 356 99 l 926 99 l 876 58 l 876 996 l 985 996 l 985 0 l 468 0 m 1135 0 l 1135 99 q 1158 85 1153 99 q 1163 50 1163 72 q 1158 14 1163 28 q 1135 0 1153 0 m 456 481 q 422 535 433 508 q 410 590 410 561 q 430 663 410 631 q 483 713 450 694 q 556 731 517 731 q 600 724 578 731 q 639 707 622 718 l 603 644 q 581 653 592 651 q 560 656 571 656 q 509 638 528 656 q 490 590 490 619 q 498 556 490 572 q 521 519 506 539 l 456 481 m 383 481 l 383 554 l 657 554 l 657 481 l 383 481 z "},"ﻜ":{"ha":914,"x_min":-28,"x_max":942,"o":"m 764 0 l 764 99 l 914 99 l 914 0 l 764 0 m 0 0 l 0 99 l 694 99 l 656 64 l 656 311 q 635 435 656 386 q 576 509 615 485 q 476 533 536 533 l 174 533 l 94 653 l 154 768 q 189 831 171 799 q 233 904 207 863 q 300 1006 260 946 l 390 951 q 325 850 350 890 q 283 781 300 810 q 250 722 265 751 l 181 589 l 153 632 l 476 632 q 620 602 564 632 q 708 524 676 572 q 751 419 739 475 q 764 311 764 363 l 764 0 l 0 0 m 0 0 q -23 14 -18 0 q -28 50 -28 28 q -23 85 -28 72 q 0 99 -18 99 l 0 0 m 914 0 l 914 99 q 937 85 932 99 q 942 50 942 72 q 937 14 942 28 q 914 0 932 0 z "},"ﻛ":{"ha":868,"x_min":-28,"x_max":764,"o":"m 0 0 l 0 99 l 694 99 l 656 64 l 656 311 q 635 435 656 386 q 576 509 615 485 q 476 533 536 533 l 174 533 l 94 653 l 154 768 q 189 831 171 799 q 233 904 207 863 q 300 1006 260 946 l 390 951 q 325 850 350 890 q 283 781 300 810 q 250 722 265 751 l 181 589 l 153 632 l 476 632 q 620 602 564 632 q 708 524 676 572 q 751 419 739 475 q 764 311 764 363 l 764 0 l 0 0 m 0 0 q -23 14 -18 0 q -28 50 -28 28 q -23 85 -28 72 q 0 99 -18 99 l 0 0 z "},"ک":{"ha":1089,"x_min":56,"x_max":985,"o":"m 468 0 q 158 72 261 0 q 56 296 56 144 q 60 355 56 321 q 69 424 64 389 q 81 492 75 460 q 92 544 88 524 l 197 525 q 187 469 193 500 q 176 407 181 439 q 167 346 171 375 q 164 296 164 317 q 193 183 164 226 q 289 119 222 139 q 468 99 356 99 l 876 99 l 876 311 q 856 435 876 386 q 797 509 836 485 q 697 533 757 533 l 393 533 l 315 653 l 375 768 q 410 831 392 799 q 454 904 428 863 q 521 1006 481 946 l 610 951 q 544 850 569 890 q 503 781 519 810 q 471 722 486 751 l 422 632 l 697 632 q 841 602 785 632 q 928 524 897 572 q 972 419 960 475 q 985 311 985 363 l 985 0 l 468 0 z "},"ﮏ":{"ha":1135,"x_min":56,"x_max":1163,"o":"m 985 0 l 985 99 l 1135 99 l 1135 0 l 985 0 m 468 0 q 158 72 261 0 q 56 296 56 144 q 60 355 56 321 q 69 424 64 389 q 81 492 75 460 q 92 544 88 524 l 197 525 q 187 469 193 500 q 176 407 181 439 q 167 346 171 375 q 164 296 164 317 q 193 183 164 226 q 289 119 222 139 q 468 99 356 99 l 876 99 l 876 311 q 856 435 876 386 q 797 509 836 485 q 697 533 757 533 l 393 533 l 315 653 l 375 768 q 410 831 392 799 q 454 904 428 863 q 521 1006 481 946 l 610 951 q 544 850 569 890 q 503 781 519 810 q 471 722 486 751 l 422 632 l 697 632 q 841 602 785 632 q 928 524 897 572 q 972 419 960 475 q 985 311 985 363 l 985 0 l 468 0 m 1135 0 l 1135 99 q 1158 85 1153 99 q 1163 50 1163 72 q 1158 14 1163 28 q 1135 0 1153 0 z "},"ﮑ":{"ha":914,"x_min":-28,"x_max":942,"o":"m 764 0 l 764 99 l 914 99 l 914 0 l 764 0 m 0 0 l 0 99 l 694 99 l 656 64 l 656 311 q 635 435 656 386 q 576 509 615 485 q 476 533 536 533 l 174 533 l 94 653 l 154 768 q 189 831 171 799 q 233 904 207 863 q 300 1006 260 946 l 390 951 q 325 850 350 890 q 283 781 300 810 q 250 722 265 751 l 181 589 l 153 632 l 476 632 q 620 602 564 632 q 708 524 676 572 q 751 419 739 475 q 764 311 764 363 l 764 0 l 0 0 m 0 0 q -23 14 -18 0 q -28 50 -28 28 q -23 85 -28 72 q 0 99 -18 99 l 0 0 m 914 0 l 914 99 q 937 85 932 99 q 942 50 942 72 q 937 14 942 28 q 914 0 932 0 z "},"ﮐ":{"ha":868,"x_min":-28,"x_max":764,"o":"m 0 0 l 0 99 l 694 99 l 656 64 l 656 311 q 635 435 656 386 q 576 509 615 485 q 476 533 536 533 l 174 533 l 94 653 l 154 768 q 189 831 171 799 q 233 904 207 863 q 300 1006 260 946 l 390 951 q 325 850 350 890 q 283 781 300 810 q 250 722 265 751 l 181 589 l 153 632 l 476 632 q 620 602 564 632 q 708 524 676 572 q 751 419 739 475 q 764 311 764 363 l 764 0 l 0 0 m 0 0 q -23 14 -18 0 q -28 50 -28 28 q -23 85 -28 72 q 0 99 -18 99 l 0 0 z "},"گ":{"ha":1089,"x_min":56,"x_max":985,"o":"m 285 696 l 238 767 q 292 872 268 826 q 343 963 315 917 q 414 1071 371 1008 l 478 1032 q 426 951 449 988 q 381 878 403 915 q 336 799 360 842 q 285 696 313 756 m 468 0 q 158 72 261 0 q 56 296 56 144 q 60 355 56 321 q 69 424 64 389 q 81 492 75 460 q 92 544 88 524 l 197 525 q 187 469 193 500 q 176 407 181 439 q 167 346 171 375 q 164 296 164 317 q 193 183 164 226 q 289 119 222 139 q 468 99 356 99 l 876 99 l 876 311 q 856 435 876 386 q 797 509 836 485 q 697 533 757 533 l 393 533 l 315 653 l 375 768 q 410 831 392 799 q 454 904 428 863 q 521 1006 481 946 l 610 951 q 544 850 569 890 q 503 781 519 810 q 471 722 486 751 l 422 632 l 697 632 q 841 602 785 632 q 928 524 897 572 q 972 419 960 475 q 985 311 985 363 l 985 0 l 468 0 z "},"ﮓ":{"ha":1135,"x_min":56,"x_max":1163,"o":"m 285 696 l 238 767 q 292 872 268 826 q 343 963 315 917 q 414 1071 371 1008 l 478 1032 q 426 951 449 988 q 381 878 403 915 q 336 799 360 842 q 285 696 313 756 m 468 0 q 158 72 261 0 q 56 296 56 144 q 60 355 56 321 q 69 424 64 389 q 81 492 75 460 q 92 544 88 524 l 197 525 q 187 469 193 500 q 176 407 181 439 q 167 346 171 375 q 164 296 164 317 q 193 183 164 226 q 289 119 222 139 q 468 99 356 99 l 876 99 l 876 311 q 856 435 876 386 q 797 509 836 485 q 697 533 757 533 l 393 533 l 315 653 l 375 768 q 410 831 392 799 q 454 904 428 863 q 521 1006 481 946 l 610 951 q 544 850 569 890 q 503 781 519 810 q 471 722 486 751 l 422 632 l 697 632 q 841 602 785 632 q 928 524 897 572 q 972 419 960 475 q 985 311 985 363 l 985 0 l 468 0 m 1135 0 l 1135 99 q 1158 85 1153 99 q 1163 50 1163 72 q 1158 14 1163 28 q 1135 0 1153 0 m 985 0 l 985 99 l 1135 99 l 1135 0 l 985 0 z "},"ﮕ":{"ha":983,"x_min":-28,"x_max":1011,"o":"m 833 0 l 833 99 l 983 99 l 983 0 l 833 0 m 983 0 l 983 99 q 1006 85 1001 99 q 1011 50 1011 72 q 1006 14 1011 28 q 983 0 1001 0 m 118 696 l 71 767 q 125 872 101 826 q 176 963 149 917 q 247 1071 204 1008 l 311 1032 q 259 951 282 988 q 215 878 236 915 q 169 799 193 842 q 118 696 146 756 m 0 0 l 0 99 l 764 99 l 725 64 l 725 311 q 705 435 725 386 q 645 509 685 485 q 546 533 606 533 l 243 533 l 164 653 l 224 768 q 258 831 240 799 q 303 904 276 863 q 369 1006 329 946 l 460 951 q 394 850 419 890 q 352 781 369 810 q 319 722 335 751 l 250 589 l 222 632 l 546 632 q 690 602 633 632 q 777 524 746 572 q 821 419 808 475 q 833 311 833 363 l 833 0 l 0 0 m 0 0 q -23 14 -18 0 q -28 50 -28 28 q -23 85 -28 72 q 0 99 -18 99 l 0 0 z "},"ﮔ":{"ha":938,"x_min":-28,"x_max":833,"o":"m 118 696 l 71 767 q 125 872 101 826 q 176 963 149 917 q 247 1071 204 1008 l 311 1032 q 259 951 282 988 q 215 878 236 915 q 169 799 193 842 q 118 696 146 756 m 0 0 l 0 99 l 764 99 l 725 64 l 725 311 q 705 435 725 386 q 645 509 685 485 q 546 533 606 533 l 243 533 l 164 653 l 224 768 q 258 831 240 799 q 303 904 276 863 q 369 1006 329 946 l 460 951 q 394 850 419 890 q 352 781 369 810 q 319 722 335 751 l 250 589 l 222 632 l 546 632 q 690 602 633 632 q 777 524 746 572 q 821 419 808 475 q 833 311 833 363 l 833 0 l 0 0 m 0 0 q -23 14 -18 0 q -28 50 -28 28 q -23 85 -28 72 q 0 99 -18 99 l 0 0 z "},"ل":{"ha":925,"x_min":56,"x_max":821,"o":"m 446 -344 q 247 -304 336 -344 q 107 -192 158 -264 q 56 -26 56 -119 q 60 51 56 3 q 73 158 65 99 q 90 277 81 217 q 108 392 100 338 l 215 375 q 188 198 200 279 q 170 59 176 117 q 164 -26 164 1 q 199 -140 164 -90 q 299 -217 235 -189 q 446 -246 363 -246 q 589 -219 529 -246 q 681 -146 649 -193 q 713 -35 713 -99 l 713 996 l 821 996 l 821 -35 q 770 -201 821 -132 q 635 -308 719 -271 q 446 -344 550 -344 z "},"ﻞ":{"ha":971,"x_min":56,"x_max":999,"o":"m 821 0 l 821 99 l 971 99 l 971 0 l 821 0 m 446 -344 q 247 -304 336 -344 q 107 -192 158 -264 q 56 -26 56 -119 q 60 51 56 3 q 73 158 65 99 q 90 277 81 217 q 108 392 100 338 l 215 375 q 188 198 200 279 q 170 59 176 117 q 164 -26 164 1 q 199 -140 164 -90 q 299 -217 235 -189 q 446 -246 363 -246 q 589 -219 529 -246 q 681 -146 649 -193 q 713 -35 713 -99 l 713 996 l 821 996 l 821 -35 q 770 -201 821 -132 q 635 -308 719 -271 q 446 -344 550 -344 m 971 0 l 971 99 q 994 85 989 99 q 999 50 999 72 q 994 14 999 28 q 971 0 989 0 z "},"ﻠ":{"ha":426,"x_min":-28,"x_max":454,"o":"m 276 0 l 276 99 l 426 99 l 426 0 l 276 0 m 168 0 l 168 996 l 276 996 l 276 0 l 168 0 m 0 0 l 0 99 l 168 99 l 168 0 l 0 0 m 0 0 q -23 14 -18 0 q -28 50 -28 28 q -23 85 -28 72 q 0 99 -18 99 l 0 0 m 426 0 l 426 99 q 449 85 444 99 q 454 50 454 72 q 449 14 454 28 q 426 0 444 0 z "},"ﻟ":{"ha":382,"x_min":-28,"x_max":276,"o":"m 168 0 l 168 996 l 276 996 l 276 0 l 168 0 m 0 0 l 0 99 l 168 99 l 168 0 l 0 0 m 0 0 q -23 14 -18 0 q -28 50 -28 28 q -23 85 -28 72 q 0 99 -18 99 l 0 0 z "},"م":{"ha":869,"x_min":56,"x_max":765,"o":"m 90 -461 q 66 -311 76 -382 q 56 -190 56 -240 q 87 -35 56 -100 q 177 64 118 29 q 318 99 236 99 q 388 99 342 99 q 493 99 433 99 q 617 99 553 99 q 738 99 681 99 l 657 28 l 657 340 q 635 493 657 438 q 559 572 613 549 q 414 596 506 596 q 298 588 356 596 q 208 565 240 579 l 274 632 q 257 548 265 599 q 244 439 249 497 q 239 322 239 381 q 244 206 239 263 q 256 107 249 149 q 267 49 263 65 l 164 19 q 151 82 158 38 q 137 189 143 126 q 131 322 131 251 q 137 455 131 390 q 152 572 143 519 q 169 657 161 625 q 267 682 200 669 q 414 694 333 694 q 540 683 483 694 q 638 644 596 671 q 709 577 681 618 q 751 477 738 536 q 765 340 765 418 l 765 0 q 640 0 707 0 q 508 0 572 0 q 392 0 443 0 q 318 0 342 0 q 269 -6 296 0 q 219 -31 243 -12 q 179 -88 194 -50 q 164 -190 164 -126 q 174 -311 164 -243 q 196 -461 183 -379 l 90 -461 z "},"ﻢ":{"ha":915,"x_min":56,"x_max":943,"o":"m 765 0 l 765 99 l 915 99 l 915 0 l 765 0 m 90 -461 q 66 -311 76 -382 q 56 -190 56 -240 q 87 -35 56 -100 q 177 64 118 29 q 318 99 236 99 q 388 99 342 99 q 493 99 433 99 q 617 99 553 99 q 738 99 681 99 l 657 28 l 657 340 q 635 493 657 438 q 559 572 613 549 q 414 596 506 596 q 298 588 356 596 q 208 565 240 579 l 274 632 q 257 548 265 599 q 244 439 249 497 q 239 322 239 381 q 244 206 239 263 q 256 107 249 149 q 267 49 263 65 l 164 19 q 151 82 158 38 q 137 189 143 126 q 131 322 131 251 q 137 455 131 390 q 152 572 143 519 q 169 657 161 625 q 267 682 200 669 q 414 694 333 694 q 540 683 483 694 q 638 644 596 671 q 709 577 681 618 q 751 477 738 536 q 765 340 765 418 l 765 0 q 640 0 707 0 q 508 0 572 0 q 392 0 443 0 q 318 0 342 0 q 269 -6 296 0 q 219 -31 243 -12 q 179 -88 194 -50 q 164 -190 164 -126 q 174 -311 164 -243 q 196 -461 183 -379 l 90 -461 m 915 0 l 915 99 q 938 85 933 99 q 943 50 943 72 q 938 14 943 28 q 915 0 933 0 z "},"ﻤ":{"ha":938,"x_min":-28,"x_max":965,"o":"m 788 0 l 788 99 l 938 99 l 938 0 l 788 0 m 0 0 l 0 99 l 760 99 l 679 42 l 679 340 q 657 493 679 438 q 581 572 635 549 q 436 596 528 596 q 320 588 378 596 q 231 565 263 579 l 296 632 q 279 548 288 599 q 265 439 271 497 q 260 322 260 381 q 265 206 260 263 q 278 107 271 149 q 289 49 285 65 l 186 19 q 173 82 181 38 q 159 189 165 126 q 153 322 153 251 q 159 455 153 390 q 174 572 165 519 q 192 657 183 625 q 289 682 222 669 q 436 694 356 694 q 631 660 553 694 q 749 548 710 625 q 788 340 788 471 l 788 0 l 0 0 m 0 0 q -23 14 -18 0 q -28 50 -28 28 q -23 85 -28 72 q 0 99 -18 99 l 0 0 m 938 0 l 938 99 q 960 85 956 99 q 965 50 965 72 q 960 14 965 28 q 938 0 956 0 z "},"ﻣ":{"ha":892,"x_min":-28,"x_max":788,"o":"m 0 0 l 0 99 l 760 99 l 679 42 l 679 340 q 657 493 679 438 q 581 572 635 549 q 436 596 528 596 q 320 588 378 596 q 231 565 263 579 l 296 632 q 279 548 288 599 q 265 439 271 497 q 260 322 260 381 q 265 206 260 263 q 278 107 271 149 q 289 49 285 65 l 186 19 q 173 82 181 38 q 159 189 165 126 q 153 322 153 251 q 159 455 153 390 q 174 572 165 519 q 192 657 183 625 q 289 682 222 669 q 436 694 356 694 q 631 660 553 694 q 749 548 710 625 q 788 340 788 471 l 788 0 l 0 0 m 0 0 q -23 14 -18 0 q -28 50 -28 28 q -23 85 -28 72 q 0 99 -18 99 l 0 0 z "},"ن":{"ha":925,"x_min":56,"x_max":821,"o":"m 446 -344 q 247 -304 336 -344 q 107 -192 158 -264 q 56 -26 56 -119 q 60 51 56 3 q 73 158 65 99 q 90 277 81 217 q 108 392 100 338 l 215 375 q 188 198 200 279 q 170 59 176 117 q 164 -26 164 1 q 199 -140 164 -90 q 299 -217 235 -189 q 446 -246 363 -246 q 589 -219 529 -246 q 681 -146 649 -193 q 713 -35 713 -99 l 713 694 l 821 694 l 821 -35 q 770 -201 821 -132 q 635 -308 719 -271 q 446 -344 550 -344 m 386 694 l 386 819 l 494 819 l 494 694 l 386 694 z "},"ﻦ":{"ha":971,"x_min":56,"x_max":999,"o":"m 821 0 l 821 99 l 971 99 l 971 0 l 821 0 m 446 -344 q 247 -304 336 -344 q 107 -192 158 -264 q 56 -26 56 -119 q 60 51 56 3 q 73 158 65 99 q 90 277 81 217 q 108 392 100 338 l 215 375 q 188 198 200 279 q 170 59 176 117 q 164 -26 164 1 q 199 -140 164 -90 q 299 -217 235 -189 q 446 -246 363 -246 q 589 -219 529 -246 q 681 -146 649 -193 q 713 -35 713 -99 l 713 694 l 821 694 l 821 -35 q 770 -201 821 -132 q 635 -308 719 -271 q 446 -344 550 -344 m 971 0 l 971 99 q 994 85 989 99 q 999 50 999 72 q 994 14 999 28 q 971 0 989 0 m 386 694 l 386 819 l 494 819 l 494 694 l 386 694 z "}}}
